<svg width="152" height="144" viewBox="0 0 152 144" fill="none" xmlns="http://www.w3.org/2000/svg">
<g clip-path="url(#clip0_5_12)">
<path d="M91.1062 43.0532C81.7445 46.3005 70.504 39.474 65.9965 27.8069C61.4917 16.1395 65.428 4.05196 74.7882 0.806612C84.1519 -2.4362 95.3913 4.38833 99.8984 16.0554C104.404 27.7228 100.467 39.8104 91.1062 43.0532Z" fill="#EED9DD"/>
<path d="M126.678 61.661C116.885 60.8566 109.851 50.3142 110.964 38.1063C112.08 25.9025 120.923 16.6601 130.716 17.46C140.508 18.2669 147.541 28.8112 146.427 41.0172C145.311 53.2209 136.47 62.4631 126.678 61.661Z" fill="#EED9DD"/>
<path d="M50.4106 61.2472C41.8155 66.0333 29.4655 61.2267 22.8232 50.5164C16.1809 39.7991 17.7641 27.2407 26.3604 22.455C34.9553 17.6735 47.3079 22.4823 53.949 33.1926C60.5907 43.9079 59.0054 56.466 50.4106 61.2472Z" fill="#EED9DD"/>
<path d="M4.37621 73.944C9.94885 66.274 23.1001 65.6811 33.7532 72.6238C44.4086 79.571 48.5263 91.4175 42.9551 99.0897C37.384 106.759 24.2315 107.353 13.5782 100.408C2.92628 93.4627 -1.19376 81.6162 4.37621 73.944Z" fill="#EED9DD"/>
<path d="M61.5983 75.3916C62.6611 68.4242 67.1695 62.0699 74.3755 58.8473C81.5801 55.627 89.6245 56.3704 95.9755 60.0199C102.995 64.0558 107.486 69.3281 113.532 71.6327C119.577 73.937 136.51 67.0739 147.053 85.2109C154.499 98.0212 147.664 114.216 133.705 120.456C123.095 125.199 114.698 124.669 108.533 127.423C102.37 130.178 97.4629 136.657 86.8541 141.399C72.8956 147.64 55.3556 142.345 49.6512 128.755C41.5744 109.516 57.9331 101.496 59.8999 95.6098C61.8649 89.7246 60.423 83.0885 61.5983 75.3916Z" fill="#EED9DD"/>
</g>
<defs>
<clipPath id="clip0_5_12">
<rect width="152" height="144" fill="white" transform="matrix(-1 0 0 1 152 0)"/>
</clipPath>
</defs>
</svg>
