<svg width="147" height="131" viewBox="0 0 147 131" fill="none" xmlns="http://www.w3.org/2000/svg">
<path d="M73.3223 0C113.818 0 146.645 29.0562 146.645 64.9003C146.645 80.0239 140.782 93.9324 130.981 104.962L137.138 131L109.78 121.197C99.0353 126.658 86.601 129.801 73.3223 129.801C32.831 129.801 -0.000102997 100.741 -0.000102997 64.9003C-0.000102997 29.0562 32.831 0 73.3223 0Z" fill="#EED9DD"/>
<path d="M47.188 67.456C48.404 67.776 49.396 68.288 50.164 68.992C50.9533 69.6747 51.54 70.4533 51.924 71.328C52.308 72.2027 52.5 73.0987 52.5 74.016C52.5 75.104 52.2333 76.1493 51.7 77.152C51.188 78.1333 50.4307 78.9333 49.428 79.552C48.4253 80.1707 47.1773 80.48 45.684 80.48C44.7667 80.48 43.892 80.3413 43.06 80.064C42.2493 79.808 41.524 79.3387 40.884 78.656C40.692 78.4213 40.596 78.176 40.596 77.92C40.596 77.5573 40.756 77.2373 41.076 76.96C41.3107 76.768 41.5667 76.672 41.844 76.672C42.164 76.672 42.4627 76.7787 42.74 76.992C43.2093 77.376 43.7 77.664 44.212 77.856C44.724 78.0267 45.236 78.112 45.748 78.112C46.516 78.112 47.2307 77.9413 47.892 77.6C48.5747 77.2373 49.1187 76.768 49.524 76.192C49.9293 75.5947 50.132 74.944 50.132 74.24C50.132 74.1333 50.132 74.0373 50.132 73.952C50.132 73.8667 50.1213 73.7813 50.1 73.696C49.844 72.2667 49.1827 71.1893 48.116 70.464C47.0707 69.7173 45.7693 69.344 44.212 69.344C43.2947 69.344 42.3027 69.4827 41.236 69.76C40.1907 70.0373 39.1133 70.4533 38.004 71.008C37.8547 71.072 37.78 71.1787 37.78 71.328C37.8013 72.3947 37.7907 73.4613 37.748 74.528C37.7053 75.5947 37.6307 76.64 37.524 77.664C37.4173 78.4747 37.1613 79.1467 36.756 79.68C36.372 80.192 35.7533 80.448 34.9 80.448C34.6227 80.448 34.292 80.4053 33.908 80.32C33.5453 80.256 33.1507 80.1387 32.724 79.968C31.7213 79.5413 30.8573 79.0613 30.132 78.528C29.428 77.9733 29.076 77.312 29.076 76.544C29.076 76.032 29.268 75.4667 29.652 74.848C30.036 74.2293 30.6547 73.5253 31.508 72.736C32.1053 72.2027 32.7027 71.7013 33.3 71.232C33.9187 70.7627 34.548 70.336 35.188 69.952C35.316 69.8453 35.38 69.728 35.38 69.6C35.3587 68.6827 35.316 67.7973 35.252 66.944C35.2093 66.0907 35.156 65.2373 35.092 64.384C35.0707 64.2133 34.964 64.1387 34.772 64.16C33.876 64.3307 32.9693 64.4693 32.052 64.576C31.1347 64.6827 30.2067 64.7573 29.268 64.8C28.9267 64.8213 28.6387 64.7147 28.404 64.48C28.1907 64.224 28.084 63.9253 28.084 63.584C28.084 63.2853 28.1907 63.0293 28.404 62.816C28.6387 62.5813 28.916 62.4533 29.236 62.432C30.1533 62.3893 31.0493 62.3147 31.924 62.208C32.7987 62.1013 33.6627 61.9733 34.516 61.824C34.7293 61.7813 34.8147 61.664 34.772 61.472C34.516 59.6373 34.2067 58.048 33.844 56.704C33.8227 56.64 33.8013 56.5867 33.78 56.544C33.78 56.48 33.78 56.4267 33.78 56.384C33.78 56.064 33.8867 55.7973 34.1 55.584C34.3347 55.3493 34.6227 55.232 34.964 55.232C35.2413 55.232 35.4867 55.3173 35.7 55.488C35.9347 55.6373 36.084 55.8613 36.148 56.16C36.468 57.4613 36.7773 59.04 37.076 60.896C37.076 61.1093 37.1827 61.1947 37.396 61.152C37.908 61.0027 38.4093 60.8533 38.9 60.704C39.3907 60.5333 39.86 60.352 40.308 60.16C40.4787 60.096 40.628 60.064 40.756 60.064C41.3107 60.064 41.684 60.2987 41.876 60.768C41.9613 60.9173 42.004 61.088 42.004 61.28C42.004 61.792 41.7693 62.1333 41.3 62.304C40.724 62.5387 40.1267 62.7627 39.508 62.976C38.9107 63.168 38.2813 63.3493 37.62 63.52C37.428 63.5627 37.3533 63.6693 37.396 63.84C37.46 64.544 37.5133 65.2693 37.556 66.016C37.62 66.7413 37.6733 67.4773 37.716 68.224C37.716 68.4587 37.844 68.5227 38.1 68.416C39.124 67.9893 40.148 67.6587 41.172 67.424C42.2173 67.1893 43.2307 67.072 44.212 67.072C45.236 67.072 46.228 67.2 47.188 67.456ZM53.332 64.032C53.652 64.288 53.812 64.608 53.812 64.992C53.812 65.2693 53.7267 65.5253 53.556 65.76C53.3213 66.0587 53.012 66.208 52.628 66.208C52.372 66.208 52.1373 66.1333 51.924 65.984C51.156 65.4293 50.26 64.9707 49.236 64.608C48.212 64.224 47.1027 63.9787 45.908 63.872C45.6093 63.8507 45.3427 63.7333 45.108 63.52C44.8947 63.2853 44.788 63.008 44.788 62.688C44.788 62.3253 44.916 62.0267 45.172 61.792C45.428 61.5573 45.7267 61.4613 46.068 61.504C47.4333 61.5893 48.7347 61.856 49.972 62.304C51.2307 62.7307 52.3507 63.3067 53.332 64.032ZM32.276 77.184C32.9587 77.5253 33.4813 77.792 33.844 77.984C34.228 78.1547 34.516 78.24 34.708 78.24C34.9213 78.24 35.0493 78.1333 35.092 77.92C35.156 77.7067 35.1987 77.3973 35.22 76.992C35.2627 76.5867 35.2947 76.0107 35.316 75.264C35.3373 74.5173 35.3587 73.7813 35.38 73.056C35.38 72.928 35.348 72.8427 35.284 72.8C35.22 72.7573 35.1347 72.7787 35.028 72.864C33.94 73.632 33.0333 74.3893 32.308 75.136C31.7747 75.6907 31.508 76.1173 31.508 76.416C31.508 76.5867 31.5827 76.736 31.732 76.864C31.8813 76.9707 32.0627 77.0773 32.276 77.184ZM73.812 70.592C73.812 70.72 73.876 70.784 74.004 70.784H84.5C84.8413 70.784 85.1293 70.9013 85.364 71.136C85.5987 71.3707 85.716 71.648 85.716 71.968C85.716 72.3093 85.5987 72.5973 85.364 72.832C85.1293 73.0667 84.8413 73.184 84.5 73.184H74.004C73.876 73.184 73.812 73.248 73.812 73.376V78.56C73.812 79.456 73.4707 80.2027 72.788 80.8C72.1053 81.3973 70.932 81.696 69.268 81.696C68.756 81.696 68.18 81.664 67.54 81.6C67.22 81.5573 66.9533 81.408 66.74 81.152C66.5267 80.9173 66.42 80.6293 66.42 80.288C66.42 79.9467 66.548 79.6693 66.804 79.456C67.0813 79.2213 67.3907 79.1253 67.732 79.168C68.372 79.232 68.948 79.264 69.46 79.264C70.036 79.264 70.4947 79.2107 70.836 79.104C71.1987 78.976 71.38 78.7627 71.38 78.464V73.376C71.38 73.248 71.316 73.184 71.188 73.184H60.5C60.1587 73.184 59.8707 73.0667 59.636 72.832C59.4227 72.5973 59.316 72.3093 59.316 71.968C59.316 71.648 59.4227 71.3707 59.636 71.136C59.8707 70.9013 60.1587 70.784 60.5 70.784H71.188C71.316 70.784 71.38 70.72 71.38 70.592V66.176C71.38 66.048 71.316 65.984 71.188 65.984H62.452C62.1107 65.984 61.8227 65.8773 61.588 65.664C61.3747 65.4293 61.268 65.1413 61.268 64.8C61.268 64.4587 61.3747 64.1813 61.588 63.968C61.8227 63.7333 62.1107 63.616 62.452 63.616H71.188C71.316 63.616 71.38 63.552 71.38 63.424V59.2C71.38 59.0507 71.316 58.9973 71.188 59.04C69.78 59.2107 68.4253 59.3493 67.124 59.456C65.844 59.5627 64.7133 59.6373 63.732 59.68C63.3907 59.7013 63.092 59.584 62.836 59.328C62.58 59.072 62.452 58.7627 62.452 58.4C62.452 58.1013 62.548 57.8453 62.74 57.632C62.9533 57.4187 63.22 57.3013 63.54 57.28C64.8627 57.216 66.292 57.12 67.828 56.992C69.364 56.8427 70.9213 56.6613 72.5 56.448C74.0787 56.2347 75.5827 55.9893 77.012 55.712C78.4627 55.4347 79.7533 55.136 80.884 54.816C80.948 54.7947 81.0013 54.784 81.044 54.784C81.108 54.7627 81.172 54.752 81.236 54.752C81.5347 54.752 81.7907 54.8693 82.004 55.104C82.2173 55.3173 82.324 55.584 82.324 55.904C82.324 56.16 82.2493 56.4053 82.1 56.64C81.9507 56.8533 81.748 57.0027 81.492 57.088C80.5107 57.3867 79.3693 57.664 78.068 57.92C76.788 58.176 75.4333 58.4213 74.004 58.656C73.876 58.6773 73.812 58.752 73.812 58.88V63.424C73.812 63.552 73.876 63.616 74.004 63.616H82.548C82.8893 63.616 83.1773 63.7333 83.412 63.968C83.6467 64.1813 83.764 64.4587 83.764 64.8C83.764 65.1413 83.6467 65.4293 83.412 65.664C83.1773 65.8773 82.8893 65.984 82.548 65.984H74.004C73.876 65.984 73.812 66.048 73.812 66.176V70.592ZM104.5 74.944C104.223 74.944 103.977 74.848 103.764 74.656C103.551 74.4427 103.444 74.1867 103.444 73.888L103.028 56.8C103.007 56.3947 103.145 56.0427 103.444 55.744C103.743 55.4453 104.095 55.296 104.5 55.296C104.927 55.296 105.279 55.4453 105.556 55.744C105.855 56.0427 105.993 56.3947 105.972 56.8L105.556 73.888C105.556 74.1867 105.449 74.4427 105.236 74.656C105.044 74.848 104.799 74.944 104.5 74.944ZM104.5 80.896C103.945 80.896 103.465 80.6933 103.06 80.288C102.676 79.904 102.484 79.4453 102.484 78.912C102.484 78.3573 102.676 77.888 103.06 77.504C103.465 77.0987 103.945 76.896 104.5 76.896C105.055 76.896 105.524 77.0987 105.908 77.504C106.313 77.888 106.516 78.3573 106.516 78.912C106.516 79.4453 106.313 79.904 105.908 80.288C105.524 80.6933 105.055 80.896 104.5 80.896Z" fill="#595252"/>
</svg>
