<svg width="142" height="35" viewBox="0 0 142 35" fill="none" xmlns="http://www.w3.org/2000/svg">
<rect x="0.5" y="0.5" width="141" height="34" rx="17" fill="white" stroke="#CEB599"/>
<path d="M59.896 20C59.96 20.2027 59.992 20.4427 59.992 20.72C59.992 21.0933 59.912 21.4933 59.752 21.92C59.592 22.3467 59.3147 22.7467 58.92 23.12C58.536 23.4933 58.008 23.7973 57.336 24.032C56.664 24.2773 55.816 24.4 54.792 24.4C54.6747 24.4 54.552 24.4 54.424 24.4C54.3067 24.4 54.1787 24.3947 54.04 24.384C53.8907 24.3627 53.7627 24.2933 53.656 24.176C53.56 24.0693 53.512 23.9467 53.512 23.808C53.512 23.6267 53.576 23.4773 53.704 23.36C53.8427 23.2427 53.9973 23.1947 54.168 23.216C54.2853 23.2267 54.3973 23.232 54.504 23.232C54.6213 23.232 54.7333 23.232 54.84 23.232C55.736 23.232 56.4827 23.12 57.08 22.896C57.688 22.672 58.1413 22.3787 58.44 22.016C58.7387 21.6533 58.888 21.2693 58.888 20.864C58.888 20.544 58.7973 20.2293 58.616 19.92C58.4453 19.6107 58.168 19.36 57.784 19.168C57.4107 18.976 56.9787 18.88 56.488 18.88C55.912 18.88 55.2933 19.0453 54.632 19.376C53.9813 19.7067 53.3627 20.2773 52.776 21.088C52.6907 21.216 52.5787 21.312 52.44 21.376C52.312 21.44 52.1733 21.472 52.024 21.472C51.8 21.472 51.6133 21.392 51.464 21.232C51.3253 21.0613 51.2613 20.8747 51.272 20.672C51.3467 19.936 51.4533 19.1947 51.592 18.448C51.7307 17.6907 51.8907 16.9493 52.072 16.224C52.072 16.2133 52.072 16.208 52.072 16.208C52.0827 16.1973 52.088 16.1867 52.088 16.176C52.088 16.0907 52.04 16.0587 51.944 16.08C51.8053 16.0907 51.6667 16.096 51.528 16.096C51.4 16.096 51.272 16.096 51.144 16.096C50.9947 16.096 50.8453 16.096 50.696 16.096C50.5467 16.0853 50.3973 16.0747 50.248 16.064C50.0987 16.0533 49.9707 15.9947 49.864 15.888C49.768 15.7707 49.72 15.6427 49.72 15.504C49.72 15.3333 49.7787 15.1893 49.896 15.072C50.0133 14.9547 50.1573 14.896 50.328 14.896H51C51.192 14.896 51.4 14.896 51.624 14.896C51.848 14.8853 52.0827 14.8747 52.328 14.864C52.424 14.8533 52.4773 14.8107 52.488 14.736C52.6267 14.2773 52.7653 13.8347 52.904 13.408C53.0533 12.9707 53.2027 12.5387 53.352 12.112C53.4587 11.856 53.6453 11.728 53.912 11.728C54.0933 11.728 54.2373 11.792 54.344 11.92C54.4613 12.048 54.52 12.1867 54.52 12.336C54.52 12.368 54.52 12.4053 54.52 12.448C54.52 12.48 54.5093 12.512 54.488 12.544C54.3707 12.864 54.2533 13.1893 54.136 13.52C54.0293 13.8507 53.9173 14.1867 53.8 14.528C53.8 14.5387 53.7947 14.5493 53.784 14.56C53.784 14.56 53.784 14.5653 53.784 14.576C53.784 14.6507 53.832 14.6827 53.928 14.672C54.4293 14.5867 54.9413 14.48 55.464 14.352C55.9973 14.2133 56.536 14.0427 57.08 13.84C57.1653 13.808 57.24 13.792 57.304 13.792C57.5707 13.792 57.7573 13.9147 57.864 14.16C57.896 14.2347 57.912 14.3147 57.912 14.4C57.912 14.5067 57.88 14.6133 57.816 14.72C57.7627 14.816 57.6773 14.8853 57.56 14.928C56.952 15.1627 56.296 15.3653 55.592 15.536C54.888 15.7067 54.184 15.8347 53.48 15.92C53.3947 15.9413 53.3467 15.984 53.336 16.048C53.1653 16.6347 53.016 17.2213 52.888 17.808C52.76 18.384 52.6533 18.9547 52.568 19.52V19.536C52.568 19.5893 52.5893 19.616 52.632 19.616C52.696 19.616 52.776 19.568 52.872 19.472C53.4907 18.8747 54.1253 18.4427 54.776 18.176C55.4373 17.9093 56.0613 17.776 56.648 17.776C57.4267 17.776 58.1093 17.9787 58.696 18.384C59.2933 18.7787 59.6933 19.3173 59.896 20ZM72.392 15.6C72.4347 15.6747 72.4987 15.7013 72.584 15.68C73.0213 15.5627 73.4053 15.504 73.736 15.504C74.3013 15.504 74.7813 15.6267 75.176 15.872C75.5707 16.1173 75.8693 16.4373 76.072 16.832C76.2747 17.2267 76.376 17.648 76.376 18.096C76.376 18.672 76.1947 19.2267 75.832 19.76C75.4693 20.2827 74.8933 20.6507 74.104 20.864C73.9333 20.9067 73.752 20.9387 73.56 20.96C73.3787 20.9813 73.192 20.992 73 20.992C72.7227 20.992 72.4453 20.9707 72.168 20.928C71.8907 20.8853 71.6187 20.8213 71.352 20.736C71.096 20.6507 70.968 20.4693 70.968 20.192C70.968 20.0107 71.0267 19.872 71.144 19.776C71.2613 19.6693 71.3893 19.616 71.528 19.616C71.56 19.616 71.5867 19.6213 71.608 19.632C71.64 19.632 71.672 19.6373 71.704 19.648C71.928 19.7227 72.1573 19.7867 72.392 19.84C72.6267 19.8827 72.8613 19.904 73.096 19.904C73.4267 19.904 73.7467 19.8453 74.056 19.728C74.3653 19.6107 74.6533 19.4027 74.92 19.104C75.1867 18.7947 75.32 18.4587 75.32 18.096C75.32 17.6907 75.16 17.3333 74.84 17.024C74.52 16.7147 74.0933 16.56 73.56 16.56C73.4747 16.56 73.384 16.5653 73.288 16.576C73.192 16.5867 73.096 16.6027 73 16.624C72.904 16.6453 72.872 16.704 72.904 16.8C73 17.0667 73.08 17.3493 73.144 17.648C73.176 17.808 73.1387 17.952 73.032 18.08C72.9253 18.208 72.7867 18.272 72.616 18.272C72.4773 18.272 72.3547 18.2293 72.248 18.144C72.1413 18.0587 72.072 17.952 72.04 17.824C72.0187 17.728 71.992 17.632 71.96 17.536C71.9387 17.44 71.912 17.3493 71.88 17.264C71.848 17.168 71.784 17.1413 71.688 17.184C71.4213 17.3333 71.1333 17.504 70.824 17.696C70.5147 17.8773 70.1947 18.0693 69.864 18.272C69.7893 18.3147 69.768 18.3787 69.8 18.464L71.8 23.6C71.8213 23.6427 71.832 23.712 71.832 23.808C71.832 23.9467 71.784 24.0693 71.688 24.176C71.592 24.2933 71.4533 24.352 71.272 24.352C71.016 24.352 70.8453 24.2347 70.76 24L68.824 19.04C68.792 18.9547 68.7333 18.928 68.648 18.96C68.2853 19.152 67.912 19.3227 67.528 19.472C67.1547 19.6213 66.7813 19.7387 66.408 19.824C66.248 19.856 66.104 19.8187 65.976 19.712C65.848 19.6053 65.784 19.4667 65.784 19.296C65.784 19.1573 65.8267 19.0347 65.912 18.928C66.008 18.8213 66.1253 18.752 66.264 18.72C66.5947 18.6453 66.9253 18.544 67.256 18.416C67.5973 18.2773 67.9333 18.1227 68.264 17.952C68.3493 17.8987 68.376 17.8347 68.344 17.76L67.576 15.808C67.5547 15.7653 67.544 15.696 67.544 15.6C67.544 15.4507 67.592 15.3227 67.688 15.216C67.7947 15.1093 67.9333 15.056 68.104 15.056C68.36 15.056 68.5307 15.1733 68.616 15.408L69.304 17.2C69.3467 17.296 69.416 17.3173 69.512 17.264C69.8427 17.0827 70.1573 16.9013 70.456 16.72C70.7547 16.528 71.032 16.3573 71.288 16.208C71.3733 16.1547 71.3947 16.0907 71.352 16.016C71.2773 15.888 71.1973 15.7653 71.112 15.648C71.0267 15.52 70.9413 15.4027 70.856 15.296C70.7813 15.2107 70.744 15.104 70.744 14.976C70.744 14.7947 70.8133 14.6667 70.952 14.592C71.0587 14.5173 71.1813 14.48 71.32 14.48C71.5227 14.48 71.6773 14.5493 71.784 14.688C71.9013 14.8267 72.008 14.9707 72.104 15.12C72.2 15.2693 72.296 15.4293 72.392 15.6ZM90.072 19.488C90.2 19.488 90.3227 19.5253 90.44 19.6C90.5573 19.664 90.6373 19.76 90.68 19.888C90.7653 20.0907 90.8293 20.3093 90.872 20.544C90.9147 20.768 90.936 21.0027 90.936 21.248C90.936 21.6107 90.8667 21.9733 90.728 22.336C90.5893 22.688 90.3547 23.008 90.024 23.296C89.704 23.584 89.2667 23.8133 88.712 23.984C88.1573 24.1547 87.464 24.24 86.632 24.24C85.6187 24.24 84.8133 24.1387 84.216 23.936C83.6293 23.7333 83.2133 23.4667 82.968 23.136C82.7227 22.7947 82.6 22.4213 82.6 22.016C82.6 21.8453 82.616 21.6747 82.648 21.504C82.6907 21.3227 82.744 21.1467 82.808 20.976C82.8187 20.9547 82.824 20.9333 82.824 20.912C82.824 20.848 82.7867 20.8107 82.712 20.8C82.2213 20.7253 81.8587 20.5013 81.624 20.128C81.3893 19.7547 81.272 19.3387 81.272 18.88C81.272 18.4853 81.352 18.1067 81.512 17.744C81.672 17.3707 81.9013 17.0613 82.2 16.816C82.4987 16.5707 82.856 16.448 83.272 16.448C83.4853 16.448 83.704 16.48 83.928 16.544C83.9387 16.544 83.944 16.5493 83.944 16.56C83.9547 16.56 83.9653 16.56 83.976 16.56C84.0507 16.56 84.088 16.5173 84.088 16.432C84.1093 16.144 84.1413 15.824 84.184 15.472V15.44C84.184 15.344 84.1307 15.3067 84.024 15.328C83.5973 15.4133 83.16 15.488 82.712 15.552C82.2747 15.616 81.8533 15.6587 81.448 15.68C81.288 15.68 81.1493 15.6213 81.032 15.504C80.9147 15.3867 80.856 15.248 80.856 15.088C80.856 14.9173 80.9147 14.7787 81.032 14.672C81.1493 14.5547 81.288 14.4907 81.448 14.48C81.9173 14.4587 82.3813 14.4107 82.84 14.336C83.2987 14.2613 83.752 14.1813 84.2 14.096C84.2853 14.0747 84.328 14.0213 84.328 13.936C84.3387 13.8507 84.344 13.7707 84.344 13.696C84.344 13.6107 84.344 13.5307 84.344 13.456C84.344 13.2427 84.3333 13.04 84.312 12.848C84.2907 12.656 84.2533 12.48 84.2 12.32C84.1893 12.288 84.1787 12.256 84.168 12.224C84.168 12.192 84.168 12.1547 84.168 12.112C84.168 11.9947 84.1947 11.888 84.248 11.792C84.3013 11.696 84.3813 11.6267 84.488 11.584C84.5733 11.552 84.6587 11.536 84.744 11.536C84.8613 11.536 84.9733 11.568 85.08 11.632C85.1867 11.696 85.2613 11.7867 85.304 11.904C85.4107 12.1707 85.48 12.4533 85.512 12.752C85.544 13.0507 85.5493 13.3547 85.528 13.664C85.528 13.7707 85.5813 13.8133 85.688 13.792C85.976 13.7387 86.2587 13.696 86.536 13.664C86.824 13.6213 87.1067 13.5947 87.384 13.584C87.5333 13.5733 87.6613 13.6267 87.768 13.744C87.8747 13.8507 87.928 13.9787 87.928 14.128C87.928 14.2987 87.864 14.448 87.736 14.576C87.6187 14.6933 87.4693 14.7573 87.288 14.768C87.032 14.7787 86.7547 14.8107 86.456 14.864C86.168 14.9067 85.864 14.96 85.544 15.024C85.4587 15.0347 85.4107 15.088 85.4 15.184C85.304 15.8667 85.256 16.4907 85.256 17.056C85.256 17.792 85.192 18.4053 85.064 18.896C84.9467 19.3867 84.7707 19.7813 84.536 20.08C84.5253 20.1013 84.5093 20.1227 84.488 20.144C84.4773 20.1653 84.4613 20.192 84.44 20.224C84.0347 20.96 83.832 21.5307 83.832 21.936C83.832 22.3947 84.0773 22.688 84.568 22.816C85.0693 22.944 85.7787 23.0187 86.696 23.04C87.8053 23.0507 88.5893 22.896 89.048 22.576C89.5173 22.2453 89.752 21.8187 89.752 21.296C89.752 20.9867 89.6773 20.64 89.528 20.256C89.496 20.1707 89.48 20.096 89.48 20.032C89.48 19.8827 89.5333 19.7547 89.64 19.648C89.7467 19.5413 89.8907 19.488 90.072 19.488ZM93.112 16.848C93.208 16.976 93.256 17.1147 93.256 17.264C93.256 17.4773 93.1813 17.6587 93.032 17.808C92.9253 17.904 92.8027 17.952 92.664 17.952C92.4933 17.952 92.3493 17.8773 92.232 17.728C91.9013 17.2907 91.5547 16.944 91.192 16.688C90.84 16.4213 90.44 16.2187 89.992 16.08C89.864 16.0373 89.7573 15.968 89.672 15.872C89.5867 15.7653 89.544 15.6427 89.544 15.504C89.544 15.3227 89.608 15.1733 89.736 15.056C89.864 14.928 90.0133 14.864 90.184 14.864C90.2053 14.864 90.232 14.864 90.264 14.864C90.296 14.864 90.3227 14.8693 90.344 14.88C90.8987 15.0507 91.416 15.312 91.896 15.664C92.376 16.016 92.7813 16.4107 93.112 16.848ZM83.432 17.552C83.2187 17.5093 83.0373 17.552 82.888 17.68C82.7387 17.808 82.6213 17.9733 82.536 18.176C82.4613 18.3787 82.424 18.5867 82.424 18.8C82.424 19.024 82.472 19.2213 82.568 19.392C82.6747 19.552 82.8293 19.632 83.032 19.632C83.3093 19.632 83.528 19.4933 83.688 19.216C83.8587 18.928 83.944 18.6347 83.944 18.336C83.944 18.144 83.9013 17.9733 83.816 17.824C83.7413 17.6747 83.6133 17.584 83.432 17.552Z" fill="#CEB599"/>
</svg>
