<svg width="148" height="131" viewBox="0 0 148 131" fill="none" xmlns="http://www.w3.org/2000/svg">
<path d="M73.9999 0C114.496 0 147.322 29.0562 147.322 64.9003C147.322 80.0239 141.46 93.9324 131.659 104.962L137.815 131L110.458 121.197C99.7129 126.658 87.2786 129.801 73.9999 129.801C33.5087 129.801 0.677509 100.741 0.677509 64.9003C0.677509 29.0562 33.5087 0 73.9999 0Z" fill="#EED9DD"/>
<path d="M39.8236 56.256C40.645 56.256 41.237 56.3893 41.5996 56.656C41.9623 56.912 42.1436 57.2427 42.1436 57.648C42.1436 58.032 41.9996 58.448 41.7116 58.896C41.4343 59.344 41.0556 59.7707 40.5756 60.176C39.925 60.7307 39.301 61.2107 38.7036 61.616C38.117 62.0213 37.621 62.3467 37.2156 62.592C37.1303 62.6453 37.1196 62.7147 37.1836 62.8C37.4716 63.1307 37.7383 63.472 37.9836 63.824C38.2396 64.176 38.469 64.5227 38.6716 64.864C38.7356 64.9707 38.7676 65.088 38.7676 65.216C38.7676 65.3227 38.741 65.4293 38.6876 65.536C38.645 65.632 38.5756 65.712 38.4796 65.776C38.3516 65.8507 38.2396 65.888 38.1436 65.888C37.9303 65.888 37.7543 65.792 37.6156 65.6C37.2423 65.0133 36.901 64.5067 36.5916 64.08C36.293 63.6533 35.9996 63.2853 35.7116 62.976C35.4343 62.656 35.1356 62.3787 34.8156 62.144C34.4956 61.8987 34.1276 61.664 33.7116 61.44C33.4876 61.3227 33.3756 61.1413 33.3756 60.896C33.3756 60.8107 33.4023 60.7147 33.4556 60.608C33.605 60.3733 33.8076 60.256 34.0636 60.256C34.1596 60.256 34.261 60.2827 34.3676 60.336C34.9756 60.6667 35.5676 61.1147 36.1436 61.68C36.2076 61.7333 36.277 61.744 36.3516 61.712C36.8103 61.4667 37.3223 61.1573 37.8876 60.784C38.4636 60.4 39.0823 59.8933 39.7436 59.264C40.1063 58.9227 40.3676 58.64 40.5276 58.416C40.6983 58.1813 40.7836 57.9947 40.7836 57.856C40.7836 57.696 40.6823 57.584 40.4796 57.52C40.2876 57.456 40.0156 57.424 39.6636 57.424C38.597 57.424 37.6103 57.4667 36.7036 57.552C35.8076 57.6373 34.9596 57.728 34.1596 57.824C33.3703 57.9093 32.5916 57.952 31.8236 57.952C31.6103 57.952 31.3916 57.9467 31.1676 57.936C30.9543 57.9253 30.7356 57.9093 30.5116 57.888C30.3516 57.8667 30.2183 57.7973 30.1116 57.68C30.005 57.552 29.9516 57.408 29.9516 57.248C29.9516 57.056 30.021 56.9013 30.1596 56.784C30.309 56.656 30.4743 56.6027 30.6556 56.624C30.8903 56.6347 31.125 56.6507 31.3596 56.672C31.5943 56.6827 31.829 56.688 32.0636 56.688C32.8636 56.688 33.6743 56.6507 34.4956 56.576C35.3276 56.5013 36.181 56.432 37.0556 56.368C37.941 56.2933 38.8636 56.256 39.8236 56.256ZM57.1036 62.56C56.5383 63.296 55.9676 63.8453 55.3916 64.208C54.8263 64.5707 54.309 64.752 53.8396 64.752C53.285 64.752 52.8316 64.512 52.4796 64.032C52.1276 63.5413 51.957 62.8107 51.9676 61.84V55.776C51.9676 55.5947 52.0263 55.4453 52.1436 55.328C52.2716 55.2 52.421 55.136 52.5916 55.136C52.773 55.136 52.9223 55.2 53.0396 55.328C53.1676 55.4453 53.2316 55.5947 53.2316 55.776V61.696C53.2316 62.848 53.477 63.424 53.9676 63.424C54.2236 63.424 54.533 63.28 54.8956 62.992C55.269 62.704 55.685 62.2827 56.1436 61.728C56.7516 61.024 57.2743 60.208 57.7116 59.28C57.829 59.024 58.0316 58.896 58.3196 58.896C58.501 58.896 58.6503 58.96 58.7676 59.088C58.885 59.216 58.9436 59.36 58.9436 59.52C58.9436 59.616 58.9223 59.7013 58.8796 59.776C58.6236 60.2987 58.341 60.7947 58.0316 61.264C57.733 61.7227 57.4236 62.1547 57.1036 62.56ZM46.4796 65.952C46.3836 66.016 46.2823 66.048 46.1756 66.048C45.9623 66.048 45.797 65.952 45.6796 65.76C45.6263 65.6533 45.5996 65.552 45.5996 65.456C45.5996 65.232 45.685 65.0507 45.8556 64.912C46.5596 64.3573 47.1303 63.7227 47.5676 63.008C48.005 62.2933 48.325 61.44 48.5276 60.448C48.741 59.4453 48.8476 58.256 48.8476 56.88C48.8476 56.7093 48.9063 56.5653 49.0236 56.448C49.141 56.3307 49.2796 56.272 49.4396 56.272C49.621 56.272 49.7756 56.336 49.9036 56.464C50.0316 56.5813 50.0903 56.7307 50.0796 56.912C50.0263 58.192 49.9196 59.3067 49.7596 60.256C49.6103 61.1947 49.3916 62.0107 49.1036 62.704C48.8263 63.3973 48.469 64.0053 48.0316 64.528C47.605 65.0507 47.0876 65.5253 46.4796 65.952ZM72.4316 56.192C71.973 56.192 71.573 56.0267 71.2316 55.696C70.901 55.3653 70.7356 54.9653 70.7356 54.496C70.7356 54.0267 70.901 53.6267 71.2316 53.296C71.573 52.9653 71.973 52.8 72.4316 52.8C72.901 52.8 73.301 52.9653 73.6316 53.296C73.9623 53.6267 74.1276 54.0267 74.1276 54.496C74.1276 54.9653 73.9623 55.3653 73.6316 55.696C73.301 56.0267 72.901 56.192 72.4316 56.192ZM72.4316 53.44C72.1436 53.44 71.893 53.5467 71.6796 53.76C71.477 53.9627 71.3756 54.208 71.3756 54.496C71.3756 54.7947 71.477 55.0453 71.6796 55.248C71.893 55.4507 72.1436 55.552 72.4316 55.552C72.7303 55.552 72.981 55.4507 73.1836 55.248C73.3863 55.0453 73.4876 54.7947 73.4876 54.496C73.4876 54.208 73.3863 53.9627 73.1836 53.76C72.981 53.5467 72.7303 53.44 72.4316 53.44ZM73.1196 57.824C72.6183 57.856 71.9836 57.8827 71.2156 57.904C70.4476 57.9253 69.637 57.9413 68.7836 57.952C68.6876 57.952 68.6396 58 68.6396 58.096V65.216C68.6396 65.3867 68.5756 65.536 68.4476 65.664C68.3303 65.7813 68.181 65.84 67.9996 65.84C67.829 65.84 67.6796 65.7813 67.5516 65.664C67.4343 65.536 67.3756 65.3867 67.3756 65.216V58.096C67.3756 58 67.3276 57.952 67.2316 57.952H66.0476C65.4716 57.952 64.917 57.9467 64.3836 57.936C63.861 57.9253 63.381 57.9147 62.9436 57.904C62.7836 57.8933 62.645 57.8293 62.5276 57.712C62.421 57.5947 62.3676 57.4507 62.3676 57.28C62.3676 57.0987 62.4263 56.9493 62.5436 56.832C62.6716 56.7147 62.8263 56.6613 63.0076 56.672C63.605 56.6933 64.2663 56.7093 64.9916 56.72C65.717 56.7307 66.4636 56.736 67.2316 56.736C67.3276 56.736 67.3756 56.688 67.3756 56.592V54.624C67.3756 54.4533 67.4343 54.3093 67.5516 54.192C67.6796 54.064 67.829 54 67.9996 54C68.181 54 68.3303 54.064 68.4476 54.192C68.5756 54.3093 68.6396 54.4533 68.6396 54.624V56.576C68.6396 56.672 68.6876 56.72 68.7836 56.72C69.5836 56.7093 70.3463 56.6987 71.0716 56.688C71.8076 56.6667 72.453 56.6347 73.0076 56.592C73.189 56.5813 73.3436 56.6347 73.4716 56.752C73.6103 56.8693 73.6796 57.0187 73.6796 57.2C73.6796 57.36 73.6263 57.4987 73.5196 57.616C73.413 57.7333 73.2796 57.8027 73.1196 57.824ZM65.7916 59.952C65.973 60.1013 66.0636 60.288 66.0636 60.512C66.0636 60.6613 66.0156 60.7947 65.9196 60.912C65.6743 61.2213 65.365 61.5733 64.9916 61.968C64.6183 62.3627 64.2236 62.752 63.8076 63.136C63.4023 63.52 63.013 63.8453 62.6396 64.112C62.533 64.1867 62.421 64.224 62.3036 64.224C62.0903 64.224 61.9143 64.128 61.7756 63.936C61.7116 63.84 61.6796 63.728 61.6796 63.6C61.6796 63.3653 61.7703 63.184 61.9516 63.056C62.3036 62.7893 62.661 62.4907 63.0236 62.16C63.397 61.8187 63.749 61.4667 64.0796 61.104C64.4103 60.7413 64.693 60.4 64.9276 60.08C65.0663 59.9093 65.237 59.824 65.4396 59.824C65.5676 59.824 65.685 59.8667 65.7916 59.952ZM70.9596 60.064L73.8396 63.184C73.957 63.3227 74.0156 63.4613 74.0156 63.6C74.0156 63.7707 73.9463 63.9253 73.8076 64.064C73.669 64.1813 73.5303 64.24 73.3916 64.24C73.221 64.24 73.0663 64.1707 72.9276 64.032L70.0476 60.912C69.9303 60.7733 69.8716 60.6347 69.8716 60.496C69.8716 60.3253 69.941 60.1707 70.0796 60.032C70.197 59.9147 70.3356 59.856 70.4956 59.856C70.6663 59.856 70.821 59.9253 70.9596 60.064ZM88.4476 62.08C88.6076 62.2187 88.6876 62.3947 88.6876 62.608C88.6876 62.7573 88.6343 62.912 88.5276 63.072C88.4103 63.2213 88.261 63.296 88.0796 63.296C87.9196 63.296 87.7863 63.2427 87.6796 63.136C86.9543 62.4427 86.213 61.8453 85.4556 61.344C85.3703 61.2907 85.3063 61.3013 85.2636 61.376C84.581 62.272 83.8023 63.104 82.9276 63.872C82.053 64.64 81.1036 65.3173 80.0796 65.904C79.973 65.9573 79.8716 65.984 79.7756 65.984C79.541 65.984 79.3543 65.872 79.2156 65.648C79.1623 65.5413 79.1356 65.44 79.1356 65.344C79.1356 65.0987 79.2476 64.9067 79.4716 64.768C80.4103 64.2347 81.2636 63.632 82.0316 62.96C82.8103 62.2773 83.509 61.5413 84.1276 60.752C84.149 60.7307 84.1596 60.6987 84.1596 60.656C84.1596 60.6027 84.133 60.5707 84.0796 60.56C83.173 60.1013 82.1703 59.7387 81.0716 59.472C80.741 59.3867 80.5756 59.1733 80.5756 58.832C80.5756 58.64 80.6396 58.4853 80.7676 58.368C80.9063 58.24 81.061 58.176 81.2316 58.176C81.2956 58.176 81.3436 58.1813 81.3756 58.192C81.973 58.3307 82.5596 58.5173 83.1356 58.752C83.7223 58.976 84.2876 59.2267 84.8316 59.504C84.8743 59.5253 84.9063 59.536 84.9276 59.536C84.9703 59.536 85.0076 59.5093 85.0396 59.456C85.9143 58.048 86.5756 56.4853 87.0236 54.768C87.0556 54.6187 87.1303 54.5013 87.2476 54.416C87.3756 54.3307 87.509 54.288 87.6476 54.288C87.829 54.288 87.9783 54.352 88.0956 54.48C88.2236 54.608 88.2876 54.7573 88.2876 54.928C88.2876 54.992 88.2823 55.04 88.2716 55.072C88.069 55.936 87.7863 56.7947 87.4236 57.648C87.0716 58.4907 86.645 59.3067 86.1436 60.096C86.1223 60.1387 86.1116 60.1707 86.1116 60.192C86.1116 60.2347 86.1383 60.272 86.1916 60.304C86.6183 60.5707 87.0183 60.8587 87.3916 61.168C87.765 61.4667 88.117 61.7707 88.4476 62.08ZM97.2156 67.824C96.309 67.2587 95.5516 66.576 94.9436 65.776C94.3463 64.976 93.893 64.1067 93.5836 63.168C93.285 62.2187 93.1356 61.2587 93.1356 60.288C93.1356 59.3067 93.285 58.3467 93.5836 57.408C93.893 56.4693 94.3463 55.6 94.9436 54.8C95.5516 53.9893 96.309 53.3067 97.2156 52.752C97.269 52.72 97.317 52.704 97.3596 52.704C97.4343 52.704 97.4983 52.7253 97.5516 52.768C97.605 52.8107 97.6316 52.8587 97.6316 52.912C97.6316 52.9653 97.6103 53.0133 97.5676 53.056C96.501 54.0053 95.701 55.1147 95.1676 56.384C94.645 57.6533 94.3836 58.9547 94.3836 60.288C94.3836 61.6107 94.645 62.912 95.1676 64.192C95.701 65.4613 96.501 66.5707 97.5676 67.52C97.6103 67.5627 97.6316 67.6053 97.6316 67.648C97.6316 67.7013 97.605 67.7493 97.5516 67.792C97.4983 67.8453 97.4343 67.872 97.3596 67.872C97.317 67.872 97.269 67.856 97.2156 67.824ZM105.904 55.152H110.304C110.485 55.152 110.635 55.216 110.752 55.344C110.88 55.4613 110.944 55.6107 110.944 55.792V60.176C110.944 60.3147 110.891 60.4373 110.784 60.544C110.688 60.6507 110.565 60.704 110.416 60.704C110.277 60.704 110.155 60.6507 110.048 60.544C109.952 60.4373 109.904 60.3147 109.904 60.176V57.168C109.904 57.104 109.883 57.0667 109.84 57.056C109.808 57.0347 109.771 57.0453 109.728 57.088L106.512 60.32C106.459 60.3733 106.453 60.4427 106.496 60.528C106.88 61.0827 107.072 61.7067 107.072 62.4C107.072 63.0187 106.917 63.584 106.608 64.096C106.309 64.5973 105.904 65.0027 105.392 65.312C104.891 65.6107 104.331 65.76 103.712 65.76C103.093 65.76 102.528 65.6107 102.016 65.312C101.515 65.0027 101.109 64.5973 100.8 64.096C100.501 63.584 100.352 63.0187 100.352 62.4C100.352 61.7813 100.501 61.2213 100.8 60.72C101.109 60.208 101.515 59.8027 102.016 59.504C102.528 59.1947 103.093 59.04 103.712 59.04C104.053 59.04 104.379 59.088 104.688 59.184C105.008 59.28 105.301 59.4187 105.568 59.6C105.653 59.6427 105.723 59.6373 105.776 59.584L108.976 56.368C109.008 56.336 109.024 56.304 109.024 56.272C109.024 56.2187 108.981 56.192 108.896 56.192H105.904C105.765 56.192 105.643 56.1387 105.536 56.032C105.44 55.9253 105.392 55.8027 105.392 55.664C105.392 55.5147 105.44 55.392 105.536 55.296C105.643 55.2 105.765 55.152 105.904 55.152ZM103.712 64.72C104.139 64.72 104.528 64.6187 104.88 64.416C105.232 64.2027 105.509 63.92 105.712 63.568C105.925 63.216 106.032 62.8267 106.032 62.4C106.032 61.9733 105.925 61.584 105.712 61.232C105.509 60.88 105.232 60.6027 104.88 60.4C104.528 60.1867 104.139 60.08 103.712 60.08C103.285 60.08 102.896 60.1867 102.544 60.4C102.192 60.6027 101.909 60.88 101.696 61.232C101.493 61.584 101.392 61.9733 101.392 62.4C101.392 62.8267 101.493 63.216 101.696 63.568C101.909 63.92 102.192 64.2027 102.544 64.416C102.896 64.6187 103.285 64.72 103.712 64.72ZM114.784 67.824C114.741 67.856 114.688 67.872 114.624 67.872C114.453 67.872 114.368 67.8027 114.368 67.664C114.368 67.6213 114.389 67.5787 114.432 67.536C115.499 66.576 116.299 65.4613 116.832 64.192C117.365 62.9227 117.632 61.6213 117.632 60.288C117.632 58.9547 117.365 57.6533 116.832 56.384C116.299 55.1147 115.499 54.0053 114.432 53.056C114.389 53.0133 114.368 52.9707 114.368 52.928C114.368 52.8747 114.395 52.8267 114.448 52.784C114.501 52.7307 114.565 52.704 114.64 52.704C114.693 52.704 114.741 52.72 114.784 52.752C115.691 53.3067 116.443 53.9893 117.04 54.8C117.648 55.6 118.101 56.4693 118.4 57.408C118.709 58.3467 118.864 59.3067 118.864 60.288C118.864 61.2587 118.709 62.2187 118.4 63.168C118.101 64.1067 117.648 64.976 117.04 65.776C116.443 66.576 115.691 67.2587 114.784 67.824ZM64.672 78.504C64.6933 78.568 64.704 78.6213 64.704 78.664C64.704 78.856 64.6187 78.984 64.448 79.048C64.384 79.0693 64.3307 79.08 64.288 79.08C64.128 79.08 64.0107 79 63.936 78.84C63.6693 78.1573 63.2853 77.576 62.784 77.096C62.7093 77.0213 62.672 76.9307 62.672 76.824C62.672 76.7173 62.704 76.632 62.768 76.568C62.8427 76.4933 62.9387 76.456 63.056 76.456C63.1627 76.456 63.2533 76.488 63.328 76.552C63.648 76.8507 63.9093 77.1493 64.112 77.448C64.3147 77.7467 64.5013 78.0987 64.672 78.504ZM58.672 80.008C58.3733 80.1787 58.0587 80.328 57.728 80.456C57.3973 80.5733 57.0507 80.6747 56.688 80.76C56.624 80.7707 56.5813 80.8187 56.56 80.904C56.2613 82.3653 55.8453 83.7573 55.312 85.08C54.7893 86.4027 54.2133 87.5867 53.584 88.632C53.5307 88.728 53.456 88.8027 53.36 88.856C53.264 88.8987 53.168 88.92 53.072 88.92C52.944 88.92 52.832 88.888 52.736 88.824C52.5333 88.7067 52.432 88.5307 52.432 88.296C52.432 88.1787 52.464 88.072 52.528 87.976C53.8187 85.8107 54.7253 83.5493 55.248 81.192V81.16C55.248 81.0747 55.2 81.032 55.104 81.032C54.6987 81.0747 54.2827 81.1067 53.856 81.128C53.44 81.1493 53.0133 81.1547 52.576 81.144C52.416 81.1333 52.2773 81.0747 52.16 80.968C52.0533 80.8507 52 80.712 52 80.552C52 80.3707 52.0587 80.2213 52.176 80.104C52.304 79.9867 52.4533 79.9333 52.624 79.944C52.7733 79.9547 52.9173 79.96 53.056 79.96C53.1947 79.96 53.3333 79.96 53.472 79.96C53.8027 79.96 54.128 79.9493 54.448 79.928C54.768 79.9067 55.0773 79.8747 55.376 79.832C55.4613 79.8213 55.5093 79.7733 55.52 79.688C55.584 79.304 55.6373 78.9093 55.68 78.504C55.7227 78.0987 55.7547 77.6933 55.776 77.288C55.7867 77.128 55.8507 76.9893 55.968 76.872C56.0853 76.7547 56.224 76.696 56.384 76.696C56.5653 76.696 56.7147 76.7547 56.832 76.872C56.96 76.9893 57.0187 77.1387 57.008 77.32C56.9973 77.6507 56.976 77.9867 56.944 78.328C56.9227 78.6587 56.8853 78.9893 56.832 79.32V79.352C56.832 79.4693 56.88 79.5013 56.976 79.448C57.1573 79.3947 57.328 79.3307 57.488 79.256C57.6587 79.1707 57.824 79.0853 57.984 79C58.08 78.9467 58.192 78.92 58.32 78.92C58.544 78.92 58.72 79.0053 58.848 79.176C58.912 79.272 58.944 79.384 58.944 79.512C58.944 79.7253 58.8533 79.8907 58.672 80.008ZM62.608 79.432C62.3627 78.7707 61.9893 78.2213 61.488 77.784C61.4027 77.6987 61.36 77.5973 61.36 77.48C61.36 77.3733 61.392 77.2827 61.456 77.208C61.552 77.112 61.6587 77.064 61.776 77.064C61.872 77.064 61.9573 77.1013 62.032 77.176C62.5867 77.6667 63.0293 78.3067 63.36 79.096C63.3813 79.16 63.392 79.208 63.392 79.24C63.392 79.432 63.3013 79.5707 63.12 79.656C63.056 79.6773 63.008 79.688 62.976 79.688C62.7947 79.688 62.672 79.6027 62.608 79.432ZM58.256 81.272C58.256 81.1227 58.304 80.9893 58.4 80.872C58.496 80.7547 58.624 80.6907 58.784 80.68C58.976 80.6587 59.168 80.6427 59.36 80.632C59.5627 80.6213 59.7653 80.616 59.968 80.616C60.6187 80.616 61.248 80.6693 61.856 80.776C62.4747 80.8827 63.0293 81.0427 63.52 81.256C63.6373 81.2987 63.7227 81.3733 63.776 81.48C63.84 81.576 63.872 81.6827 63.872 81.8C63.872 82.0027 63.8133 82.1573 63.696 82.264C63.5787 82.36 63.4453 82.408 63.296 82.408C63.2107 82.408 63.1253 82.392 63.04 82.36C62.624 82.168 62.1547 82.0187 61.632 81.912C61.12 81.8053 60.5653 81.752 59.968 81.752C59.7973 81.752 59.616 81.7573 59.424 81.768C59.2427 81.7787 59.0613 81.7947 58.88 81.816C58.72 81.8373 58.576 81.7947 58.448 81.688C58.32 81.5813 58.256 81.4427 58.256 81.272ZM63.52 87.32C63.552 87.3093 63.6053 87.304 63.68 87.304C63.8293 87.304 63.9627 87.352 64.08 87.448C64.1973 87.544 64.256 87.6827 64.256 87.864C64.256 88.0027 64.2133 88.136 64.128 88.264C64.0427 88.392 63.9307 88.4773 63.792 88.52C63.3973 88.6267 63.008 88.7067 62.624 88.76C62.2507 88.8133 61.8773 88.84 61.504 88.84C60.7253 88.84 59.968 88.7227 59.232 88.488C58.496 88.2533 57.8027 87.9227 57.152 87.496C56.9813 87.3787 56.896 87.2187 56.896 87.016C56.896 86.8987 56.9387 86.7813 57.024 86.664C57.1413 86.504 57.3013 86.424 57.504 86.424C57.632 86.424 57.7493 86.456 57.856 86.52C58.3253 86.8187 58.8587 87.0747 59.456 87.288C60.064 87.4907 60.7413 87.592 61.488 87.592C61.7973 87.592 62.1227 87.5707 62.464 87.528C62.8053 87.4853 63.1573 87.416 63.52 87.32ZM78.608 87.192C78.7253 87.2667 78.8107 87.3627 78.864 87.48C78.928 87.5867 78.96 87.6987 78.96 87.816C78.96 87.9973 78.9013 88.1467 78.784 88.264C78.6773 88.3707 78.5493 88.424 78.4 88.424C78.3147 88.424 78.2293 88.3973 78.144 88.344C77.7813 88.1307 77.312 87.8853 76.736 87.608C76.1707 87.32 75.568 87.0747 74.928 86.872C74.9173 86.872 74.9067 86.872 74.896 86.872C74.896 86.8613 74.8907 86.856 74.88 86.856C74.8053 86.856 74.768 86.904 74.768 87C74.7573 87.4907 74.624 87.9173 74.368 88.28C74.1227 88.6427 73.7973 88.92 73.392 89.112C72.9867 89.304 72.5493 89.4 72.08 89.4C71.6213 89.4 71.1573 89.2987 70.688 89.096C70.2187 88.8933 69.7973 88.568 69.424 88.12C69.1787 87.8213 69.056 87.48 69.056 87.096C69.056 86.776 69.152 86.4667 69.344 86.168C69.5467 85.8587 69.8613 85.608 70.288 85.416C70.7253 85.2133 71.296 85.112 72 85.112C72.192 85.112 72.4 85.1227 72.624 85.144C72.848 85.1547 73.0827 85.1813 73.328 85.224H73.376C73.4613 85.224 73.504 85.1813 73.504 85.096C73.4933 84.872 73.472 84.536 73.44 84.088C73.4187 83.64 73.3867 83.1333 73.344 82.568C73.312 81.992 73.2693 81.3947 73.216 80.776C73.1733 80.1467 73.1253 79.544 73.072 78.968C73.0187 78.3813 72.9653 77.8587 72.912 77.4C72.8907 77.2187 72.9387 77.064 73.056 76.936C73.1733 76.7973 73.328 76.728 73.52 76.728C73.6693 76.728 73.7973 76.776 73.904 76.872C74.0213 76.968 74.0907 77.0907 74.112 77.24C74.1653 77.6027 74.2187 78.0453 74.272 78.568C74.3253 79.08 74.3733 79.6293 74.416 80.216C74.4373 80.312 74.4907 80.3547 74.576 80.344C75.152 80.2693 75.728 80.1733 76.304 80.056C76.88 79.9387 77.3653 79.8267 77.76 79.72C77.792 79.7093 77.8453 79.704 77.92 79.704C78.0693 79.704 78.2027 79.752 78.32 79.848C78.4373 79.944 78.496 80.0827 78.496 80.264C78.496 80.4133 78.4533 80.552 78.368 80.68C78.2827 80.808 78.1653 80.8933 78.016 80.936C77.5893 81.0533 77.072 81.1707 76.464 81.288C75.8667 81.4053 75.2693 81.4907 74.672 81.544C74.576 81.5653 74.5333 81.6187 74.544 81.704C74.5867 82.3973 74.624 83.0693 74.656 83.72C74.6987 84.36 74.7307 84.92 74.752 85.4C74.752 85.4853 74.7893 85.5333 74.864 85.544C75.216 85.6293 75.616 85.768 76.064 85.96C76.512 86.1413 76.96 86.344 77.408 86.568C77.8667 86.7813 78.2667 86.9893 78.608 87.192ZM70.688 87.592C70.9013 87.7627 71.1413 87.9013 71.408 88.008C71.6853 88.104 71.9573 88.152 72.224 88.152C72.5973 88.152 72.9173 88.0347 73.184 87.8C73.4507 87.5653 73.5733 87.176 73.552 86.632C73.552 86.5467 73.4827 86.488 73.344 86.456C72.8427 86.3387 72.3947 86.28 72 86.28C71.5093 86.28 71.104 86.3547 70.784 86.504C70.4747 86.6427 70.32 86.8187 70.32 87.032C70.32 87.224 70.4427 87.4107 70.688 87.592ZM90 86.472C89.8613 86.472 89.7387 86.424 89.632 86.328C89.5253 86.2213 89.472 86.0933 89.472 85.944L89.264 77.4C89.2533 77.1973 89.3227 77.0213 89.472 76.872C89.6213 76.7227 89.7973 76.648 90 76.648C90.2133 76.648 90.3893 76.7227 90.528 76.872C90.6773 77.0213 90.7467 77.1973 90.736 77.4L90.528 85.944C90.528 86.0933 90.4747 86.2213 90.368 86.328C90.272 86.424 90.1493 86.472 90 86.472ZM90 89.448C89.7227 89.448 89.4827 89.3467 89.28 89.144C89.088 88.952 88.992 88.7227 88.992 88.456C88.992 88.1787 89.088 87.944 89.28 87.752C89.4827 87.5493 89.7227 87.448 90 87.448C90.2773 87.448 90.512 87.5493 90.704 87.752C90.9067 87.944 91.008 88.1787 91.008 88.456C91.008 88.7227 90.9067 88.952 90.704 89.144C90.512 89.3467 90.2773 89.448 90 89.448Z" fill="#595252"/>
</svg>
