<svg width="160" height="141" viewBox="0 0 160 141" fill="none" xmlns="http://www.w3.org/2000/svg">
<path d="M80 0C36.2207 0 0.732544 31.2742 0.732544 69.8545C0.732544 86.1326 7.07036 101.103 17.6663 112.975L11.0107 141L40.586 130.449C52.2022 136.327 65.6447 139.709 80 139.709C123.774 139.709 159.268 108.431 159.268 69.8545C159.268 31.2742 123.774 0 80 0Z" fill="#EED9DD"/>
<path d="M30.444 67.84C30.6573 68 30.764 68.224 30.764 68.512C30.764 68.576 30.7587 68.64 30.748 68.704C30.7373 68.768 30.716 68.8267 30.684 68.88C30.5987 69.0613 30.46 69.152 30.268 69.152C30.1293 69.152 30.012 69.104 29.916 69.008C29.7133 68.8053 29.4893 68.6133 29.244 68.432C29.0093 68.2507 28.764 68.0747 28.508 67.904C28.4547 67.872 28.412 67.8827 28.38 67.936C28.0173 68.5013 27.6013 69.0133 27.132 69.472C26.6733 69.92 26.1613 70.3253 25.596 70.688C25.5213 70.7413 25.4253 70.768 25.308 70.768C25.084 70.768 24.9187 70.6667 24.812 70.464C24.7587 70.3573 24.732 70.2613 24.732 70.176C24.732 69.9627 24.8333 69.7867 25.036 69.648C25.5373 69.3173 25.9747 68.96 26.348 68.576C26.732 68.1813 27.068 67.7707 27.356 67.344C27.388 67.2907 27.372 67.248 27.308 67.216C26.7427 66.928 26.1773 66.6933 25.612 66.512C25.4413 66.4587 25.308 66.3627 25.212 66.224C25.116 66.0853 25.068 65.9307 25.068 65.76C25.068 65.632 25.0893 65.52 25.132 65.424C25.3773 64.9013 25.58 64.3253 25.74 63.696C25.9107 63.056 26.0493 62.3787 26.156 61.664C26.1773 61.6 26.1507 61.568 26.076 61.568H25.34C25.18 61.568 25.0413 61.5147 24.924 61.408C24.8173 61.2907 24.764 61.152 24.764 60.992C24.764 60.832 24.8173 60.6987 24.924 60.592C25.0413 60.4747 25.18 60.416 25.34 60.416H26.204C26.268 60.416 26.3053 60.384 26.316 60.32C26.348 59.9147 26.3747 59.4987 26.396 59.072C26.4173 58.6347 26.4333 58.192 26.444 57.744C26.444 57.584 26.5027 57.4453 26.62 57.328C26.7373 57.2107 26.876 57.152 27.036 57.152C27.196 57.152 27.3293 57.2107 27.436 57.328C27.5533 57.4453 27.612 57.584 27.612 57.744C27.6013 58.16 27.5853 58.5867 27.564 59.024C27.5533 59.4507 27.532 59.8827 27.5 60.32C27.4893 60.384 27.516 60.416 27.58 60.416H29.356C29.6227 60.416 29.8467 60.512 30.028 60.704C30.2093 60.8853 30.2893 61.1093 30.268 61.376C30.108 63.5093 29.6867 65.3067 29.004 66.768C28.9827 66.8213 28.9987 66.864 29.052 66.896C29.2973 67.0453 29.5373 67.2 29.772 67.36C30.0173 67.52 30.2413 67.68 30.444 67.84ZM34.764 63.456C34.764 63.52 34.796 63.552 34.86 63.552H37.692C37.852 63.552 37.9907 63.6107 38.108 63.728C38.2253 63.8347 38.284 63.9733 38.284 64.144C38.284 64.3147 38.2253 64.4587 38.108 64.576C37.9907 64.6827 37.852 64.736 37.692 64.736H34.86C34.796 64.736 34.764 64.768 34.764 64.832V69.104C34.764 69.7013 34.5667 70.1493 34.172 70.448C33.7773 70.7467 33.244 70.9013 32.572 70.912C32.4333 70.912 32.2893 70.9013 32.14 70.88C32.0013 70.8693 31.8573 70.8533 31.708 70.832C31.5587 70.8107 31.436 70.7413 31.34 70.624C31.2547 70.5173 31.212 70.3893 31.212 70.24C31.212 70.0587 31.276 69.9147 31.404 69.808C31.5427 69.6907 31.6973 69.6427 31.868 69.664C32.156 69.696 32.4013 69.712 32.604 69.712C32.956 69.712 33.2013 69.664 33.34 69.568C33.4893 69.4613 33.564 69.3067 33.564 69.104V64.832C33.564 64.768 33.532 64.736 33.468 64.736H30.764C30.5933 64.736 30.4493 64.6827 30.332 64.576C30.2147 64.4587 30.156 64.3147 30.156 64.144C30.156 63.9733 30.2147 63.8347 30.332 63.728C30.4493 63.6107 30.5933 63.552 30.764 63.552H33.468C33.532 63.552 33.564 63.52 33.564 63.456V61.76C33.564 61.6 33.612 61.4613 33.708 61.344C33.8147 61.2267 33.9427 61.1627 34.092 61.152C34.124 61.152 34.1613 61.1413 34.204 61.12C34.5667 60.864 34.892 60.5707 35.18 60.24C35.468 59.8987 35.724 59.5413 35.948 59.168C35.9907 59.0933 35.9693 59.056 35.884 59.056H31.148C30.988 59.056 30.8493 58.9973 30.732 58.88C30.6147 58.7627 30.556 58.624 30.556 58.464C30.556 58.304 30.6147 58.1653 30.732 58.048C30.8493 57.9307 30.988 57.872 31.148 57.872H36.764C36.9667 57.872 37.1373 57.9413 37.276 58.08C37.4147 58.208 37.484 58.3627 37.484 58.544C37.484 58.6187 37.468 58.6987 37.436 58.784C37.148 59.5093 36.764 60.1653 36.284 60.752C35.804 61.3387 35.3187 61.7973 34.828 62.128C34.7853 62.16 34.764 62.2027 34.764 62.256V63.456ZM26.364 65.472C26.3427 65.5467 26.364 65.5893 26.428 65.6C26.652 65.6747 26.8867 65.7653 27.132 65.872C27.3773 65.9787 27.628 66.096 27.884 66.224C27.9373 66.256 27.98 66.24 28.012 66.176C28.3533 65.4507 28.5987 64.704 28.748 63.936C28.8973 63.1573 29.004 62.4 29.068 61.664C29.0893 61.6 29.0627 61.568 28.988 61.568H27.452C27.3987 61.568 27.3613 61.6 27.34 61.664C27.244 62.3573 27.116 63.0293 26.956 63.68C26.8067 64.32 26.6093 64.9173 26.364 65.472ZM52.236 61.68C52.2893 61.7867 52.316 61.8933 52.316 62C52.316 62.2347 52.22 62.4107 52.028 62.528C51.3667 62.9227 50.6467 63.2373 49.868 63.472C49.772 63.504 49.7453 63.568 49.788 63.664C50.0227 64.2507 50.236 64.8213 50.428 65.376C50.62 65.92 50.7747 66.4267 50.892 66.896C50.9027 66.928 50.908 66.976 50.908 67.04C50.908 67.2533 50.8067 67.4133 50.604 67.52C50.4973 67.584 50.3747 67.616 50.236 67.616C50.0867 67.616 49.948 67.584 49.82 67.52C49.2333 67.2213 48.6627 67.0133 48.108 66.896C47.564 66.768 47.0467 66.704 46.556 66.704C46.044 66.704 45.58 66.7627 45.164 66.88C44.716 66.9973 44.3587 67.1627 44.092 67.376C43.836 67.5787 43.708 67.792 43.708 68.016C43.708 68.2933 43.9587 68.544 44.46 68.768C44.9613 68.992 45.7933 69.1093 46.956 69.12C47.372 69.12 47.7933 69.104 48.22 69.072C48.6467 69.0293 49.1587 68.944 49.756 68.816C49.9373 68.7733 50.1027 68.8107 50.252 68.928C50.4013 69.0453 50.476 69.2053 50.476 69.408C50.476 69.536 50.4333 69.6533 50.348 69.76C50.2627 69.8667 50.156 69.9307 50.028 69.952C49.4093 70.0693 48.828 70.1547 48.284 70.208C47.74 70.272 47.2387 70.304 46.78 70.304C45.788 70.304 44.9773 70.1973 44.348 69.984C43.7293 69.7707 43.2707 69.4933 42.972 69.152C42.6733 68.8107 42.524 68.4533 42.524 68.08C42.524 67.6853 42.6733 67.3067 42.972 66.944C43.2813 66.5707 43.7133 66.2667 44.268 66.032C44.8333 65.7867 45.5053 65.664 46.284 65.664C46.732 65.664 47.2067 65.712 47.708 65.808C48.22 65.8933 48.7533 66.0427 49.308 66.256C49.3293 66.2667 49.356 66.272 49.388 66.272C49.484 66.272 49.5107 66.224 49.468 66.128C49.3507 65.7867 49.2227 65.4347 49.084 65.072C48.9453 64.6987 48.7907 64.3253 48.62 63.952C48.588 63.8667 48.5293 63.8347 48.444 63.856C47.676 64.0267 46.8867 64.1547 46.076 64.24C45.276 64.3147 44.4973 64.352 43.74 64.352C43.6333 64.352 43.5267 64.352 43.42 64.352C43.3133 64.3413 43.2067 64.336 43.1 64.336C42.9507 64.3253 42.8173 64.2613 42.7 64.144C42.5933 64.0267 42.54 63.8933 42.54 63.744C42.54 63.5733 42.5987 63.4293 42.716 63.312C42.8333 63.1947 42.9773 63.136 43.148 63.136C43.2653 63.136 43.3827 63.1413 43.5 63.152C43.628 63.152 43.7507 63.152 43.868 63.152C45.3613 63.152 46.716 63.024 47.932 62.768C48.028 62.7467 48.06 62.688 48.028 62.592C47.9213 62.3467 47.8093 62.112 47.692 61.888C47.5747 61.664 47.4573 61.4453 47.34 61.232C47.2973 61.1573 47.2333 61.1253 47.148 61.136C46.5613 61.2427 45.948 61.3227 45.308 61.376C44.6787 61.4187 44.0493 61.4347 43.42 61.424C43.26 61.424 43.1213 61.3653 43.004 61.248C42.8973 61.1307 42.844 60.9973 42.844 60.848C42.844 60.6773 42.9027 60.5333 43.02 60.416C43.1373 60.2987 43.2813 60.24 43.452 60.24C43.548 60.24 43.644 60.2453 43.74 60.256C43.836 60.256 43.9267 60.256 44.012 60.256C44.46 60.256 44.892 60.24 45.308 60.208C45.724 60.176 46.1187 60.1333 46.492 60.08C46.5987 60.0587 46.6253 59.9947 46.572 59.888C46.4547 59.7067 46.3373 59.536 46.22 59.376C46.1133 59.216 46.0013 59.0667 45.884 58.928C45.788 58.8107 45.74 58.6773 45.74 58.528C45.74 58.336 45.804 58.1867 45.932 58.08C46.0387 57.9733 46.172 57.92 46.332 57.92C46.5027 57.92 46.6413 57.984 46.748 58.112C46.9293 58.3253 47.1053 58.5653 47.276 58.832C47.4573 59.088 47.6387 59.3653 47.82 59.664C47.8627 59.7387 47.9267 59.7653 48.012 59.744C48.2893 59.6587 48.5613 59.5627 48.828 59.456C49.0947 59.3387 49.3613 59.2107 49.628 59.072C49.7133 59.0293 49.804 59.008 49.9 59.008C50.1347 59.008 50.3 59.1093 50.396 59.312C50.4493 59.4187 50.476 59.52 50.476 59.616C50.476 59.8507 50.3693 60.0373 50.156 60.176C49.708 60.4107 49.196 60.6187 48.62 60.8C48.5347 60.832 48.508 60.896 48.54 60.992C48.6573 61.1947 48.764 61.408 48.86 61.632C48.9667 61.856 49.0733 62.08 49.18 62.304C49.2333 62.3893 49.2973 62.416 49.372 62.384C50.1293 62.1387 50.8173 61.8347 51.436 61.472C51.5427 61.4187 51.644 61.392 51.74 61.392C51.964 61.392 52.1293 61.488 52.236 61.68ZM64.428 60.464C64.0653 60.6453 63.676 60.8107 63.26 60.96C62.8547 61.0987 62.4333 61.2213 61.996 61.328C61.9107 61.36 61.8627 61.408 61.852 61.472C61.4787 62.5707 61.0307 63.7227 60.508 64.928C59.996 66.1227 59.3773 67.2747 58.652 68.384C58.524 68.5653 58.3533 68.656 58.14 68.656C58.012 68.656 57.9 68.624 57.804 68.56C57.612 68.4213 57.516 68.2453 57.516 68.032C57.516 67.936 57.5533 67.824 57.628 67.696C58.2787 66.6827 58.8387 65.68 59.308 64.688C59.7773 63.6853 60.1773 62.7093 60.508 61.76C60.508 61.7493 60.508 61.7387 60.508 61.728C60.5187 61.7173 60.524 61.7067 60.524 61.696C60.524 61.632 60.476 61.6 60.38 61.6C60.1453 61.6213 59.9107 61.6427 59.676 61.664C59.4413 61.6747 59.2067 61.68 58.972 61.68C58.8973 61.68 58.8173 61.68 58.732 61.68C58.6467 61.68 58.5613 61.6747 58.476 61.664C58.316 61.6533 58.1827 61.5893 58.076 61.472C57.98 61.3547 57.932 61.2213 57.932 61.072C57.932 60.9013 57.9907 60.7573 58.108 60.64C58.236 60.5227 58.3853 60.464 58.556 60.464C58.9187 60.464 59.292 60.4533 59.676 60.432C60.0707 60.4107 60.4707 60.3733 60.876 60.32C60.9613 60.2987 61.0093 60.256 61.02 60.192C61.1373 59.808 61.244 59.4347 61.34 59.072C61.4467 58.6987 61.5427 58.336 61.628 57.984C61.7133 57.6853 61.9107 57.536 62.22 57.536C62.4013 57.536 62.5453 57.6 62.652 57.728C62.7587 57.856 62.812 58 62.812 58.16C62.812 58.224 62.8067 58.272 62.796 58.304C62.732 58.5387 62.6627 58.784 62.588 59.04C62.524 59.2853 62.4493 59.536 62.364 59.792C62.364 59.8027 62.3587 59.8133 62.348 59.824C62.348 59.8347 62.348 59.8453 62.348 59.856C62.348 59.9413 62.4013 59.968 62.508 59.936C63.0307 59.7867 63.5053 59.6 63.932 59.376C64.0173 59.3333 64.108 59.312 64.204 59.312C64.4387 59.312 64.604 59.4187 64.7 59.632C64.7427 59.7173 64.764 59.808 64.764 59.904C64.764 60.16 64.652 60.3467 64.428 60.464ZM69.1 68.24C69.26 68.368 69.34 68.5227 69.34 68.704C69.34 68.832 69.2973 68.9547 69.212 69.072C69.0947 69.2213 68.94 69.296 68.748 69.296C68.62 69.296 68.5027 69.2587 68.396 69.184C68.1613 69.0133 67.884 68.8213 67.564 68.608C67.244 68.3947 66.8973 68.1973 66.524 68.016C66.5027 68.0053 66.4813 68 66.46 68C66.3747 68 66.3427 68.0427 66.364 68.128C66.364 68.32 66.332 68.5387 66.268 68.784C66.2147 69.0293 66.108 69.2693 65.948 69.504C65.788 69.728 65.564 69.9093 65.276 70.048C64.988 70.1973 64.6147 70.272 64.156 70.272C63.612 70.272 63.1373 70.1707 62.732 69.968C62.3373 69.7547 62.028 69.4827 61.804 69.152C61.5907 68.8213 61.484 68.4853 61.484 68.144C61.484 67.6853 61.692 67.28 62.108 66.928C62.524 66.5653 63.1907 66.384 64.108 66.384C64.2147 66.384 64.3213 66.3893 64.428 66.4C64.5453 66.4 64.6573 66.4053 64.764 66.416H64.796C64.8813 66.416 64.924 66.3627 64.924 66.256C64.9027 66.064 64.8867 65.8827 64.876 65.712C64.8653 65.5307 64.86 65.3653 64.86 65.216C64.86 64.5227 64.9453 63.9733 65.116 63.568C65.2867 63.1627 65.5053 62.8587 65.772 62.656C66.0387 62.4427 66.3213 62.2933 66.62 62.208C66.6733 62.1867 66.7 62.1653 66.7 62.144C66.7 62.1227 66.668 62.1067 66.604 62.096C66.22 62.0107 65.8253 61.984 65.42 62.016C65.2493 62.0267 65.1 61.9787 64.972 61.872C64.8547 61.7653 64.796 61.6267 64.796 61.456C64.796 61.3067 64.8493 61.1733 64.956 61.056C65.0627 60.9387 65.196 60.8747 65.356 60.864C66.124 60.832 66.7427 60.8853 67.212 61.024C67.692 61.1627 68.044 61.344 68.268 61.568C68.492 61.7813 68.604 61.9947 68.604 62.208C68.604 62.3893 68.524 62.5547 68.364 62.704C68.2147 62.8427 67.996 62.928 67.708 62.96C67.0787 63.024 66.6307 63.184 66.364 63.44C66.108 63.696 65.98 64.1227 65.98 64.72C65.98 65.168 66.044 65.76 66.172 66.496C66.1827 66.5707 66.2413 66.6293 66.348 66.672C66.924 66.8747 67.4467 67.1253 67.916 67.424C68.396 67.7227 68.7907 67.9947 69.1 68.24ZM62.956 68.72C63.084 68.8587 63.2547 68.976 63.468 69.072C63.692 69.1573 63.916 69.2 64.14 69.2C64.4173 69.2 64.6573 69.1147 64.86 68.944C65.0733 68.7733 65.18 68.4747 65.18 68.048C65.18 67.9947 65.1747 67.936 65.164 67.872C65.164 67.808 65.1587 67.744 65.148 67.68C65.1373 67.5947 65.0893 67.536 65.004 67.504C64.8653 67.4613 64.7213 67.4347 64.572 67.424C64.4333 67.4027 64.2947 67.392 64.156 67.392C63.7613 67.392 63.4147 67.4667 63.116 67.616C62.828 67.7547 62.684 67.9413 62.684 68.176C62.684 68.3573 62.7747 68.5387 62.956 68.72ZM85.996 60.944C86.1347 60.9973 86.2413 61.0827 86.316 61.2C86.3907 61.3173 86.428 61.44 86.428 61.568C86.428 61.7387 86.3747 61.8773 86.268 61.984C86.1613 62.0907 86.0387 62.144 85.9 62.144C85.836 62.144 85.772 62.128 85.708 62.096C85.1747 61.872 84.6147 61.6053 84.028 61.296C83.4413 60.9867 82.8653 60.6613 82.3 60.32C81.7347 59.968 81.212 59.6267 80.732 59.296C80.252 58.9547 79.852 58.656 79.532 58.4C79.4893 58.368 79.4467 58.3733 79.404 58.416C79.116 58.672 78.7373 58.9707 78.268 59.312C77.7987 59.6427 77.2813 59.9893 76.716 60.352C76.1507 60.704 75.5693 61.04 74.972 61.36C74.3853 61.6693 73.8307 61.9253 73.308 62.128C73.276 62.1387 73.244 62.1493 73.212 62.16C73.18 62.16 73.148 62.16 73.116 62.16C72.9773 62.16 72.8493 62.1067 72.732 62C72.6147 61.8827 72.556 61.7387 72.556 61.568C72.556 61.2907 72.7 61.088 72.988 60.96C73.6493 60.704 74.3267 60.3787 75.02 59.984C75.7133 59.5893 76.38 59.1733 77.02 58.736C77.6707 58.288 78.2413 57.856 78.732 57.44C78.8387 57.3547 78.956 57.2907 79.084 57.248C79.212 57.2053 79.34 57.184 79.468 57.184C79.7347 57.184 79.9693 57.264 80.172 57.424C80.6947 57.84 81.2973 58.272 81.98 58.72C82.6627 59.1573 83.356 59.5733 84.06 59.968C84.7747 60.3627 85.42 60.688 85.996 60.944ZM85.532 69.712C85.66 69.7333 85.7613 69.792 85.836 69.888C85.9213 69.984 85.964 70.0907 85.964 70.208C85.964 70.4 85.8893 70.5547 85.74 70.672C85.5907 70.8 85.4253 70.8427 85.244 70.8C83.964 70.5867 82.8813 70.2613 81.996 69.824C81.1107 69.3867 80.3533 68.8747 79.724 68.288C79.0947 67.6907 78.5293 67.0507 78.028 66.368C78.028 66.3573 78.0227 66.352 78.012 66.352H76.764C76.7 66.352 76.668 66.384 76.668 66.448L76.684 69.248C76.684 69.3227 76.7213 69.3547 76.796 69.344C77.2013 69.2587 77.5853 69.168 77.948 69.072C78.3213 68.976 78.6627 68.88 78.972 68.784C79.004 68.7627 79.036 68.752 79.068 68.752C79.1 68.752 79.132 68.752 79.164 68.752C79.324 68.752 79.4627 68.8053 79.58 68.912C79.708 69.0187 79.772 69.1627 79.772 69.344C79.772 69.6107 79.644 69.7867 79.388 69.872C78.9507 70.0107 78.4813 70.144 77.98 70.272C77.4893 70.4 76.9773 70.5067 76.444 70.592C76.1987 70.6347 75.98 70.5707 75.788 70.4C75.596 70.2293 75.5 70.016 75.5 69.76V62.192C75.5 61.9253 75.5907 61.7013 75.772 61.52C75.964 61.328 76.1933 61.232 76.46 61.232H78.812C78.876 61.232 78.908 61.2 78.908 61.136V60.112C78.908 59.9413 78.9667 59.8027 79.084 59.696C79.2013 59.5787 79.34 59.52 79.5 59.52C79.66 59.52 79.7987 59.5787 79.916 59.696C80.0333 59.8027 80.092 59.9413 80.092 60.112V61.136C80.092 61.2 80.124 61.232 80.188 61.232H82.54C82.8067 61.232 83.0307 61.328 83.212 61.52C83.404 61.7013 83.5 61.9253 83.5 62.192V65.392C83.5 65.6587 83.404 65.888 83.212 66.08C83.0307 66.2613 82.8067 66.352 82.54 66.352H79.596C79.5107 66.352 79.4947 66.3893 79.548 66.464C79.7613 66.7413 79.996 67.0133 80.252 67.28C80.508 67.536 80.796 67.7813 81.116 68.016C81.1693 68.048 81.212 68.0533 81.244 68.032C81.7773 67.8187 82.2573 67.5413 82.684 67.2C83.1107 66.8587 83.4573 66.5333 83.724 66.224C83.8413 66.096 83.9853 66.032 84.156 66.032C84.2947 66.032 84.4067 66.0693 84.492 66.144C84.6413 66.272 84.716 66.4373 84.716 66.64C84.716 66.768 84.6733 66.8907 84.588 67.008C84.3533 67.3067 84.0493 67.6107 83.676 67.92C83.3027 68.2187 82.924 68.4853 82.54 68.72C82.4547 68.752 82.444 68.7893 82.508 68.832C82.9133 69.0133 83.3667 69.1787 83.868 69.328C84.3693 69.4773 84.924 69.6053 85.532 69.712ZM82.22 63.232C82.284 63.232 82.316 63.2 82.316 63.136V62.464C82.316 62.4 82.284 62.368 82.22 62.368H76.78C76.716 62.368 76.684 62.4 76.684 62.464V63.136C76.684 63.2 76.716 63.232 76.78 63.232H82.22ZM82.316 64.464C82.316 64.4 82.284 64.368 82.22 64.368H76.764C76.7 64.368 76.668 64.4 76.668 64.464V65.136C76.668 65.2 76.7 65.232 76.764 65.232H82.22C82.284 65.232 82.316 65.2 82.316 65.136V64.464ZM99.82 61.376C99.756 61.3973 99.708 61.408 99.676 61.408C99.5053 61.408 99.388 61.3227 99.324 61.152C99.0573 60.4907 98.6733 59.9147 98.172 59.424C98.0867 59.3387 98.044 59.248 98.044 59.152C98.044 59.056 98.0813 58.9707 98.156 58.896C98.2413 58.8107 98.332 58.768 98.428 58.768C98.5133 58.768 98.604 58.8053 98.7 58.88C99.02 59.168 99.2813 59.4667 99.484 59.776C99.6867 60.0747 99.8733 60.4267 100.044 60.832C100.065 60.896 100.076 60.9493 100.076 60.992C100.076 61.1627 99.9907 61.2907 99.82 61.376ZM98.508 61.984C98.444 62.0053 98.396 62.016 98.364 62.016C98.172 62.016 98.044 61.9307 97.98 61.76C97.7453 61.0987 97.3773 60.544 96.876 60.096C96.78 60.0107 96.732 59.904 96.732 59.776C96.732 59.68 96.764 59.6 96.828 59.536C96.924 59.44 97.0307 59.392 97.148 59.392C97.2547 59.392 97.3453 59.4293 97.42 59.504C97.964 60.0053 98.4013 60.6453 98.732 61.424C98.7533 61.488 98.764 61.5413 98.764 61.584C98.764 61.7653 98.6787 61.8987 98.508 61.984ZM101.436 67.376C100.465 67.0987 99.356 66.5867 98.108 65.84C96.86 65.0933 95.5853 64.1547 94.284 63.024C93.9 62.6827 93.612 62.512 93.42 62.512C93.292 62.512 93.1693 62.56 93.052 62.656C92.9347 62.7413 92.7907 62.864 92.62 63.024C92.1827 63.44 91.7613 63.8347 91.356 64.208C90.9613 64.5813 90.4813 64.96 89.916 65.344C89.8093 65.4187 89.692 65.456 89.564 65.456C89.3293 65.456 89.148 65.3493 89.02 65.136C88.9667 65.04 88.94 64.928 88.94 64.8C88.94 64.5333 89.0467 64.336 89.26 64.208C89.7933 63.856 90.2573 63.504 90.652 63.152C91.0573 62.8 91.4147 62.48 91.724 62.192C92.044 61.904 92.3427 61.6747 92.62 61.504C92.8973 61.3333 93.18 61.248 93.468 61.248C93.6813 61.248 93.9053 61.3013 94.14 61.408C94.3747 61.5147 94.6307 61.6907 94.908 61.936C95.5907 62.4907 96.2733 63.04 96.956 63.584C97.6493 64.1173 98.38 64.6027 99.148 65.04C99.9267 65.4773 100.785 65.8347 101.724 66.112C101.873 66.1547 101.991 66.2347 102.076 66.352C102.172 66.4693 102.22 66.6027 102.22 66.752C102.22 66.9333 102.156 67.088 102.028 67.216C101.911 67.3333 101.767 67.392 101.596 67.392C101.532 67.392 101.479 67.3867 101.436 67.376ZM112.524 59.552C112.492 59.6267 112.519 59.664 112.604 59.664H116.972C117.239 59.664 117.463 59.76 117.644 59.952C117.836 60.1333 117.932 60.3573 117.932 60.624C117.932 61.072 117.927 61.584 117.916 62.16C117.905 62.736 117.889 63.3333 117.868 63.952C117.857 64.5707 117.841 65.168 117.82 65.744C117.799 66.3093 117.777 66.8107 117.756 67.248C117.692 68.4427 117.431 69.3547 116.972 69.984C116.524 70.6027 115.761 70.912 114.684 70.912C114.599 70.912 114.508 70.9067 114.412 70.896C114.316 70.896 114.22 70.8907 114.124 70.88C113.975 70.8587 113.847 70.7893 113.74 70.672C113.644 70.5547 113.596 70.4213 113.596 70.272C113.596 70.08 113.671 69.9253 113.82 69.808C113.969 69.6907 114.135 69.6427 114.316 69.664C114.423 69.6747 114.519 69.6853 114.604 69.696C114.7 69.696 114.785 69.696 114.86 69.696C115.255 69.696 115.564 69.616 115.788 69.456C116.023 69.296 116.199 69.0347 116.316 68.672C116.433 68.2987 116.513 67.792 116.556 67.152C116.588 66.7573 116.615 66.2987 116.636 65.776C116.657 65.2427 116.673 64.688 116.684 64.112C116.695 63.536 116.705 62.9707 116.716 62.416C116.727 61.8613 116.732 61.36 116.732 60.912C116.732 60.848 116.7 60.816 116.636 60.816H116.492C116.449 60.816 116.417 60.8427 116.396 60.896C116.001 62.8587 115.297 64.6293 114.284 66.208C113.281 67.776 112.055 69.0347 110.604 69.984C110.561 70.016 110.513 70.0373 110.46 70.048C110.407 70.0587 110.353 70.064 110.3 70.064C110.065 70.064 109.895 69.9627 109.788 69.76C109.735 69.6533 109.708 69.5573 109.708 69.472C109.708 69.2267 109.815 69.0347 110.028 68.896C111.404 67.9893 112.508 66.8587 113.34 65.504C114.183 64.1387 114.791 62.6133 115.164 60.928C115.164 60.8533 115.132 60.816 115.068 60.816H114.38C114.337 60.816 114.305 60.8427 114.284 60.896C114.113 61.5893 113.873 62.2347 113.564 62.832C113.255 63.4187 112.913 63.952 112.54 64.432C112.177 64.9013 111.815 65.3173 111.452 65.68C111.1 66.032 110.78 66.3147 110.492 66.528C110.407 66.6027 110.305 66.64 110.188 66.64C109.975 66.64 109.815 66.5333 109.708 66.32C109.655 66.2133 109.628 66.112 109.628 66.016C109.628 65.792 109.735 65.5893 109.948 65.408C110.716 64.8213 111.356 64.1387 111.868 63.36C112.38 62.5813 112.769 61.7707 113.036 60.928C113.057 60.8533 113.031 60.816 112.956 60.816H111.98C111.916 60.816 111.879 60.8373 111.868 60.88C111.399 61.6587 110.903 62.3093 110.38 62.832C110.284 62.928 110.167 62.976 110.028 62.976C109.847 62.976 109.697 62.9013 109.58 62.752C109.484 62.624 109.436 62.4907 109.436 62.352C109.436 62.1707 109.505 62.0107 109.644 61.872C110.145 61.3387 110.588 60.7147 110.972 60C111.367 59.2747 111.671 58.4693 111.884 57.584C111.927 57.4347 112.007 57.312 112.124 57.216C112.252 57.12 112.391 57.072 112.54 57.072C112.721 57.072 112.865 57.1413 112.972 57.28C113.079 57.4187 113.116 57.5733 113.084 57.744C112.956 58.352 112.769 58.9547 112.524 59.552ZM109.788 64.928C109.788 65.0667 109.745 65.2 109.66 65.328C109.585 65.4453 109.479 65.5307 109.34 65.584C109.201 65.6267 109.057 65.6747 108.908 65.728C108.759 65.7813 108.609 65.8347 108.46 65.888C108.407 65.9093 108.38 65.9413 108.38 65.984V70.336C108.38 70.496 108.321 70.6293 108.204 70.736C108.097 70.8533 107.964 70.912 107.804 70.912C107.644 70.912 107.505 70.8533 107.388 70.736C107.281 70.6293 107.228 70.496 107.228 70.336V66.336C107.228 66.2613 107.191 66.2347 107.116 66.256C106.785 66.3413 106.465 66.416 106.156 66.48C105.847 66.544 105.553 66.6027 105.276 66.656C105.127 66.6773 104.993 66.64 104.876 66.544C104.759 66.4373 104.7 66.3093 104.7 66.16C104.7 65.9787 104.753 65.824 104.86 65.696C104.967 65.568 105.105 65.488 105.276 65.456C105.564 65.4027 105.863 65.3387 106.172 65.264C106.492 65.1893 106.817 65.1093 107.148 65.024C107.201 65.0027 107.228 64.9707 107.228 64.928V61.264C107.228 61.2 107.196 61.168 107.132 61.168H106.428C106.364 61.168 106.327 61.1947 106.316 61.248C106.081 61.8133 105.799 62.3093 105.468 62.736C105.383 62.8533 105.265 62.912 105.116 62.912C104.956 62.912 104.817 62.848 104.7 62.72C104.604 62.592 104.556 62.448 104.556 62.288C104.556 62.128 104.609 61.968 104.716 61.808C105.015 61.4027 105.244 60.928 105.404 60.384C105.564 59.84 105.671 59.2907 105.724 58.736C105.745 58.576 105.809 58.4427 105.916 58.336C106.033 58.2187 106.172 58.16 106.332 58.16C106.492 58.16 106.631 58.2187 106.748 58.336C106.865 58.4427 106.913 58.576 106.892 58.736C106.881 58.9387 106.86 59.136 106.828 59.328C106.807 59.5093 106.775 59.6907 106.732 59.872V59.904C106.732 59.9573 106.764 59.984 106.828 59.984H107.132C107.196 59.984 107.228 59.952 107.228 59.888V57.744C107.228 57.584 107.281 57.4453 107.388 57.328C107.505 57.2107 107.644 57.152 107.804 57.152C107.964 57.152 108.097 57.2107 108.204 57.328C108.321 57.4453 108.38 57.584 108.38 57.744V59.888C108.38 59.952 108.412 59.984 108.476 59.984H109.244C109.404 59.984 109.543 60.0427 109.66 60.16C109.777 60.2773 109.836 60.416 109.836 60.576C109.836 60.736 109.777 60.8747 109.66 60.992C109.543 61.1093 109.404 61.168 109.244 61.168H108.476C108.412 61.168 108.38 61.2 108.38 61.264V64.544C108.38 64.6187 108.417 64.6453 108.492 64.624C108.599 64.592 108.7 64.56 108.796 64.528C108.903 64.4853 109.004 64.448 109.1 64.416C109.132 64.4053 109.159 64.4 109.18 64.4C109.212 64.3893 109.244 64.384 109.276 64.384C109.415 64.384 109.532 64.432 109.628 64.528C109.735 64.624 109.788 64.7573 109.788 64.928ZM133.052 68.272C133.223 68.3787 133.308 68.5387 133.308 68.752C133.308 68.88 133.265 69.0027 133.18 69.12C133.073 69.28 132.913 69.36 132.7 69.36C132.551 69.36 132.433 69.3227 132.348 69.248C132.081 69.056 131.793 68.8747 131.484 68.704C131.185 68.5333 130.865 68.384 130.524 68.256C130.513 68.256 130.503 68.256 130.492 68.256C130.492 68.2453 130.487 68.24 130.476 68.24C130.423 68.24 130.38 68.2827 130.348 68.368C130.295 68.6347 130.177 68.9173 129.996 69.216C129.825 69.5147 129.548 69.7707 129.164 69.984C128.78 70.1867 128.257 70.288 127.596 70.288C127.052 70.288 126.567 70.2027 126.14 70.032C125.724 69.8613 125.393 69.632 125.148 69.344C124.913 69.0453 124.796 68.7147 124.796 68.352C124.796 67.6907 125.052 67.216 125.564 66.928C126.087 66.64 126.727 66.496 127.484 66.496C127.74 66.496 128.001 66.512 128.268 66.544C128.545 66.5653 128.823 66.6027 129.1 66.656H129.132C129.217 66.656 129.26 66.6133 129.26 66.528C129.26 65.952 129.244 65.3227 129.212 64.64C129.18 63.9573 129.143 63.28 129.1 62.608C129.089 62.512 129.036 62.464 128.94 62.464C128.385 62.4853 127.809 62.5067 127.212 62.528C126.625 62.5493 126.039 62.56 125.452 62.56H124.924C124.753 62.56 124.609 62.5013 124.492 62.384C124.385 62.2667 124.332 62.1227 124.332 61.952C124.332 61.792 124.391 61.6533 124.508 61.536C124.625 61.4187 124.769 61.36 124.94 61.36H125.58C126.103 61.36 126.641 61.3547 127.196 61.344C127.751 61.3227 128.3 61.3013 128.844 61.28C128.951 61.28 128.993 61.232 128.972 61.136C128.929 60.624 128.881 60.1493 128.828 59.712C128.775 59.264 128.721 58.88 128.668 58.56C128.647 58.3787 128.689 58.224 128.796 58.096C128.913 57.968 129.057 57.904 129.228 57.904C129.377 57.904 129.511 57.952 129.628 58.048C129.745 58.1333 129.815 58.2507 129.836 58.4C129.889 58.7307 129.943 59.1253 129.996 59.584C130.049 60.0427 130.103 60.5387 130.156 61.072C130.177 61.168 130.231 61.2107 130.316 61.2C131.084 61.168 131.761 61.12 132.348 61.056C132.519 61.0347 132.663 61.0827 132.78 61.2C132.908 61.3067 132.972 61.4453 132.972 61.616C132.972 61.776 132.919 61.9147 132.812 62.032C132.705 62.1493 132.572 62.2187 132.412 62.24C132.135 62.2613 131.825 62.288 131.484 62.32C131.143 62.3413 130.785 62.3627 130.412 62.384C130.316 62.4053 130.273 62.4587 130.284 62.544C130.337 63.2907 130.38 64.0427 130.412 64.8C130.455 65.5573 130.471 66.2507 130.46 66.88C130.46 66.9653 130.508 67.024 130.604 67.056C131.052 67.216 131.489 67.3973 131.916 67.6C132.343 67.8027 132.721 68.0267 133.052 68.272ZM123.196 58.064C123.377 58.064 123.521 58.128 123.628 58.256C123.735 58.384 123.788 58.5333 123.788 58.704C123.788 58.7253 123.788 58.752 123.788 58.784C123.788 58.816 123.783 58.8427 123.772 58.864C123.569 59.5573 123.399 60.4 123.26 61.392C123.121 62.3733 123.052 63.4293 123.052 64.56C123.052 65.3493 123.095 66.16 123.18 66.992C123.276 67.8133 123.425 68.6293 123.628 69.44C123.639 69.472 123.644 69.504 123.644 69.536C123.655 69.5573 123.66 69.5787 123.66 69.6C123.66 69.7707 123.601 69.9147 123.484 70.032C123.377 70.1493 123.233 70.208 123.052 70.208C122.764 70.208 122.583 70.064 122.508 69.776C122.295 68.944 122.135 68.064 122.028 67.136C121.921 66.1973 121.868 65.2533 121.868 64.304C121.868 63.2907 121.927 62.2827 122.044 61.28C122.172 60.2773 122.369 59.3387 122.636 58.464C122.721 58.1973 122.908 58.064 123.196 58.064ZM127.596 69.088C128.193 69.088 128.599 68.9867 128.812 68.784C129.025 68.5813 129.153 68.3147 129.196 67.984V67.952C129.196 67.888 129.159 67.8453 129.084 67.824C128.817 67.7707 128.54 67.7333 128.252 67.712C127.964 67.68 127.665 67.664 127.356 67.664C126.876 67.664 126.529 67.728 126.316 67.856C126.103 67.9733 125.996 68.112 125.996 68.272C125.996 68.464 126.14 68.6507 126.428 68.832C126.716 69.0027 127.105 69.088 127.596 69.088ZM53.052 87.096C53.052 87.4053 52.9027 87.6027 52.604 87.688C52.0493 87.8267 51.4253 87.9653 50.732 88.104C50.0493 88.2427 49.3347 88.3707 48.588 88.488C48.492 88.488 48.4547 88.5413 48.476 88.648C48.6573 89.3413 48.8333 90.0187 49.004 90.68C49.1853 91.3307 49.3613 91.9387 49.532 92.504C49.5427 92.536 49.548 92.568 49.548 92.6C49.5587 92.6213 49.564 92.648 49.564 92.68C49.564 92.8507 49.5 93 49.372 93.128C49.2547 93.256 49.1053 93.32 48.924 93.32C48.636 93.32 48.444 93.1813 48.348 92.904C48.1667 92.3067 47.98 91.6613 47.788 90.968C47.6067 90.2747 47.4253 89.56 47.244 88.824C47.2227 88.728 47.164 88.6907 47.068 88.712C46.3107 88.84 45.58 88.9573 44.876 89.064C44.1827 89.16 43.5907 89.2667 43.1 89.384C42.9293 89.416 42.764 89.3787 42.604 89.272C42.4547 89.1547 42.38 88.9947 42.38 88.792C42.38 88.6427 42.428 88.5147 42.524 88.408C42.62 88.2907 42.7373 88.216 42.876 88.184C43.4093 88.0667 44.012 87.9547 44.684 87.848C45.3667 87.7413 46.0707 87.6347 46.796 87.528C46.8813 87.5173 46.9187 87.464 46.908 87.368C46.8227 86.9413 46.732 86.5253 46.636 86.12C46.5507 85.7147 46.4707 85.32 46.396 84.936C46.3747 84.8293 46.316 84.7867 46.22 84.808C45.612 84.8933 45.02 84.9787 44.444 85.064C43.8787 85.1387 43.356 85.224 42.876 85.32C42.7053 85.352 42.54 85.3093 42.38 85.192C42.2307 85.0747 42.156 84.9147 42.156 84.712C42.156 84.5627 42.204 84.4347 42.3 84.328C42.396 84.2107 42.5187 84.136 42.668 84.104C43.1373 84.0187 43.6547 83.9387 44.22 83.864C44.7853 83.7787 45.372 83.6933 45.98 83.608C46.0653 83.5973 46.1027 83.544 46.092 83.448L45.724 81.384C45.7027 81.2027 45.7453 81.0373 45.852 80.888C45.9693 80.7387 46.1293 80.664 46.332 80.664C46.4813 80.664 46.6147 80.7173 46.732 80.824C46.86 80.92 46.94 81.0427 46.972 81.192C47.0253 81.4693 47.0787 81.784 47.132 82.136C47.196 82.488 47.2653 82.8667 47.34 83.272C47.3613 83.3787 47.42 83.4213 47.516 83.4C48.0707 83.3147 48.6147 83.2293 49.148 83.144C49.692 83.048 50.204 82.952 50.684 82.856C50.876 82.8133 51.0467 82.856 51.196 82.984C51.3453 83.1013 51.42 83.2667 51.42 83.48C51.42 83.6187 51.3773 83.7467 51.292 83.864C51.2067 83.9707 51.0893 84.0347 50.94 84.056C50.4707 84.152 49.9587 84.248 49.404 84.344C48.86 84.4293 48.3053 84.5147 47.74 84.6C47.6547 84.6107 47.6173 84.664 47.628 84.76C47.7027 85.144 47.7827 85.5387 47.868 85.944C47.964 86.3493 48.0547 86.76 48.14 87.176C48.1613 87.2827 48.22 87.3253 48.316 87.304C49.0627 87.1867 49.7773 87.064 50.46 86.936C51.1427 86.808 51.7453 86.6693 52.268 86.52C52.3107 86.5093 52.3693 86.504 52.444 86.504C52.604 86.504 52.7427 86.5573 52.86 86.664C52.988 86.7707 53.052 86.9147 53.052 87.096ZM65.772 85.016C66.06 84.9093 66.348 84.856 66.636 84.856C67.1373 84.856 67.532 85.016 67.82 85.336C68.1187 85.656 68.268 86.0507 68.268 86.52C68.268 86.936 68.14 87.352 67.884 87.768C67.6067 88.2267 67.244 88.664 66.796 89.08C66.3587 89.4853 65.8733 89.8267 65.34 90.104C65.2973 90.1147 65.2547 90.1307 65.212 90.152C65.18 90.1627 65.1427 90.168 65.1 90.168C64.8653 90.168 64.6947 90.0507 64.588 89.816C64.556 89.7307 64.54 89.656 64.54 89.592C64.54 89.336 64.6573 89.1493 64.892 89.032C65.2547 88.84 65.6173 88.5893 65.98 88.28C66.3427 87.9707 66.6467 87.6027 66.892 87.176C67.0413 86.9093 67.116 86.68 67.116 86.488C67.116 86.3387 67.068 86.216 66.972 86.12C66.8867 86.024 66.764 85.976 66.604 85.976C66.476 85.976 66.332 86.008 66.172 86.072C65.692 86.2427 65.1907 86.408 64.668 86.568C64.1453 86.728 63.612 86.872 63.068 87C62.972 87.0107 62.9347 87.0693 62.956 87.176C63.148 88.0507 63.3293 88.968 63.5 89.928C63.6813 90.888 63.836 91.8 63.964 92.664C63.9853 92.8347 63.9373 92.984 63.82 93.112C63.7133 93.24 63.5693 93.304 63.388 93.304C63.2493 93.304 63.1267 93.256 63.02 93.16C62.9133 93.064 62.8493 92.9467 62.828 92.808C62.764 92.328 62.6787 91.7893 62.572 91.192C62.4653 90.584 62.348 89.9547 62.22 89.304C62.1027 88.6533 61.9747 88.0187 61.836 87.4C61.8253 87.3147 61.7667 87.272 61.66 87.272C61.2653 87.3467 60.8707 87.4107 60.476 87.464C60.092 87.5067 59.708 87.544 59.324 87.576C59.164 87.5867 59.0253 87.5387 58.908 87.432C58.7907 87.3147 58.732 87.176 58.732 87.016C58.732 86.8667 58.78 86.7387 58.876 86.632C58.9827 86.5253 59.1107 86.4667 59.26 86.456C59.6013 86.424 59.9533 86.3867 60.316 86.344C60.6787 86.2907 61.0413 86.2373 61.404 86.184C61.5 86.1733 61.5373 86.1147 61.516 86.008C61.4307 85.6453 61.3453 85.304 61.26 84.984C61.1747 84.664 61.0947 84.3813 61.02 84.136C61.0093 84.104 61.004 84.056 61.004 83.992C61.004 83.8533 61.0467 83.7307 61.132 83.624C61.228 83.5067 61.3613 83.448 61.532 83.448C61.6707 83.448 61.7933 83.4853 61.9 83.56C62.0067 83.6347 62.0813 83.7413 62.124 83.88C62.1987 84.1253 62.2787 84.4133 62.364 84.744C62.46 85.064 62.5507 85.4107 62.636 85.784C62.6467 85.88 62.7053 85.9173 62.812 85.896C63.3347 85.7787 63.8413 85.6453 64.332 85.496C64.8333 85.3467 65.3133 85.1867 65.772 85.016ZM83.004 84.584C82.9187 84.6267 82.844 84.648 82.78 84.648C82.6413 84.648 82.5293 84.584 82.444 84.456C82.2733 84.2 82.076 83.928 81.852 83.64C81.628 83.3413 81.4147 83.0907 81.212 82.888C81.1267 82.8027 81.084 82.712 81.084 82.616C81.084 82.5093 81.1213 82.4187 81.196 82.344C81.3027 82.2587 81.4093 82.216 81.516 82.216C81.6333 82.216 81.7293 82.2533 81.804 82.328C82.0387 82.5627 82.268 82.8293 82.492 83.128C82.7267 83.4267 82.94 83.7147 83.132 83.992C83.1747 84.0667 83.196 84.1413 83.196 84.216C83.196 84.376 83.132 84.4987 83.004 84.584ZM81.804 85.272C81.7507 85.3147 81.676 85.336 81.58 85.336C81.4307 85.336 81.3133 85.272 81.228 85.144C81.0573 84.888 80.8547 84.6107 80.62 84.312C80.396 84.0133 80.1773 83.7627 79.964 83.56C79.8787 83.4747 79.836 83.3733 79.836 83.256C79.836 83.1493 79.8733 83.0587 79.948 82.984C80.0333 82.8987 80.1347 82.856 80.252 82.856C80.38 82.856 80.4813 82.8933 80.556 82.968C80.8013 83.2027 81.0413 83.4747 81.276 83.784C81.5213 84.0933 81.74 84.3973 81.932 84.696C81.9747 84.7493 81.996 84.824 81.996 84.92C81.996 85.0693 81.932 85.1867 81.804 85.272ZM84.732 90.184C84.412 89.992 83.9853 89.736 83.452 89.416C82.9293 89.096 82.364 88.7493 81.756 88.376C81.148 88.0027 80.5507 87.6347 79.964 87.272C79.388 86.8987 78.8813 86.5627 78.444 86.264C78.2307 86.1147 78.0333 86.0027 77.852 85.928C77.6813 85.8533 77.5213 85.816 77.372 85.816C77.1693 85.816 76.972 85.88 76.78 86.008C76.588 86.136 76.3693 86.3387 76.124 86.616L74.508 88.36C74.38 88.5093 74.22 88.584 74.028 88.584C73.8787 88.584 73.7347 88.5253 73.596 88.408C73.4467 88.28 73.372 88.12 73.372 87.928C73.372 87.7573 73.4307 87.6133 73.548 87.496L75.292 85.608C75.676 85.2027 76.028 84.9093 76.348 84.728C76.668 84.536 76.9827 84.44 77.292 84.44C77.5907 84.44 77.9 84.5147 78.22 84.664C78.54 84.8027 78.9027 85.0107 79.308 85.288C79.7133 85.5547 80.1933 85.864 80.748 86.216C81.3133 86.568 81.8893 86.9307 82.476 87.304C83.0733 87.6667 83.628 88.0027 84.14 88.312C84.652 88.6213 85.068 88.872 85.388 89.064C85.6013 89.1813 85.708 89.368 85.708 89.624C85.708 89.7413 85.676 89.848 85.612 89.944C85.4947 90.1573 85.308 90.264 85.052 90.264C84.924 90.264 84.8173 90.2373 84.732 90.184ZM93.932 93.256C93.8573 93.288 93.7773 93.304 93.692 93.304C93.5427 93.304 93.404 93.2453 93.276 93.128C93.148 93.0107 93.084 92.856 93.084 92.664C93.084 92.376 93.2227 92.1733 93.5 92.056C94.396 91.672 95.1693 91.1973 95.82 90.632C96.4707 90.0667 97.02 89.448 97.468 88.776C97.916 88.104 98.284 87.4053 98.572 86.68C98.86 85.9547 99.0787 85.24 99.228 84.536C99.3773 83.832 99.484 83.176 99.548 82.568C99.5693 82.408 99.6333 82.2747 99.74 82.168C99.8573 82.0613 99.9907 82.008 100.14 82.008C100.343 82.008 100.513 82.088 100.652 82.248C100.791 82.408 100.849 82.5893 100.828 82.792C100.668 84.328 100.311 85.784 99.756 87.16C99.2013 88.536 98.4387 89.752 97.468 90.808C96.508 91.864 95.3293 92.68 93.932 93.256ZM95.068 86.28C95.0253 86.2907 94.9827 86.3067 94.94 86.328C94.8973 86.3387 94.8547 86.344 94.812 86.344C94.556 86.344 94.3747 86.2213 94.268 85.976C94.108 85.56 93.9427 85.0587 93.772 84.472C93.612 83.8853 93.4893 83.2933 93.404 82.696C93.3827 82.5147 93.4307 82.3547 93.548 82.216C93.6653 82.0773 93.82 82.008 94.012 82.008C94.1613 82.008 94.2947 82.0613 94.412 82.168C94.5293 82.264 94.5987 82.3973 94.62 82.568C94.6947 83.0587 94.796 83.56 94.924 84.072C95.0627 84.584 95.212 85.0427 95.372 85.448C95.404 85.5227 95.42 85.6133 95.42 85.72C95.42 85.8267 95.388 85.9333 95.324 86.04C95.2707 86.1467 95.1853 86.2267 95.068 86.28ZM91.9 87.4C91.644 87.4 91.468 87.2933 91.372 87.08C91.1373 86.5893 90.908 86.0347 90.684 85.416C90.4707 84.7867 90.3053 84.2107 90.188 83.688C90.1773 83.656 90.172 83.6133 90.172 83.56C90.172 83.4 90.2307 83.2613 90.348 83.144C90.476 83.016 90.6253 82.952 90.796 82.952C90.9453 82.952 91.0733 83 91.18 83.096C91.2867 83.192 91.356 83.3147 91.388 83.464C91.4947 83.9227 91.644 84.4293 91.836 84.984C92.028 85.528 92.2307 86.0187 92.444 86.456C92.4867 86.5413 92.508 86.6427 92.508 86.76C92.508 86.92 92.4547 87.0693 92.348 87.208C92.2413 87.336 92.092 87.4 91.9 87.4ZM111.5 90.472C111.361 90.472 111.239 90.424 111.132 90.328C111.025 90.2213 110.972 90.0933 110.972 89.944L110.764 81.4C110.753 81.1973 110.823 81.0213 110.972 80.872C111.121 80.7227 111.297 80.648 111.5 80.648C111.713 80.648 111.889 80.7227 112.028 80.872C112.177 81.0213 112.247 81.1973 112.236 81.4L112.028 89.944C112.028 90.0933 111.975 90.2213 111.868 90.328C111.772 90.424 111.649 90.472 111.5 90.472ZM111.5 93.448C111.223 93.448 110.983 93.3467 110.78 93.144C110.588 92.952 110.492 92.7227 110.492 92.456C110.492 92.1787 110.588 91.944 110.78 91.752C110.983 91.5493 111.223 91.448 111.5 91.448C111.777 91.448 112.012 91.5493 112.204 91.752C112.407 91.944 112.508 92.1787 112.508 92.456C112.508 92.7227 112.407 92.952 112.204 93.144C112.012 93.3467 111.777 93.448 111.5 93.448Z" fill="#595252"/>
</svg>
