<svg width="142" height="127" viewBox="0 0 142 127" fill="none" xmlns="http://www.w3.org/2000/svg">
<path d="M70.8453 0C31.7175 0 0 28.1689 0 62.9186C0 77.5804 5.66442 91.0642 15.1345 101.757L9.18607 127L35.619 117.497C46.001 122.791 58.0153 125.837 70.8453 125.837C109.969 125.837 141.691 97.6645 141.691 62.9186C141.691 28.1689 109.969 0 70.8453 0Z" fill="#EED9DD"/>
<path d="M48.0213 58.04C48.2026 58.0187 48.3573 58.072 48.4853 58.2C48.6133 58.328 48.6773 58.4827 48.6773 58.664C48.6773 58.8453 48.6133 58.9947 48.4853 59.112C48.3573 59.24 48.2026 59.2987 48.0213 59.288C47.6693 59.256 47.3013 59.2293 46.9173 59.208C46.5333 59.1867 46.1493 59.176 45.7653 59.176C45.3919 59.176 45.0239 59.1867 44.6613 59.208C44.2986 59.2293 43.9573 59.256 43.6373 59.288C43.4559 59.2987 43.2959 59.24 43.1573 59.112C43.0293 58.9947 42.9653 58.8453 42.9653 58.664C42.9653 58.4827 43.0293 58.328 43.1573 58.2C43.2959 58.072 43.4559 58.0187 43.6373 58.04C44.1173 58.0827 44.6026 58.1147 45.0933 58.136C45.1893 58.136 45.2373 58.088 45.2373 57.992V49.272C45.2373 49.1333 45.1786 49.096 45.0613 49.16L43.8133 49.768C43.7279 49.8107 43.6373 49.832 43.5413 49.832C43.2746 49.832 43.0826 49.7147 42.9653 49.48C42.9546 49.4267 42.9386 49.3787 42.9173 49.336C42.9066 49.2933 42.9013 49.2507 42.9013 49.208C42.9013 48.952 43.0239 48.7653 43.2693 48.648L45.6213 47.512C45.6959 47.4693 45.7813 47.448 45.8773 47.448C46.0373 47.448 46.1759 47.5067 46.2933 47.624C46.4213 47.7307 46.4852 47.8747 46.4852 48.056V57.992C46.4852 58.088 46.5386 58.136 46.6453 58.136C47.1359 58.1147 47.5946 58.0827 48.0213 58.04ZM55.7556 58.04C55.937 58.0187 56.0916 58.072 56.2196 58.2C56.3476 58.328 56.4116 58.4827 56.4116 58.664C56.4116 58.8453 56.3476 58.9947 56.2196 59.112C56.0916 59.24 55.937 59.2987 55.7556 59.288C55.4036 59.256 55.0356 59.2293 54.6516 59.208C54.2676 59.1867 53.8836 59.176 53.4996 59.176C53.1263 59.176 52.7583 59.1867 52.3956 59.208C52.033 59.2293 51.6916 59.256 51.3716 59.288C51.1903 59.2987 51.0303 59.24 50.8916 59.112C50.7636 58.9947 50.6996 58.8453 50.6996 58.664C50.6996 58.4827 50.7636 58.328 50.8916 58.2C51.0303 58.072 51.1903 58.0187 51.3716 58.04C51.8516 58.0827 52.337 58.1147 52.8276 58.136C52.9236 58.136 52.9716 58.088 52.9716 57.992V49.272C52.9716 49.1333 52.913 49.096 52.7956 49.16L51.5476 49.768C51.4623 49.8107 51.3716 49.832 51.2756 49.832C51.009 49.832 50.817 49.7147 50.6996 49.48C50.689 49.4267 50.673 49.3787 50.6516 49.336C50.641 49.2933 50.6356 49.2507 50.6356 49.208C50.6356 48.952 50.7583 48.7653 51.0036 48.648L53.3556 47.512C53.4303 47.4693 53.5156 47.448 53.6116 47.448C53.7716 47.448 53.9103 47.5067 54.0276 47.624C54.1556 47.7307 54.2196 47.8747 54.2196 48.056V57.992C54.2196 58.088 54.273 58.136 54.3796 58.136C54.8703 58.1147 55.329 58.0827 55.7556 58.04ZM62.21 46.536H68.594C68.8607 46.536 69.0847 46.632 69.266 46.824C69.458 47.0053 69.554 47.2293 69.554 47.496V58.184C69.554 58.7387 69.3993 59.1547 69.09 59.432C68.7913 59.72 68.2473 59.864 67.458 59.864C67.3833 59.864 67.3033 59.864 67.218 59.864C67.1327 59.864 67.0473 59.8587 66.962 59.848C66.802 59.8373 66.6633 59.768 66.546 59.64C66.4393 59.5227 66.386 59.3893 66.386 59.24C66.386 59.0587 66.4447 58.9093 66.562 58.792C66.69 58.6747 66.8393 58.6213 67.01 58.632C67.138 58.6427 67.2553 58.648 67.362 58.648C67.4687 58.648 67.5593 58.648 67.634 58.648C67.986 58.648 68.194 58.616 68.258 58.552C68.322 58.4773 68.354 58.3547 68.354 58.184V55.272C68.354 55.208 68.322 55.176 68.258 55.176H62.226C62.1727 55.176 62.1353 55.208 62.114 55.272C61.9967 56.0293 61.826 56.7707 61.602 57.496C61.3887 58.2107 61.122 58.8987 60.802 59.56C60.738 59.6773 60.6473 59.768 60.53 59.832C60.4127 59.896 60.29 59.928 60.162 59.928C60.1193 59.928 60.0767 59.9227 60.034 59.912C60.002 59.912 59.9647 59.9067 59.922 59.896C59.6873 59.8213 59.57 59.656 59.57 59.4C59.57 59.3573 59.5753 59.3147 59.586 59.272C59.6073 59.24 59.6233 59.2027 59.634 59.16C60.1033 58.232 60.45 57.2933 60.674 56.344C60.9087 55.3947 61.0633 54.4667 61.138 53.56C61.2127 52.6427 61.25 51.784 61.25 50.984V47.496C61.25 47.2293 61.3407 47.0053 61.522 46.824C61.714 46.632 61.9433 46.536 62.21 46.536ZM68.258 50.264C68.322 50.264 68.354 50.232 68.354 50.168V47.816C68.354 47.752 68.322 47.72 68.258 47.72H62.546C62.482 47.72 62.45 47.752 62.45 47.816V50.168C62.45 50.232 62.482 50.264 62.546 50.264H68.258ZM62.306 53.896C62.2953 53.96 62.322 53.992 62.386 53.992H68.258C68.322 53.992 68.354 53.96 68.354 53.896V51.544C68.354 51.48 68.322 51.448 68.258 51.448H62.546C62.482 51.448 62.45 51.48 62.45 51.544C62.4393 52.3227 62.3913 53.1067 62.306 53.896ZM77.794 54.616C76.994 54.616 76.3113 54.456 75.746 54.136C75.1913 53.8053 74.7647 53.3733 74.466 52.84C74.1673 52.296 74.018 51.704 74.018 51.064C74.018 50.296 74.1887 49.6347 74.53 49.08C74.882 48.5147 75.3513 48.0827 75.938 47.784C76.5353 47.4747 77.2073 47.32 77.954 47.32C78.4873 47.32 79.01 47.4107 79.522 47.592C80.034 47.7627 80.498 48.0507 80.914 48.456C81.33 48.8613 81.6607 49.4107 81.906 50.104C82.162 50.7867 82.29 51.6453 82.29 52.68C82.29 53.5867 82.1993 54.44 82.018 55.24C81.8473 56.04 81.5753 56.7387 81.202 57.336C80.8287 57.9333 80.354 58.4027 79.778 58.744C79.2127 59.0853 78.53 59.256 77.73 59.256C77.058 59.256 76.4873 59.1493 76.018 58.936C75.5487 58.712 75.1913 58.4347 74.946 58.104C74.7007 57.7733 74.578 57.448 74.578 57.128C74.578 56.8507 74.6687 56.6107 74.85 56.408C75.0313 56.1947 75.25 56.088 75.506 56.088C75.7833 56.088 75.9967 56.184 76.146 56.376C76.306 56.5573 76.386 56.76 76.386 56.984C76.386 57.1653 76.338 57.3307 76.242 57.48C76.1887 57.5547 76.1887 57.6187 76.242 57.672C76.3913 57.8427 76.5887 57.9653 76.834 58.04C77.0793 58.104 77.3673 58.136 77.698 58.136C78.3273 58.136 78.9087 57.9333 79.442 57.528C79.986 57.112 80.418 56.5147 80.738 55.736C81.0687 54.9467 81.2233 54.0027 81.202 52.904C81.202 52.8613 81.186 52.84 81.154 52.84C81.0687 52.84 80.9727 52.9093 80.866 53.048C80.578 53.4427 80.242 53.7573 79.858 53.992C79.4847 54.216 79.1113 54.376 78.738 54.472C78.3647 54.568 78.05 54.616 77.794 54.616ZM78.05 48.44C77.378 48.44 76.8287 48.5627 76.402 48.808C75.9753 49.0533 75.6607 49.368 75.458 49.752C75.266 50.136 75.17 50.536 75.17 50.952C75.17 51.528 75.2553 51.992 75.426 52.344C75.6073 52.6853 75.8367 52.9467 76.114 53.128C76.402 53.2987 76.706 53.4107 77.026 53.464C77.346 53.5173 77.65 53.5333 77.938 53.512C78.4287 53.48 78.8927 53.336 79.33 53.08C79.778 52.8133 80.1407 52.4667 80.418 52.04C80.706 51.6133 80.85 51.144 80.85 50.632C80.85 50.536 80.8393 50.4613 80.818 50.408C80.5833 49.7467 80.242 49.256 79.794 48.936C79.346 48.6053 78.7647 48.44 78.05 48.44ZM87.3788 46.84H95.0588C95.3254 46.84 95.5494 46.936 95.7308 47.128C95.9228 47.3093 96.0188 47.5333 96.0188 47.8V58.68C96.0188 58.9467 95.9228 59.1707 95.7308 59.352C95.5494 59.544 95.3254 59.64 95.0588 59.64H87.3788C87.1121 59.64 86.8828 59.544 86.6908 59.352C86.5094 59.1707 86.4188 58.9467 86.4188 58.68V47.8C86.4188 47.5333 86.5094 47.3093 86.6908 47.128C86.8828 46.936 87.1121 46.84 87.3788 46.84ZM94.7228 52.328C94.7868 52.328 94.8188 52.296 94.8188 52.232V48.136C94.8188 48.072 94.7868 48.04 94.7228 48.04H87.7148C87.6508 48.04 87.6188 48.072 87.6188 48.136V52.232C87.6188 52.296 87.6508 52.328 87.7148 52.328H94.7228ZM87.7148 53.512C87.6508 53.512 87.6188 53.544 87.6188 53.608V58.36C87.6188 58.424 87.6508 58.456 87.7148 58.456H94.7228C94.7868 58.456 94.8188 58.424 94.8188 58.36V53.608C94.8188 53.544 94.7868 53.512 94.7228 53.512H87.7148ZM55.14 81.2C55.14 81.264 55.172 81.296 55.236 81.296H60.468C60.628 81.296 60.7667 81.3547 60.884 81.472C61.0013 81.5787 61.06 81.7173 61.06 81.888C61.06 82.048 61.0013 82.1867 60.884 82.304C60.7667 82.4213 60.628 82.48 60.468 82.48H48.532C48.372 82.48 48.2333 82.4213 48.116 82.304C47.9987 82.1867 47.94 82.048 47.94 81.888C47.94 81.7173 47.9987 81.5787 48.116 81.472C48.2333 81.3547 48.372 81.296 48.532 81.296H53.828C53.892 81.296 53.924 81.264 53.924 81.2V77.856C53.924 77.792 53.892 77.76 53.828 77.76H50.452C50.292 77.76 50.1533 77.7067 50.036 77.6C49.9187 77.4827 49.86 77.3387 49.86 77.168C49.86 77.008 49.9187 76.8693 50.036 76.752C50.1533 76.6347 50.292 76.576 50.452 76.576H53.828C53.892 76.576 53.924 76.544 53.924 76.48V73.52C53.924 73.456 53.892 73.424 53.828 73.424H50.5C50.436 73.424 50.3987 73.4453 50.388 73.488C50.1533 73.872 49.9027 74.24 49.636 74.592C49.3693 74.9333 49.0813 75.2533 48.772 75.552C48.6653 75.648 48.5427 75.696 48.404 75.696C48.212 75.696 48.0573 75.616 47.94 75.456C47.8547 75.36 47.812 75.2373 47.812 75.088C47.812 74.896 47.8813 74.7307 48.02 74.592C48.692 73.9307 49.236 73.184 49.652 72.352C50.0787 71.5093 50.372 70.704 50.532 69.936C50.564 69.7867 50.6333 69.6693 50.74 69.584C50.8467 69.4987 50.964 69.456 51.092 69.456C51.284 69.456 51.4387 69.52 51.556 69.648C51.684 69.7653 51.748 69.9093 51.748 70.08C51.748 70.144 51.7427 70.192 51.732 70.224C51.6573 70.5227 51.5667 70.832 51.46 71.152C51.364 71.4613 51.2413 71.7867 51.092 72.128C51.06 72.2027 51.0867 72.24 51.172 72.24H53.828C53.892 72.24 53.924 72.208 53.924 72.144V69.776C53.924 69.6053 53.9827 69.4613 54.1 69.344C54.2173 69.2267 54.3613 69.168 54.532 69.168C54.7027 69.168 54.8467 69.2267 54.964 69.344C55.0813 69.4613 55.14 69.6053 55.14 69.776V72.144C55.14 72.208 55.172 72.24 55.236 72.24H59.316C59.476 72.24 59.6147 72.2987 59.732 72.416C59.8493 72.5333 59.908 72.672 59.908 72.832C59.908 73.0027 59.8493 73.1467 59.732 73.264C59.6147 73.3707 59.476 73.424 59.316 73.424H55.236C55.172 73.424 55.14 73.456 55.14 73.52V76.48C55.14 76.544 55.172 76.576 55.236 76.576H58.548C58.708 76.576 58.8467 76.6347 58.964 76.752C59.0813 76.8693 59.14 77.008 59.14 77.168C59.14 77.3387 59.0813 77.4827 58.964 77.6C58.8467 77.7067 58.708 77.76 58.548 77.76H55.236C55.172 77.76 55.14 77.792 55.14 77.856V81.2ZM75.3 71.584C75.46 71.584 75.5987 71.6427 75.716 71.76C75.8333 71.8667 75.8973 72 75.908 72.16C75.908 72.32 75.8493 72.4587 75.732 72.576C75.6253 72.6933 75.492 72.7573 75.332 72.768C74.8733 72.7893 74.324 72.8213 73.684 72.864C73.044 72.896 72.3667 72.9387 71.652 72.992C71.556 73.0027 71.508 73.056 71.508 73.152C71.5293 73.44 71.54 73.7333 71.54 74.032C71.5507 74.3307 71.5613 74.6347 71.572 74.944C71.572 75.04 71.62 75.0827 71.716 75.072C72.6653 74.9867 73.5507 74.8747 74.372 74.736C74.5533 74.704 74.7187 74.7467 74.868 74.864C75.0173 74.9707 75.092 75.1253 75.092 75.328C75.092 75.4667 75.0493 75.5947 74.964 75.712C74.8787 75.8187 74.7667 75.8827 74.628 75.904C74.18 75.9787 73.7107 76.048 73.22 76.112C72.74 76.1653 72.2547 76.208 71.764 76.24C71.668 76.2507 71.62 76.304 71.62 76.4C71.6413 76.8373 71.652 77.2587 71.652 77.664C71.6627 78.0693 71.6733 78.432 71.684 78.752C71.684 78.848 71.7267 78.9013 71.812 78.912C72.2813 79.04 72.772 79.2053 73.284 79.408C73.8067 79.6 74.3507 79.8347 74.916 80.112C75.1613 80.2293 75.284 80.432 75.284 80.72C75.284 80.912 75.2253 81.0613 75.108 81.168C74.9907 81.2747 74.8573 81.328 74.708 81.328C74.6013 81.328 74.5053 81.3067 74.42 81.264C74.0253 81.0293 73.604 80.8053 73.156 80.592C72.708 80.3787 72.244 80.192 71.764 80.032C71.7533 80.0213 71.732 80.016 71.7 80.016C71.636 80.016 71.5987 80.0533 71.588 80.128C71.5133 80.48 71.3747 80.8213 71.172 81.152C70.98 81.472 70.692 81.7387 70.308 81.952C69.9347 82.1547 69.4333 82.256 68.804 82.256C68.2173 82.256 67.6787 82.1067 67.188 81.808C66.708 81.4987 66.3987 81.0987 66.26 80.608C66.228 80.48 66.212 80.3627 66.212 80.256C66.212 79.7653 66.468 79.3547 66.98 79.024C67.492 78.6827 68.228 78.512 69.188 78.512C69.3693 78.512 69.556 78.5173 69.748 78.528C69.94 78.5387 70.1373 78.56 70.34 78.592H70.372C70.4573 78.592 70.5 78.5493 70.5 78.464C70.4893 78.1867 70.4787 77.8773 70.468 77.536C70.468 77.1947 70.4573 76.8373 70.436 76.464C70.436 76.368 70.388 76.32 70.292 76.32C70.0893 76.3307 69.8867 76.336 69.684 76.336C69.492 76.336 69.3053 76.336 69.124 76.336C68.7507 76.336 68.3933 76.3307 68.052 76.32C67.7107 76.3093 67.396 76.2933 67.108 76.272C66.9587 76.2507 66.8307 76.1813 66.724 76.064C66.6173 75.9467 66.564 75.808 66.564 75.648C66.564 75.4773 66.628 75.3387 66.756 75.232C66.884 75.1147 67.0333 75.0613 67.204 75.072C67.556 75.0933 67.9027 75.1147 68.244 75.136C68.596 75.1467 68.948 75.152 69.3 75.152C69.46 75.152 69.62 75.152 69.78 75.152C69.94 75.152 70.1 75.1467 70.26 75.136C70.356 75.136 70.404 75.088 70.404 74.992C70.3933 74.6933 70.3827 74.3947 70.372 74.096C70.3613 73.7973 70.3453 73.5093 70.324 73.232C70.324 73.1253 70.276 73.0827 70.18 73.104C69.2947 73.1573 68.4467 73.216 67.636 73.28C66.836 73.3333 66.1853 73.3707 65.684 73.392C65.5133 73.4027 65.3693 73.3493 65.252 73.232C65.1347 73.1147 65.076 72.9707 65.076 72.8C65.076 72.64 65.1293 72.5067 65.236 72.4C65.3427 72.2827 65.476 72.2187 65.636 72.208C66.1373 72.176 66.788 72.1333 67.588 72.08C68.388 72.016 69.236 71.9573 70.132 71.904C70.228 71.8827 70.276 71.8293 70.276 71.744C70.2653 71.456 70.2493 71.184 70.228 70.928C70.2173 70.672 70.212 70.448 70.212 70.256C70.212 70.0853 70.2707 69.9413 70.388 69.824C70.5053 69.7067 70.6493 69.648 70.82 69.648C70.9693 69.648 71.0973 69.7013 71.204 69.808C71.3213 69.9147 71.3853 70.0427 71.396 70.192C71.4067 70.384 71.4173 70.608 71.428 70.864C71.4387 71.1093 71.4493 71.376 71.46 71.664C71.46 71.76 71.524 71.8027 71.652 71.792C72.3347 71.7387 72.9907 71.696 73.62 71.664C74.2493 71.6213 74.8093 71.5947 75.3 71.584ZM68.932 81.072C69.4653 81.072 69.8387 80.9493 70.052 80.704C70.276 80.4587 70.4147 80.1707 70.468 79.84V79.808C70.468 79.744 70.4253 79.7013 70.34 79.68C70.1053 79.648 69.8653 79.6213 69.62 79.6C69.3747 79.5787 69.1293 79.5787 68.884 79.6C68.3613 79.6107 67.9773 79.6853 67.732 79.824C67.4973 79.952 67.38 80.1013 67.38 80.272C67.38 80.464 67.5187 80.6453 67.796 80.816C68.084 80.9867 68.4627 81.072 68.932 81.072ZM93.268 79.2C93.3747 79.3067 93.428 79.4453 93.428 79.616C93.428 79.7867 93.3693 79.9253 93.252 80.032C92.9853 80.2667 92.724 80.4747 92.468 80.656C92.212 80.8267 91.972 80.9707 91.748 81.088C91.6307 81.152 91.492 81.2053 91.332 81.248C91.172 81.2907 91.0013 81.312 90.82 81.312C90.5107 81.312 90.2013 81.2213 89.892 81.04C89.5827 80.848 89.3267 80.512 89.124 80.032C88.9213 79.552 88.82 78.88 88.82 78.016C88.82 77.5787 88.852 77.0773 88.916 76.512C88.98 75.9467 89.0867 75.3227 89.236 74.64C89.2467 74.5867 89.2573 74.5333 89.268 74.48C89.2893 74.416 89.3 74.352 89.3 74.288C89.3 74.1813 89.2733 74.0907 89.22 74.016C89.1667 73.9307 89.0493 73.888 88.868 73.888C88.7613 73.888 88.612 73.9147 88.42 73.968C88.2387 74.0213 88.0093 74.1067 87.732 74.224C87.1987 74.4587 86.676 74.7253 86.164 75.024C85.6627 75.312 85.1613 75.648 84.66 76.032C84.6067 76.0853 84.58 76.144 84.58 76.208C84.58 77.1573 84.6067 78.112 84.66 79.072C84.7133 80.032 84.7987 80.9493 84.916 81.824C84.9373 81.9947 84.884 82.1547 84.756 82.304C84.6387 82.4533 84.4893 82.528 84.308 82.528C84.1693 82.528 84.0413 82.48 83.924 82.384C83.8067 82.288 83.7373 82.1653 83.716 82.016C83.6413 81.4187 83.572 80.7307 83.508 79.952C83.4547 79.1627 83.4173 78.336 83.396 77.472C83.396 77.408 83.38 77.3707 83.348 77.36C83.316 77.3387 83.2733 77.3547 83.22 77.408C82.9533 77.7067 82.6867 78.0373 82.42 78.4C82.164 78.7627 81.908 79.1573 81.652 79.584C81.5773 79.776 81.5027 79.968 81.428 80.16C81.364 80.3413 81.3 80.528 81.236 80.72C81.1507 80.9867 80.964 81.12 80.676 81.12C80.5053 81.12 80.3667 81.0613 80.26 80.944C80.164 80.816 80.116 80.6827 80.116 80.544C80.116 80.512 80.116 80.48 80.116 80.448C80.1267 80.416 80.1373 80.384 80.148 80.352C80.4893 79.4453 80.9427 78.4747 81.508 77.44C82.0733 76.3947 82.6973 75.3813 83.38 74.4C83.4227 74.3467 83.444 74.288 83.444 74.224C83.444 74.16 83.3907 74.1387 83.284 74.16C82.8573 74.2453 82.4093 74.32 81.94 74.384C81.4707 74.4373 81.0387 74.4747 80.644 74.496C80.484 74.5067 80.3453 74.4533 80.228 74.336C80.1107 74.2187 80.052 74.08 80.052 73.92C80.052 73.76 80.1107 73.6213 80.228 73.504C80.3453 73.3867 80.484 73.328 80.644 73.328C81.0387 73.3067 81.476 73.2747 81.956 73.232C82.436 73.1893 82.9107 73.1147 83.38 73.008C83.4653 72.9973 83.508 72.944 83.508 72.848C83.5507 72.3467 83.5933 71.8667 83.636 71.408C83.6893 70.9493 83.748 70.5173 83.812 70.112C83.8333 69.9733 83.8973 69.8613 84.004 69.776C84.1213 69.6907 84.244 69.648 84.372 69.648C84.5747 69.648 84.7347 69.728 84.852 69.888C84.98 70.0373 85.0227 70.2027 84.98 70.384C84.9267 70.704 84.8787 71.056 84.836 71.44C84.7933 71.824 84.756 72.224 84.724 72.64V72.672C84.724 72.7467 84.772 72.784 84.868 72.784C85.0173 72.784 85.14 72.8267 85.236 72.912C85.3747 73.0293 85.444 73.1787 85.444 73.36C85.444 73.488 85.396 73.6107 85.3 73.728C85.1933 73.8453 85.0867 73.968 84.98 74.096C84.884 74.224 84.7827 74.3467 84.676 74.464C84.6333 74.5173 84.612 74.576 84.612 74.64C84.612 74.7253 84.6707 74.7307 84.788 74.656C85.396 74.208 85.9933 73.84 86.58 73.552C87.1773 73.2533 87.7213 73.0507 88.212 72.944C88.3933 72.9013 88.5587 72.8693 88.708 72.848C88.868 72.8267 89.0173 72.816 89.156 72.816C89.5933 72.816 89.924 72.928 90.148 73.152C90.3827 73.376 90.5 73.728 90.5 74.208C90.5 74.4533 90.468 74.7467 90.404 75.088C90.2653 75.7493 90.1587 76.3413 90.084 76.864C90.02 77.376 89.988 77.8293 89.988 78.224C89.988 78.8853 90.0733 79.3653 90.244 79.664C90.4147 79.9627 90.6387 80.112 90.916 80.112C91.1293 80.112 91.364 80.032 91.62 79.872C91.8867 79.712 92.1587 79.4933 92.436 79.216C92.5533 79.0987 92.6973 79.04 92.868 79.04C93.028 79.04 93.1613 79.0933 93.268 79.2Z" fill="#595252"/>
</svg>
