<svg width="294" height="57" viewBox="0 0 294 57" fill="none" xmlns="http://www.w3.org/2000/svg">
<rect x="0.5" y="0.5" width="293" height="47.1034" rx="23.5517" fill="white" stroke="#CEB599"/>
<path d="M128.552 27.272C128.723 27.3787 128.808 27.5387 128.808 27.752C128.808 27.88 128.765 28.0027 128.68 28.12C128.573 28.28 128.413 28.36 128.2 28.36C128.051 28.36 127.933 28.3227 127.848 28.248C127.581 28.056 127.293 27.8747 126.984 27.704C126.685 27.5333 126.365 27.384 126.024 27.256C126.013 27.256 126.003 27.256 125.992 27.256C125.992 27.2453 125.987 27.24 125.976 27.24C125.923 27.24 125.88 27.2827 125.848 27.368C125.795 27.6347 125.677 27.9173 125.496 28.216C125.325 28.5147 125.048 28.7707 124.664 28.984C124.28 29.1867 123.757 29.288 123.096 29.288C122.552 29.288 122.067 29.2027 121.64 29.032C121.224 28.8613 120.893 28.632 120.648 28.344C120.413 28.0453 120.296 27.7147 120.296 27.352C120.296 26.6907 120.552 26.216 121.064 25.928C121.587 25.64 122.227 25.496 122.984 25.496C123.24 25.496 123.501 25.512 123.768 25.544C124.045 25.5653 124.323 25.6027 124.6 25.656H124.632C124.717 25.656 124.76 25.6133 124.76 25.528C124.76 24.952 124.744 24.3227 124.712 23.64C124.68 22.9573 124.643 22.28 124.6 21.608C124.589 21.512 124.536 21.464 124.44 21.464C123.885 21.4853 123.309 21.5067 122.712 21.528C122.125 21.5493 121.539 21.56 120.952 21.56H120.424C120.253 21.56 120.109 21.5013 119.992 21.384C119.885 21.2667 119.832 21.1227 119.832 20.952C119.832 20.792 119.891 20.6533 120.008 20.536C120.125 20.4187 120.269 20.36 120.44 20.36H121.08C121.603 20.36 122.141 20.3547 122.696 20.344C123.251 20.3227 123.8 20.3013 124.344 20.28C124.451 20.28 124.493 20.232 124.472 20.136C124.429 19.624 124.381 19.1493 124.328 18.712C124.275 18.264 124.221 17.88 124.168 17.56C124.147 17.3787 124.189 17.224 124.296 17.096C124.413 16.968 124.557 16.904 124.728 16.904C124.877 16.904 125.011 16.952 125.128 17.048C125.245 17.1333 125.315 17.2507 125.336 17.4C125.389 17.7307 125.443 18.1253 125.496 18.584C125.549 19.0427 125.603 19.5387 125.656 20.072C125.677 20.168 125.731 20.2107 125.816 20.2C126.584 20.168 127.261 20.12 127.848 20.056C128.019 20.0347 128.163 20.0827 128.28 20.2C128.408 20.3067 128.472 20.4453 128.472 20.616C128.472 20.776 128.419 20.9147 128.312 21.032C128.205 21.1493 128.072 21.2187 127.912 21.24C127.635 21.2613 127.325 21.288 126.984 21.32C126.643 21.3413 126.285 21.3627 125.912 21.384C125.816 21.4053 125.773 21.4587 125.784 21.544C125.837 22.2907 125.88 23.0427 125.912 23.8C125.955 24.5573 125.971 25.2507 125.96 25.88C125.96 25.9653 126.008 26.024 126.104 26.056C126.552 26.216 126.989 26.3973 127.416 26.6C127.843 26.8027 128.221 27.0267 128.552 27.272ZM118.696 17.064C118.877 17.064 119.021 17.128 119.128 17.256C119.235 17.384 119.288 17.5333 119.288 17.704C119.288 17.7253 119.288 17.752 119.288 17.784C119.288 17.816 119.283 17.8427 119.272 17.864C119.069 18.5573 118.899 19.4 118.76 20.392C118.621 21.3733 118.552 22.4293 118.552 23.56C118.552 24.3493 118.595 25.16 118.68 25.992C118.776 26.8133 118.925 27.6293 119.128 28.44C119.139 28.472 119.144 28.504 119.144 28.536C119.155 28.5573 119.16 28.5787 119.16 28.6C119.16 28.7707 119.101 28.9147 118.984 29.032C118.877 29.1493 118.733 29.208 118.552 29.208C118.264 29.208 118.083 29.064 118.008 28.776C117.795 27.944 117.635 27.064 117.528 26.136C117.421 25.1973 117.368 24.2533 117.368 23.304C117.368 22.2907 117.427 21.2827 117.544 20.28C117.672 19.2773 117.869 18.3387 118.136 17.464C118.221 17.1973 118.408 17.064 118.696 17.064ZM123.096 28.088C123.693 28.088 124.099 27.9867 124.312 27.784C124.525 27.5813 124.653 27.3147 124.696 26.984V26.952C124.696 26.888 124.659 26.8453 124.584 26.824C124.317 26.7707 124.04 26.7333 123.752 26.712C123.464 26.68 123.165 26.664 122.856 26.664C122.376 26.664 122.029 26.728 121.816 26.856C121.603 26.9733 121.496 27.112 121.496 27.272C121.496 27.464 121.64 27.6507 121.928 27.832C122.216 28.0027 122.605 28.088 123.096 28.088ZM136.568 28.296C136.024 27.8267 135.64 27.2187 135.416 26.472C135.192 25.7147 135.08 24.8667 135.08 23.928C135.08 23.3307 135.117 22.7013 135.192 22.04C135.267 21.3787 135.368 20.696 135.496 19.992C135.549 19.7467 135.581 19.528 135.592 19.336C135.613 19.144 135.624 18.968 135.624 18.808C135.624 18.5627 135.597 18.3547 135.544 18.184C135.501 18.0027 135.421 17.8267 135.304 17.656C135.24 17.56 135.208 17.4533 135.208 17.336C135.208 17.1227 135.293 16.968 135.464 16.872C135.56 16.8187 135.672 16.792 135.8 16.792C136.045 16.792 136.221 16.888 136.328 17.08C136.648 17.6027 136.808 18.1733 136.808 18.792C136.808 18.9947 136.792 19.2133 136.76 19.448C136.739 19.6827 136.701 19.9387 136.648 20.216C136.531 20.9093 136.435 21.576 136.36 22.216C136.285 22.8453 136.248 23.4373 136.248 23.992C136.248 24.6747 136.312 25.2827 136.44 25.816C136.579 26.3493 136.797 26.7867 137.096 27.128C137.651 27.7467 138.301 28.056 139.048 28.056C139.677 28.056 140.339 27.832 141.032 27.384C141.736 26.936 142.413 26.264 143.064 25.368C143.181 25.208 143.336 25.128 143.528 25.128C143.677 25.128 143.8 25.176 143.896 25.272C144.067 25.4107 144.152 25.5973 144.152 25.832C144.152 25.9813 144.109 26.1147 144.024 26.232C143.373 27.1707 142.611 27.912 141.736 28.456C140.872 28.9893 139.997 29.256 139.112 29.256C138.664 29.256 138.221 29.176 137.784 29.016C137.357 28.8667 136.952 28.6267 136.568 28.296ZM143.512 19.544C143.448 19.5653 143.4 19.576 143.368 19.576C143.197 19.576 143.08 19.4907 143.016 19.32C142.749 18.6587 142.365 18.0827 141.864 17.592C141.779 17.5067 141.736 17.416 141.736 17.32C141.736 17.224 141.773 17.1387 141.848 17.064C141.923 16.9893 142.019 16.952 142.136 16.952C142.232 16.952 142.317 16.984 142.392 17.048C142.712 17.336 142.973 17.6347 143.176 17.944C143.379 18.2427 143.565 18.5947 143.736 19C143.757 19.0213 143.768 19.048 143.768 19.08C143.768 19.112 143.768 19.1387 143.768 19.16C143.768 19.352 143.683 19.48 143.512 19.544ZM142.2 20.152C142.136 20.1733 142.083 20.184 142.04 20.184C141.859 20.184 141.736 20.0987 141.672 19.928C141.544 19.5867 141.395 19.2827 141.224 19.016C141.053 18.7493 140.835 18.4987 140.568 18.264C140.472 18.1787 140.424 18.072 140.424 17.944C140.424 17.848 140.456 17.768 140.52 17.704C140.616 17.608 140.723 17.56 140.84 17.56C140.947 17.56 141.037 17.5973 141.112 17.672C141.656 18.1733 142.093 18.8133 142.424 19.592C142.445 19.656 142.456 19.7093 142.456 19.752C142.456 19.9333 142.371 20.0667 142.2 20.152ZM156.92 19.576C156.92 19.5867 156.915 19.5973 156.904 19.608C156.904 19.608 156.904 19.6133 156.904 19.624C156.904 19.688 156.947 19.7307 157.032 19.752C157.843 19.816 158.536 20.0613 159.112 20.488C159.688 20.904 160.131 21.4267 160.44 22.056C160.749 22.6747 160.904 23.3253 160.904 24.008C160.904 24.7013 160.728 25.3787 160.376 26.04C160.035 26.6907 159.496 27.2507 158.76 27.72C158.035 28.1787 157.091 28.4773 155.928 28.616C155.747 28.6373 155.587 28.584 155.448 28.456C155.309 28.328 155.24 28.1733 155.24 27.992C155.24 27.832 155.293 27.6933 155.4 27.576C155.517 27.4587 155.661 27.3947 155.832 27.384C156.717 27.32 157.443 27.1173 158.008 26.776C158.573 26.424 158.995 25.9973 159.272 25.496C159.549 24.984 159.688 24.4613 159.688 23.928C159.688 23.4267 159.571 22.952 159.336 22.504C159.101 22.0453 158.749 21.672 158.28 21.384C157.821 21.0853 157.256 20.9253 156.584 20.904C156.499 20.904 156.44 20.9413 156.408 21.016C156.291 21.3573 156.12 21.7733 155.896 22.264C155.683 22.744 155.432 23.256 155.144 23.8C154.867 24.3333 154.557 24.8613 154.216 25.384C153.885 25.9067 153.539 26.3813 153.176 26.808C152.824 27.2347 152.461 27.576 152.088 27.832C151.725 28.088 151.373 28.216 151.032 28.216C151 28.216 150.963 28.216 150.92 28.216C150.888 28.216 150.856 28.2107 150.824 28.2C150.291 28.0933 149.885 27.832 149.608 27.416C149.341 27 149.208 26.4987 149.208 25.912C149.208 25.2507 149.379 24.5413 149.72 23.784C150.061 23.0267 150.573 22.3333 151.256 21.704C151.309 21.6293 151.331 21.5653 151.32 21.512C151.117 20.6053 151.011 19.6453 151 18.632C151 18.472 151.059 18.3333 151.176 18.216C151.293 18.0987 151.437 18.04 151.608 18.04C151.768 18.04 151.907 18.0987 152.024 18.216C152.141 18.3333 152.2 18.4773 152.2 18.648C152.211 18.936 152.227 19.2507 152.248 19.592C152.28 19.9227 152.323 20.2747 152.376 20.648C152.397 20.776 152.461 20.8027 152.568 20.728C152.984 20.4933 153.432 20.2907 153.912 20.12C154.403 19.9493 154.931 19.8267 155.496 19.752C155.581 19.7307 155.629 19.688 155.64 19.624C155.779 19.2293 155.896 18.8613 155.992 18.52C156.099 18.168 156.189 17.8533 156.264 17.576C156.349 17.2773 156.547 17.128 156.856 17.128C157.027 17.128 157.171 17.1867 157.288 17.304C157.405 17.4213 157.464 17.5547 157.464 17.704C157.464 17.7467 157.453 17.8 157.432 17.864C157.379 18.0987 157.309 18.36 157.224 18.648C157.139 18.936 157.037 19.2453 156.92 19.576ZM153.432 24.04C153.453 24.0933 153.485 24.12 153.528 24.12C153.571 24.12 153.603 24.0987 153.624 24.056C154.061 23.3093 154.531 22.36 155.032 21.208C155.043 21.1867 155.048 21.1653 155.048 21.144C155.048 21.0587 155 21.0267 154.904 21.048C154.147 21.208 153.437 21.512 152.776 21.96C152.723 22.0027 152.701 22.0613 152.712 22.136C152.797 22.456 152.899 22.776 153.016 23.096C153.133 23.416 153.272 23.7307 153.432 24.04ZM150.536 24.664C150.397 25.144 150.328 25.5707 150.328 25.944C150.328 26.616 150.525 26.952 150.92 26.952C151.133 26.952 151.389 26.84 151.688 26.616C151.997 26.3813 152.339 26.0027 152.712 25.48C152.776 25.416 152.781 25.352 152.728 25.288C152.547 24.9787 152.371 24.6373 152.2 24.264C152.029 23.8907 151.875 23.4907 151.736 23.064C151.725 23.0107 151.693 22.984 151.64 22.984C151.597 22.984 151.555 23.0053 151.512 23.048C151.043 23.5813 150.717 24.12 150.536 24.664ZM170.776 29.32C170.093 29.32 169.549 29.224 169.144 29.032C168.749 28.84 168.467 28.5947 168.296 28.296C168.125 27.9973 168.04 27.6987 168.04 27.4C168.04 27.0693 168.115 26.7707 168.264 26.504C168.424 26.216 168.605 26.008 168.808 25.88C169.011 25.752 169.224 25.688 169.448 25.688C169.747 25.688 170.061 25.7893 170.392 25.992C170.723 26.184 171.059 26.4453 171.4 26.776C171.752 27.096 172.088 27.4533 172.408 27.848C172.451 27.912 172.515 27.9333 172.6 27.912C172.995 27.7627 173.363 27.5707 173.704 27.336C174.045 27.1013 174.333 26.8187 174.568 26.488C174.824 26.104 174.952 25.688 174.952 25.24C174.952 24.728 174.771 24.2587 174.408 23.832C174.056 23.4053 173.512 23.1493 172.776 23.064C172.669 23.0427 172.563 23.032 172.456 23.032C172.36 23.032 172.259 23.032 172.152 23.032C171.245 23.032 170.381 23.2453 169.56 23.672C168.749 24.0987 167.939 24.6747 167.128 25.4C167.011 25.5067 166.861 25.56 166.68 25.56C166.552 25.56 166.44 25.528 166.344 25.464C166.195 25.368 166.12 25.2293 166.12 25.048C166.12 24.952 166.147 24.8613 166.2 24.776C166.904 23.7307 167.635 22.7067 168.392 21.704C169.16 20.7013 169.933 19.7947 170.712 18.984C170.744 18.952 170.76 18.92 170.76 18.888C170.76 18.8453 170.717 18.8293 170.632 18.84C170.333 18.8827 169.981 18.92 169.576 18.952C169.181 18.984 168.776 19 168.36 19C168.221 19 168.088 19 167.96 19C167.832 19 167.704 18.9947 167.576 18.984C167.416 18.9733 167.283 18.9093 167.176 18.792C167.069 18.664 167.016 18.52 167.016 18.36C167.016 18.1893 167.08 18.0453 167.208 17.928C167.347 17.8107 167.501 17.7573 167.672 17.768C168.109 17.8 168.531 17.816 168.936 17.816C169.48 17.816 169.997 17.784 170.488 17.72C170.989 17.656 171.48 17.544 171.96 17.384C172.003 17.3627 172.04 17.352 172.072 17.352C172.115 17.352 172.157 17.352 172.2 17.352C172.317 17.352 172.429 17.384 172.536 17.448C172.653 17.512 172.733 17.6027 172.776 17.72C172.829 17.848 172.856 17.9653 172.856 18.072C172.856 18.3173 172.76 18.5253 172.568 18.696C171.832 19.3467 171.176 20.0027 170.6 20.664C170.024 21.3147 169.469 22.024 168.936 22.792C168.915 22.8347 168.904 22.8613 168.904 22.872C168.904 22.9573 168.963 22.9733 169.08 22.92C169.731 22.5787 170.349 22.3333 170.936 22.184C171.533 22.0347 172.088 21.96 172.6 21.96C173.485 21.96 174.227 22.1573 174.824 22.552C175.421 22.9467 175.821 23.4747 176.024 24.136C176.131 24.4667 176.184 24.8187 176.184 25.192C176.184 25.928 175.955 26.6107 175.496 27.24C175.048 27.8693 174.419 28.376 173.608 28.76C172.797 29.1333 171.853 29.32 170.776 29.32ZM171.16 28.2C171.235 28.2 171.272 28.1733 171.272 28.12C171.272 28.0773 171.256 28.0347 171.224 27.992C170.84 27.544 170.509 27.2347 170.232 27.064C169.965 26.8933 169.747 26.808 169.576 26.808C169.427 26.808 169.315 26.856 169.24 26.952C169.165 27.048 169.128 27.1547 169.128 27.272C169.128 27.304 169.128 27.336 169.128 27.368C169.139 27.4 169.149 27.432 169.16 27.464C169.267 27.7307 169.507 27.928 169.88 28.056C170.253 28.1733 170.68 28.2213 171.16 28.2Z" fill="#CEB599"/>
</svg>
