<svg width="142" height="35" viewBox="0 0 142 35" fill="none" xmlns="http://www.w3.org/2000/svg">
<rect x="0.5" y="0.5" width="141" height="34" rx="17" fill="white" stroke="#CEB599"/>
<path d="M59.416 14.192C58.9573 14.192 58.5573 14.0267 58.216 13.696C57.8853 13.3653 57.72 12.9653 57.72 12.496C57.72 12.0267 57.8853 11.6267 58.216 11.296C58.5573 10.9653 58.9573 10.8 59.416 10.8C59.8853 10.8 60.2853 10.9653 60.616 11.296C60.9467 11.6267 61.112 12.0267 61.112 12.496C61.112 12.9653 60.9467 13.3653 60.616 13.696C60.2853 14.0267 59.8853 14.192 59.416 14.192ZM59.416 11.44C59.128 11.44 58.8773 11.5467 58.664 11.76C58.4613 11.9627 58.36 12.208 58.36 12.496C58.36 12.7947 58.4613 13.0453 58.664 13.248C58.8773 13.4507 59.128 13.552 59.416 13.552C59.7147 13.552 59.9653 13.4507 60.168 13.248C60.3707 13.0453 60.472 12.7947 60.472 12.496C60.472 12.208 60.3707 11.9627 60.168 11.76C59.9653 11.5467 59.7147 11.44 59.416 11.44ZM60.104 15.824C59.6027 15.856 58.968 15.8827 58.2 15.904C57.432 15.9253 56.6213 15.9413 55.768 15.952C55.672 15.952 55.624 16 55.624 16.096V23.216C55.624 23.3867 55.56 23.536 55.432 23.664C55.3147 23.7813 55.1653 23.84 54.984 23.84C54.8133 23.84 54.664 23.7813 54.536 23.664C54.4187 23.536 54.36 23.3867 54.36 23.216V16.096C54.36 16 54.312 15.952 54.216 15.952H53.032C52.456 15.952 51.9013 15.9467 51.368 15.936C50.8453 15.9253 50.3653 15.9147 49.928 15.904C49.768 15.8933 49.6293 15.8293 49.512 15.712C49.4053 15.5947 49.352 15.4507 49.352 15.28C49.352 15.0987 49.4107 14.9493 49.528 14.832C49.656 14.7147 49.8107 14.6613 49.992 14.672C50.5893 14.6933 51.2507 14.7093 51.976 14.72C52.7013 14.7307 53.448 14.736 54.216 14.736C54.312 14.736 54.36 14.688 54.36 14.592V12.624C54.36 12.4533 54.4187 12.3093 54.536 12.192C54.664 12.064 54.8133 12 54.984 12C55.1653 12 55.3147 12.064 55.432 12.192C55.56 12.3093 55.624 12.4533 55.624 12.624V14.576C55.624 14.672 55.672 14.72 55.768 14.72C56.568 14.7093 57.3307 14.6987 58.056 14.688C58.792 14.6667 59.4373 14.6347 59.992 14.592C60.1733 14.5813 60.328 14.6347 60.456 14.752C60.5947 14.8693 60.664 15.0187 60.664 15.2C60.664 15.36 60.6107 15.4987 60.504 15.616C60.3973 15.7333 60.264 15.8027 60.104 15.824ZM52.776 17.952C52.9573 18.1013 53.048 18.288 53.048 18.512C53.048 18.6613 53 18.7947 52.904 18.912C52.6587 19.2213 52.3493 19.5733 51.976 19.968C51.6027 20.3627 51.208 20.752 50.792 21.136C50.3867 21.52 49.9973 21.8453 49.624 22.112C49.5173 22.1867 49.4053 22.224 49.288 22.224C49.0747 22.224 48.8987 22.128 48.76 21.936C48.696 21.84 48.664 21.728 48.664 21.6C48.664 21.3653 48.7547 21.184 48.936 21.056C49.288 20.7893 49.6453 20.4907 50.008 20.16C50.3813 19.8187 50.7333 19.4667 51.064 19.104C51.3947 18.7413 51.6773 18.4 51.912 18.08C52.0507 17.9093 52.2213 17.824 52.424 17.824C52.552 17.824 52.6693 17.8667 52.776 17.952ZM57.944 18.064L60.824 21.184C60.9413 21.3227 61 21.4613 61 21.6C61 21.7707 60.9307 21.9253 60.792 22.064C60.6533 22.1813 60.5147 22.24 60.376 22.24C60.2053 22.24 60.0507 22.1707 59.912 22.032L57.032 18.912C56.9147 18.7733 56.856 18.6347 56.856 18.496C56.856 18.3253 56.9253 18.1707 57.064 18.032C57.1813 17.9147 57.32 17.856 57.48 17.856C57.6507 17.856 57.8053 17.9253 57.944 18.064ZM69.88 24.352C69.816 24.384 69.7413 24.4 69.656 24.4C69.5173 24.4 69.3893 24.3467 69.272 24.24C69.1547 24.1333 69.096 23.9893 69.096 23.808C69.096 23.5413 69.224 23.3493 69.48 23.232C70.3333 22.848 71.048 22.3627 71.624 21.776C72.2 21.1787 72.664 20.528 73.016 19.824C73.368 19.12 73.6347 18.416 73.816 17.712C74.008 17.008 74.136 16.352 74.2 15.744C74.2213 15.5947 74.28 15.4773 74.376 15.392C74.4827 15.3067 74.6 15.264 74.728 15.264C74.9307 15.264 75.0907 15.344 75.208 15.504C75.3253 15.6533 75.3733 15.8187 75.352 16C75.1067 18.0907 74.504 19.8453 73.544 21.264C72.5947 22.6827 71.3733 23.712 69.88 24.352ZM70.424 18.784C70.1893 18.784 70.0293 18.6773 69.944 18.464C69.8053 18.1013 69.672 17.696 69.544 17.248C69.4267 16.7893 69.336 16.3413 69.272 15.904C69.2507 15.744 69.2933 15.6 69.4 15.472C69.5067 15.344 69.6453 15.28 69.816 15.28C69.944 15.28 70.0613 15.3227 70.168 15.408C70.2747 15.4933 70.3333 15.6053 70.344 15.744C70.408 16.1387 70.4933 16.5333 70.6 16.928C70.7173 17.3227 70.8293 17.6693 70.936 17.968C70.968 18.0427 70.984 18.1227 70.984 18.208C70.984 18.3467 70.936 18.48 70.84 18.608C70.744 18.7253 70.6053 18.784 70.424 18.784ZM68.36 19.568C68.2853 19.6107 68.1947 19.632 68.088 19.632C68.0027 19.632 67.9173 19.6107 67.832 19.568C67.7467 19.5147 67.6827 19.4453 67.64 19.36C67.4587 18.976 67.2827 18.544 67.112 18.064C66.9413 17.5733 66.808 17.1253 66.712 16.72C66.68 16.5493 66.7173 16.4 66.824 16.272C66.9413 16.1333 67.0853 16.064 67.256 16.064C67.544 16.064 67.7253 16.2133 67.8 16.512C67.8853 16.864 67.9973 17.2533 68.136 17.68C68.2853 18.096 68.4347 18.4747 68.584 18.816C68.6053 18.8587 68.6213 18.9013 68.632 18.944C68.6427 18.9867 68.648 19.0293 68.648 19.072C68.648 19.296 68.552 19.4613 68.36 19.568ZM92.648 14.096C92.1893 14.096 91.7893 13.9307 91.448 13.6C91.1173 13.2587 90.952 12.8587 90.952 12.4C90.952 11.9307 91.1173 11.5307 91.448 11.2C91.7893 10.8693 92.1893 10.704 92.648 10.704C93.1173 10.704 93.5173 10.8693 93.848 11.2C94.1787 11.5307 94.344 11.9307 94.344 12.4C94.344 12.8587 94.1787 13.2587 93.848 13.6C93.5173 13.9307 93.1173 14.096 92.648 14.096ZM92.648 13.456C92.9467 13.456 93.1973 13.3547 93.4 13.152C93.6027 12.9387 93.704 12.688 93.704 12.4C93.704 12.1013 93.6027 11.8507 93.4 11.648C93.1973 11.4453 92.9467 11.344 92.648 11.344C92.36 11.344 92.1093 11.4453 91.896 11.648C91.6933 11.8507 91.592 12.1013 91.592 12.4C91.592 12.688 91.6933 12.9387 91.896 13.152C92.1093 13.3547 92.36 13.456 92.648 13.456ZM84.152 24.128C84.0773 24.16 84.0027 24.176 83.928 24.176C83.64 24.176 83.4427 24.0427 83.336 23.776C83.304 23.6907 83.288 23.6107 83.288 23.536C83.288 23.2693 83.4213 23.072 83.688 22.944C85.3947 22.2187 86.76 21.3333 87.784 20.288C88.8187 19.2427 89.5653 17.952 90.024 16.416C90.088 16.2027 90.136 16.0053 90.168 15.824C90.2107 15.632 90.232 15.4667 90.232 15.328C90.232 15.008 90.1307 14.768 89.928 14.608C89.736 14.448 89.416 14.3413 88.968 14.288C88.7333 14.2667 88.4933 14.2507 88.248 14.24C88.0133 14.2187 87.768 14.208 87.512 14.208C86.7013 14.208 85.848 14.2667 84.952 14.384C84.056 14.5013 83.128 14.6667 82.168 14.88C81.9973 14.912 81.8373 14.8747 81.688 14.768C81.5387 14.6507 81.464 14.5013 81.464 14.32C81.464 14.1387 81.512 13.984 81.608 13.856C81.704 13.728 81.8373 13.6427 82.008 13.6C82.552 13.4827 83.1493 13.3813 83.8 13.296C84.4507 13.2107 85.112 13.1467 85.784 13.104C86.456 13.0507 87.0853 13.024 87.672 13.024C87.9493 13.024 88.216 13.0347 88.472 13.056C88.728 13.0667 88.9627 13.0827 89.176 13.104C89.7947 13.1787 90.2693 13.328 90.6 13.552C90.9307 13.776 91.16 14.0427 91.288 14.352C91.4267 14.6613 91.496 14.9867 91.496 15.328C91.496 15.5733 91.4693 15.824 91.416 16.08C91.3627 16.3253 91.304 16.5547 91.24 16.768C90.7173 18.4747 89.88 19.9253 88.728 21.12C87.576 22.3147 86.0507 23.3173 84.152 24.128Z" fill="#CEB599"/>
</svg>
