<svg width="147" height="131" viewBox="0 0 147 131" fill="none" xmlns="http://www.w3.org/2000/svg">
<path d="M73.3225 0C113.818 0 146.645 29.0562 146.645 64.9003C146.645 80.0239 140.782 93.9324 130.981 104.962L137.138 131L109.78 121.197C99.0354 126.658 86.6011 129.801 73.3225 129.801C32.8312 129.801 1.90735e-05 100.741 1.90735e-05 64.9003C1.90735e-05 29.0562 32.8312 0 73.3225 0Z" fill="#EED9DD"/>
<path d="M40.916 56.192C40.4573 56.192 40.0573 56.0267 39.716 55.696C39.3853 55.3653 39.22 54.9653 39.22 54.496C39.22 54.0267 39.3853 53.6267 39.716 53.296C40.0573 52.9653 40.4573 52.8 40.916 52.8C41.3853 52.8 41.7853 52.9653 42.116 53.296C42.4467 53.6267 42.612 54.0267 42.612 54.496C42.612 54.9653 42.4467 55.3653 42.116 55.696C41.7853 56.0267 41.3853 56.192 40.916 56.192ZM40.916 53.44C40.628 53.44 40.3773 53.5467 40.164 53.76C39.9613 53.9627 39.86 54.208 39.86 54.496C39.86 54.7947 39.9613 55.0453 40.164 55.248C40.3773 55.4507 40.628 55.552 40.916 55.552C41.2147 55.552 41.4653 55.4507 41.668 55.248C41.8707 55.0453 41.972 54.7947 41.972 54.496C41.972 54.208 41.8707 53.9627 41.668 53.76C41.4653 53.5467 41.2147 53.44 40.916 53.44ZM41.604 57.824C41.1027 57.856 40.468 57.8827 39.7 57.904C38.932 57.9253 38.1213 57.9413 37.268 57.952C37.172 57.952 37.124 58 37.124 58.096V65.216C37.124 65.3867 37.06 65.536 36.932 65.664C36.8147 65.7813 36.6653 65.84 36.484 65.84C36.3133 65.84 36.164 65.7813 36.036 65.664C35.9187 65.536 35.86 65.3867 35.86 65.216V58.096C35.86 58 35.812 57.952 35.716 57.952H34.532C33.956 57.952 33.4013 57.9467 32.868 57.936C32.3453 57.9253 31.8653 57.9147 31.428 57.904C31.268 57.8933 31.1293 57.8293 31.012 57.712C30.9053 57.5947 30.852 57.4507 30.852 57.28C30.852 57.0987 30.9107 56.9493 31.028 56.832C31.156 56.7147 31.3107 56.6613 31.492 56.672C32.0893 56.6933 32.7507 56.7093 33.476 56.72C34.2013 56.7307 34.948 56.736 35.716 56.736C35.812 56.736 35.86 56.688 35.86 56.592V54.624C35.86 54.4533 35.9187 54.3093 36.036 54.192C36.164 54.064 36.3133 54 36.484 54C36.6653 54 36.8147 54.064 36.932 54.192C37.06 54.3093 37.124 54.4533 37.124 54.624V56.576C37.124 56.672 37.172 56.72 37.268 56.72C38.068 56.7093 38.8307 56.6987 39.556 56.688C40.292 56.6667 40.9373 56.6347 41.492 56.592C41.6733 56.5813 41.828 56.6347 41.956 56.752C42.0947 56.8693 42.164 57.0187 42.164 57.2C42.164 57.36 42.1107 57.4987 42.004 57.616C41.8973 57.7333 41.764 57.8027 41.604 57.824ZM34.276 59.952C34.4573 60.1013 34.548 60.288 34.548 60.512C34.548 60.6613 34.5 60.7947 34.404 60.912C34.1587 61.2213 33.8493 61.5733 33.476 61.968C33.1027 62.3627 32.708 62.752 32.292 63.136C31.8867 63.52 31.4973 63.8453 31.124 64.112C31.0173 64.1867 30.9053 64.224 30.788 64.224C30.5747 64.224 30.3987 64.128 30.26 63.936C30.196 63.84 30.164 63.728 30.164 63.6C30.164 63.3653 30.2547 63.184 30.436 63.056C30.788 62.7893 31.1453 62.4907 31.508 62.16C31.8813 61.8187 32.2333 61.4667 32.564 61.104C32.8947 60.7413 33.1773 60.4 33.412 60.08C33.5507 59.9093 33.7213 59.824 33.924 59.824C34.052 59.824 34.1693 59.8667 34.276 59.952ZM39.444 60.064L42.324 63.184C42.4413 63.3227 42.5 63.4613 42.5 63.6C42.5 63.7707 42.4307 63.9253 42.292 64.064C42.1533 64.1813 42.0147 64.24 41.876 64.24C41.7053 64.24 41.5507 64.1707 41.412 64.032L38.532 60.912C38.4147 60.7733 38.356 60.6347 38.356 60.496C38.356 60.3253 38.4253 60.1707 38.564 60.032C38.6813 59.9147 38.82 59.856 38.98 59.856C39.1507 59.856 39.3053 59.9253 39.444 60.064ZM56.932 62.08C57.092 62.2187 57.172 62.3947 57.172 62.608C57.172 62.7573 57.1187 62.912 57.012 63.072C56.8947 63.2213 56.7453 63.296 56.564 63.296C56.404 63.296 56.2707 63.2427 56.164 63.136C55.4387 62.4427 54.6973 61.8453 53.94 61.344C53.8547 61.2907 53.7907 61.3013 53.748 61.376C53.0653 62.272 52.2867 63.104 51.412 63.872C50.5373 64.64 49.588 65.3173 48.564 65.904C48.4573 65.9573 48.356 65.984 48.26 65.984C48.0253 65.984 47.8387 65.872 47.7 65.648C47.6467 65.5413 47.62 65.44 47.62 65.344C47.62 65.0987 47.732 64.9067 47.956 64.768C48.8947 64.2347 49.748 63.632 50.516 62.96C51.2947 62.2773 51.9933 61.5413 52.612 60.752C52.6333 60.7307 52.644 60.6987 52.644 60.656C52.644 60.6027 52.6173 60.5707 52.564 60.56C51.6573 60.1013 50.6547 59.7387 49.556 59.472C49.2253 59.3867 49.06 59.1733 49.06 58.832C49.06 58.64 49.124 58.4853 49.252 58.368C49.3907 58.24 49.5453 58.176 49.716 58.176C49.78 58.176 49.828 58.1813 49.86 58.192C50.4573 58.3307 51.044 58.5173 51.62 58.752C52.2067 58.976 52.772 59.2267 53.316 59.504C53.3587 59.5253 53.3907 59.536 53.412 59.536C53.4547 59.536 53.492 59.5093 53.524 59.456C54.3987 58.048 55.06 56.4853 55.508 54.768C55.54 54.6187 55.6147 54.5013 55.732 54.416C55.86 54.3307 55.9933 54.288 56.132 54.288C56.3133 54.288 56.4627 54.352 56.58 54.48C56.708 54.608 56.772 54.7573 56.772 54.928C56.772 54.992 56.7667 55.04 56.756 55.072C56.5533 55.936 56.2707 56.7947 55.908 57.648C55.556 58.4907 55.1293 59.3067 54.628 60.096C54.6067 60.1387 54.596 60.1707 54.596 60.192C54.596 60.2347 54.6227 60.272 54.676 60.304C55.1027 60.5707 55.5027 60.8587 55.876 61.168C56.2493 61.4667 56.6013 61.7707 56.932 62.08ZM71.844 56.064H65.06C64.8893 56.064 64.7453 56.0053 64.628 55.888C64.5107 55.7707 64.452 55.6267 64.452 55.456C64.452 55.2853 64.5107 55.1413 64.628 55.024C64.7453 54.9067 64.8893 54.848 65.06 54.848H71.844C72.0147 54.848 72.1587 54.9067 72.276 55.024C72.404 55.1413 72.468 55.2853 72.468 55.456C72.468 55.6267 72.404 55.7707 72.276 55.888C72.1587 56.0053 72.0147 56.064 71.844 56.064ZM66.324 66.176C66.1427 66.208 65.9773 66.1653 65.828 66.048C65.6787 65.9307 65.604 65.7707 65.604 65.568C65.604 65.4187 65.652 65.2853 65.748 65.168C65.8547 65.0507 65.9827 64.976 66.132 64.944C67.1987 64.7093 68.1053 64.3733 68.852 63.936C69.5987 63.488 70.2173 62.9813 70.708 62.416C71.2093 61.84 71.5987 61.2587 71.876 60.672C71.9933 60.416 72.0893 60.1973 72.164 60.016C72.2387 59.8347 72.276 59.68 72.276 59.552C72.276 59.3707 72.1907 59.248 72.02 59.184C71.8493 59.12 71.5667 59.088 71.172 59.088C70.756 59.088 70.2013 59.12 69.508 59.184C68.8147 59.248 68.052 59.312 67.22 59.376C66.3987 59.44 65.572 59.472 64.74 59.472C64.6333 59.472 64.5267 59.472 64.42 59.472C64.3133 59.4613 64.2013 59.456 64.084 59.456C63.9133 59.4453 63.7693 59.3813 63.652 59.264C63.5347 59.136 63.476 58.9867 63.476 58.816C63.476 58.6347 63.54 58.4853 63.668 58.368C63.8067 58.24 63.9667 58.1867 64.148 58.208C64.3613 58.2187 64.5693 58.2293 64.772 58.24C64.9853 58.24 65.1933 58.24 65.396 58.24C66.612 58.24 67.732 58.1867 68.756 58.08C69.7907 57.9733 70.6653 57.92 71.38 57.92C72.1907 57.92 72.7507 58.0533 73.06 58.32C73.38 58.576 73.54 58.9173 73.54 59.344C73.54 59.6107 73.4867 59.9093 73.38 60.24C73.2733 60.5707 73.1347 60.912 72.964 61.264C72.6333 61.9467 72.1853 62.6187 71.62 63.28C71.0547 63.9307 70.34 64.512 69.476 65.024C68.612 65.5253 67.5613 65.9093 66.324 66.176ZM80.628 58.192C80.468 58.1707 80.3347 58.1067 80.228 58C80.132 57.8827 80.084 57.7493 80.084 57.6C80.084 57.408 80.1533 57.248 80.292 57.12C80.4307 56.992 80.5907 56.9387 80.772 56.96C81.316 56.992 81.9133 57.008 82.564 57.008C83.204 57.008 83.86 56.9973 84.532 56.976C85.204 56.9547 85.844 56.9333 86.452 56.912C87.0707 56.8907 87.6147 56.88 88.084 56.88C88.2547 56.88 88.3987 56.944 88.516 57.072C88.6333 57.1893 88.692 57.3333 88.692 57.504C88.692 57.6747 88.628 57.8187 88.5 57.936C88.3827 58.0533 88.2387 58.1173 88.068 58.128C87.6093 58.128 87.0707 58.1387 86.452 58.16C85.8333 58.1813 85.1827 58.2027 84.5 58.224C83.828 58.2453 83.172 58.256 82.532 58.256C82.18 58.256 81.844 58.2507 81.524 58.24C81.204 58.2293 80.9053 58.2133 80.628 58.192ZM79.284 65.056C79.124 65.0347 78.9907 64.96 78.884 64.832C78.788 64.704 78.74 64.5653 78.74 64.416C78.74 64.2027 78.8147 64.0427 78.964 63.936C79.1133 63.8187 79.284 63.7707 79.476 63.792C79.828 63.8347 80.2493 63.8667 80.74 63.888C81.2307 63.8987 81.7587 63.904 82.324 63.904C82.9533 63.904 83.6093 63.8987 84.292 63.888C84.9747 63.8667 85.6467 63.8453 86.308 63.824C86.9693 63.8027 87.5827 63.7813 88.148 63.76C88.724 63.7387 89.22 63.7227 89.636 63.712C89.828 63.712 89.988 63.7813 90.116 63.92C90.2547 64.048 90.324 64.208 90.324 64.4C90.324 64.5707 90.26 64.72 90.132 64.848C90.0147 64.9653 89.8653 65.024 89.684 65.024C87.9987 65.0133 86.4893 65.0347 85.156 65.088C83.8333 65.1413 82.66 65.168 81.636 65.168C81.1987 65.168 80.7827 65.1627 80.388 65.152C79.9933 65.1307 79.6253 65.0987 79.284 65.056ZM104.66 55.04C105.268 55.0613 105.705 55.2053 105.972 55.472C106.239 55.7387 106.372 56.0587 106.372 56.432C106.372 56.7413 106.281 57.0667 106.1 57.408C105.929 57.7387 105.689 58.032 105.38 58.288C105.113 58.512 104.756 58.7627 104.308 59.04C103.871 59.3173 103.407 59.5893 102.916 59.856C102.425 60.112 101.961 60.336 101.524 60.528C101.46 60.56 101.423 60.6133 101.412 60.688C101.295 61.7653 100.927 62.7627 100.308 63.68C99.7 64.5867 98.788 65.4027 97.572 66.128C97.4973 66.1813 97.396 66.208 97.268 66.208C97.0333 66.208 96.8573 66.1013 96.74 65.888C96.6867 65.7813 96.66 65.6853 96.66 65.6C96.66 65.3653 96.772 65.1787 96.996 65.04C97.86 64.5173 98.5267 63.968 98.996 63.392C99.4653 62.816 99.7907 62.2293 99.972 61.632C100.164 61.024 100.26 60.4267 100.26 59.84C100.26 59.4133 100.228 58.992 100.164 58.576C100.143 58.3947 100.185 58.24 100.292 58.112C100.409 57.984 100.559 57.92 100.74 57.92C100.9 57.92 101.044 57.9733 101.172 58.08C101.3 58.176 101.375 58.3093 101.396 58.48C101.417 58.576 101.428 58.6773 101.428 58.784C101.428 58.88 101.433 58.976 101.444 59.072C101.455 59.1787 101.513 59.216 101.62 59.184C101.972 59.024 102.34 58.8427 102.724 58.64C103.119 58.4267 103.481 58.2133 103.812 58C104.153 57.7867 104.415 57.5947 104.596 57.424C104.767 57.2747 104.889 57.136 104.964 57.008C105.039 56.8693 105.076 56.7467 105.076 56.64C105.076 56.5013 105.012 56.3893 104.884 56.304C104.767 56.2187 104.585 56.1813 104.34 56.192C103.743 56.2027 103.092 56.2453 102.388 56.32C101.684 56.384 100.959 56.4587 100.212 56.544C99.4653 56.6293 98.7293 56.704 98.004 56.768C97.2893 56.8213 96.612 56.848 95.972 56.848C95.8547 56.848 95.7373 56.848 95.62 56.848C95.5133 56.848 95.4067 56.8427 95.3 56.832C95.14 56.8213 95.0013 56.7573 94.884 56.64C94.7773 56.512 94.724 56.368 94.724 56.208C94.724 56.0267 94.788 55.8773 94.916 55.76C95.044 55.6427 95.1933 55.5893 95.364 55.6C95.5133 55.6107 95.668 55.616 95.828 55.616C95.988 55.616 96.1427 55.616 96.292 55.616C97.092 55.616 97.8867 55.584 98.676 55.52C99.476 55.456 100.244 55.3813 100.98 55.296C101.727 55.2107 102.415 55.1413 103.044 55.088C103.673 55.0347 104.212 55.0187 104.66 55.04ZM115.396 58.896C115.289 59.024 115.14 59.088 114.948 59.088C114.767 59.088 114.612 59.024 114.484 58.896C114.121 58.5547 113.7 58.2773 113.22 58.064C112.74 57.8507 112.228 57.7013 111.684 57.616C111.535 57.5947 111.401 57.5253 111.284 57.408C111.177 57.2907 111.124 57.152 111.124 56.992C111.124 56.7893 111.193 56.6187 111.332 56.48C111.471 56.3413 111.641 56.2827 111.844 56.304C112.537 56.4 113.199 56.608 113.828 56.928C114.468 57.2373 114.985 57.5627 115.38 57.904C115.529 58.032 115.604 58.1973 115.604 58.4C115.604 58.5707 115.535 58.736 115.396 58.896ZM111.86 65.568C111.679 65.6 111.513 65.5573 111.364 65.44C111.215 65.3227 111.14 65.168 111.14 64.976C111.14 64.816 111.188 64.672 111.284 64.544C111.391 64.4053 111.529 64.3147 111.7 64.272C112.415 64.1013 113.188 63.8507 114.02 63.52C114.852 63.1787 115.695 62.7467 116.548 62.224C117.401 61.7013 118.233 61.088 119.044 60.384C119.865 59.6693 120.617 58.8533 121.3 57.936C121.428 57.7653 121.599 57.68 121.812 57.68C121.983 57.68 122.116 57.7227 122.212 57.808C122.383 57.936 122.468 58.1173 122.468 58.352C122.468 58.512 122.425 58.6507 122.34 58.768C121.753 59.536 121.065 60.2827 120.276 61.008C119.497 61.7333 118.649 62.4 117.732 63.008C116.815 63.616 115.855 64.144 114.852 64.592C113.86 65.0293 112.863 65.3547 111.86 65.568ZM43.7156 90.824C42.809 90.2587 42.0516 89.576 41.4436 88.776C40.8463 87.976 40.393 87.1067 40.0836 86.168C39.785 85.2187 39.6356 84.2587 39.6356 83.288C39.6356 82.3067 39.785 81.3467 40.0836 80.408C40.393 79.4693 40.8463 78.6 41.4436 77.8C42.0516 76.9893 42.809 76.3067 43.7156 75.752C43.769 75.72 43.817 75.704 43.8596 75.704C43.9343 75.704 43.9983 75.7253 44.0516 75.768C44.105 75.8107 44.1316 75.8587 44.1316 75.912C44.1316 75.9653 44.1103 76.0133 44.0676 76.056C43.001 77.0053 42.201 78.1147 41.6676 79.384C41.145 80.6533 40.8836 81.9547 40.8836 83.288C40.8836 84.6107 41.145 85.912 41.6676 87.192C42.201 88.4613 43.001 89.5707 44.0676 90.52C44.1103 90.5627 44.1316 90.6053 44.1316 90.648C44.1316 90.7013 44.105 90.7493 44.0516 90.792C43.9983 90.8453 43.9343 90.872 43.8596 90.872C43.817 90.872 43.769 90.856 43.7156 90.824ZM52.404 78.152H56.804C56.9853 78.152 57.1347 78.216 57.252 78.344C57.38 78.4613 57.444 78.6107 57.444 78.792V83.176C57.444 83.3147 57.3907 83.4373 57.284 83.544C57.188 83.6507 57.0653 83.704 56.916 83.704C56.7773 83.704 56.6547 83.6507 56.548 83.544C56.452 83.4373 56.404 83.3147 56.404 83.176V80.168C56.404 80.104 56.3827 80.0667 56.34 80.056C56.308 80.0347 56.2707 80.0453 56.228 80.088L53.012 83.32C52.9587 83.3733 52.9533 83.4427 52.996 83.528C53.38 84.0827 53.572 84.7067 53.572 85.4C53.572 86.0187 53.4173 86.584 53.108 87.096C52.8093 87.5973 52.404 88.0027 51.892 88.312C51.3907 88.6107 50.8307 88.76 50.212 88.76C49.5933 88.76 49.028 88.6107 48.516 88.312C48.0147 88.0027 47.6093 87.5973 47.3 87.096C47.0013 86.584 46.852 86.0187 46.852 85.4C46.852 84.7813 47.0013 84.2213 47.3 83.72C47.6093 83.208 48.0147 82.8027 48.516 82.504C49.028 82.1947 49.5933 82.04 50.212 82.04C50.5533 82.04 50.8787 82.088 51.188 82.184C51.508 82.28 51.8013 82.4187 52.068 82.6C52.1533 82.6427 52.2227 82.6373 52.276 82.584L55.476 79.368C55.508 79.336 55.524 79.304 55.524 79.272C55.524 79.2187 55.4813 79.192 55.396 79.192H52.404C52.2653 79.192 52.1427 79.1387 52.036 79.032C51.94 78.9253 51.892 78.8027 51.892 78.664C51.892 78.5147 51.94 78.392 52.036 78.296C52.1427 78.2 52.2653 78.152 52.404 78.152ZM50.212 87.72C50.6387 87.72 51.028 87.6187 51.38 87.416C51.732 87.2027 52.0093 86.92 52.212 86.568C52.4253 86.216 52.532 85.8267 52.532 85.4C52.532 84.9733 52.4253 84.584 52.212 84.232C52.0093 83.88 51.732 83.6027 51.38 83.4C51.028 83.1867 50.6387 83.08 50.212 83.08C49.7853 83.08 49.396 83.1867 49.044 83.4C48.692 83.6027 48.4093 83.88 48.196 84.232C47.9933 84.584 47.892 84.9733 47.892 85.4C47.892 85.8267 47.9933 86.216 48.196 86.568C48.4093 86.92 48.692 87.2027 49.044 87.416C49.396 87.6187 49.7853 87.72 50.212 87.72ZM61.284 90.824C61.2413 90.856 61.188 90.872 61.124 90.872C60.9533 90.872 60.868 90.8027 60.868 90.664C60.868 90.6213 60.8893 90.5787 60.932 90.536C61.9987 89.576 62.7987 88.4613 63.332 87.192C63.8653 85.9227 64.132 84.6213 64.132 83.288C64.132 81.9547 63.8653 80.6533 63.332 79.384C62.7987 78.1147 61.9987 77.0053 60.932 76.056C60.8893 76.0133 60.868 75.9707 60.868 75.928C60.868 75.8747 60.8947 75.8267 60.948 75.784C61.0013 75.7307 61.0653 75.704 61.14 75.704C61.1933 75.704 61.2413 75.72 61.284 75.752C62.1907 76.3067 62.9427 76.9893 63.54 77.8C64.148 78.6 64.6013 79.4693 64.9 80.408C65.2093 81.3467 65.364 82.3067 65.364 83.288C65.364 84.2587 65.2093 85.2187 64.9 86.168C64.6013 87.1067 64.148 87.976 63.54 88.776C62.9427 89.576 62.1907 90.2587 61.284 90.824ZM81.1564 78.504C81.1777 78.568 81.1884 78.6213 81.1884 78.664C81.1884 78.856 81.103 78.984 80.9324 79.048C80.8684 79.0693 80.815 79.08 80.7724 79.08C80.6124 79.08 80.495 79 80.4204 78.84C80.1537 78.1573 79.7697 77.576 79.2684 77.096C79.1937 77.0213 79.1564 76.9307 79.1564 76.824C79.1564 76.7173 79.1884 76.632 79.2524 76.568C79.327 76.4933 79.423 76.456 79.5404 76.456C79.647 76.456 79.7377 76.488 79.8124 76.552C80.1324 76.8507 80.3937 77.1493 80.5964 77.448C80.799 77.7467 80.9857 78.0987 81.1564 78.504ZM75.1564 80.008C74.8577 80.1787 74.543 80.328 74.2124 80.456C73.8817 80.5733 73.535 80.6747 73.1724 80.76C73.1084 80.7707 73.0657 80.8187 73.0444 80.904C72.7457 82.3653 72.3297 83.7573 71.7964 85.08C71.2737 86.4027 70.6977 87.5867 70.0684 88.632C70.015 88.728 69.9404 88.8027 69.8444 88.856C69.7484 88.8987 69.6524 88.92 69.5564 88.92C69.4284 88.92 69.3164 88.888 69.2204 88.824C69.0177 88.7067 68.9164 88.5307 68.9164 88.296C68.9164 88.1787 68.9484 88.072 69.0124 87.976C70.303 85.8107 71.2097 83.5493 71.7324 81.192V81.16C71.7324 81.0747 71.6844 81.032 71.5884 81.032C71.183 81.0747 70.767 81.1067 70.3404 81.128C69.9244 81.1493 69.4977 81.1547 69.0604 81.144C68.9004 81.1333 68.7617 81.0747 68.6444 80.968C68.5377 80.8507 68.4844 80.712 68.4844 80.552C68.4844 80.3707 68.543 80.2213 68.6604 80.104C68.7884 79.9867 68.9377 79.9333 69.1084 79.944C69.2577 79.9547 69.4017 79.96 69.5404 79.96C69.679 79.96 69.8177 79.96 69.9564 79.96C70.287 79.96 70.6124 79.9493 70.9324 79.928C71.2524 79.9067 71.5617 79.8747 71.8604 79.832C71.9457 79.8213 71.9937 79.7733 72.0044 79.688C72.0684 79.304 72.1217 78.9093 72.1644 78.504C72.207 78.0987 72.239 77.6933 72.2604 77.288C72.271 77.128 72.335 76.9893 72.4524 76.872C72.5697 76.7547 72.7084 76.696 72.8684 76.696C73.0497 76.696 73.199 76.7547 73.3164 76.872C73.4444 76.9893 73.503 77.1387 73.4924 77.32C73.4817 77.6507 73.4604 77.9867 73.4284 78.328C73.407 78.6587 73.3697 78.9893 73.3164 79.32V79.352C73.3164 79.4693 73.3644 79.5013 73.4604 79.448C73.6417 79.3947 73.8124 79.3307 73.9724 79.256C74.143 79.1707 74.3084 79.0853 74.4684 79C74.5644 78.9467 74.6764 78.92 74.8044 78.92C75.0284 78.92 75.2044 79.0053 75.3324 79.176C75.3964 79.272 75.4284 79.384 75.4284 79.512C75.4284 79.7253 75.3377 79.8907 75.1564 80.008ZM79.0924 79.432C78.847 78.7707 78.4737 78.2213 77.9724 77.784C77.887 77.6987 77.8444 77.5973 77.8444 77.48C77.8444 77.3733 77.8764 77.2827 77.9404 77.208C78.0364 77.112 78.143 77.064 78.2604 77.064C78.3564 77.064 78.4417 77.1013 78.5164 77.176C79.071 77.6667 79.5137 78.3067 79.8444 79.096C79.8657 79.16 79.8764 79.208 79.8764 79.24C79.8764 79.432 79.7857 79.5707 79.6044 79.656C79.5404 79.6773 79.4924 79.688 79.4604 79.688C79.279 79.688 79.1564 79.6027 79.0924 79.432ZM74.7404 81.272C74.7404 81.1227 74.7884 80.9893 74.8844 80.872C74.9804 80.7547 75.1084 80.6907 75.2684 80.68C75.4604 80.6587 75.6524 80.6427 75.8444 80.632C76.047 80.6213 76.2497 80.616 76.4524 80.616C77.103 80.616 77.7324 80.6693 78.3404 80.776C78.959 80.8827 79.5137 81.0427 80.0044 81.256C80.1217 81.2987 80.207 81.3733 80.2604 81.48C80.3244 81.576 80.3564 81.6827 80.3564 81.8C80.3564 82.0027 80.2977 82.1573 80.1804 82.264C80.063 82.36 79.9297 82.408 79.7804 82.408C79.695 82.408 79.6097 82.392 79.5244 82.36C79.1084 82.168 78.639 82.0187 78.1164 81.912C77.6044 81.8053 77.0497 81.752 76.4524 81.752C76.2817 81.752 76.1004 81.7573 75.9084 81.768C75.727 81.7787 75.5457 81.7947 75.3644 81.816C75.2044 81.8373 75.0604 81.7947 74.9324 81.688C74.8044 81.5813 74.7404 81.4427 74.7404 81.272ZM80.0044 87.32C80.0364 87.3093 80.0897 87.304 80.1644 87.304C80.3137 87.304 80.447 87.352 80.5644 87.448C80.6817 87.544 80.7404 87.6827 80.7404 87.864C80.7404 88.0027 80.6977 88.136 80.6124 88.264C80.527 88.392 80.415 88.4773 80.2764 88.52C79.8817 88.6267 79.4924 88.7067 79.1084 88.76C78.735 88.8133 78.3617 88.84 77.9884 88.84C77.2097 88.84 76.4524 88.7227 75.7164 88.488C74.9804 88.2533 74.287 87.9227 73.6364 87.496C73.4657 87.3787 73.3804 87.2187 73.3804 87.016C73.3804 86.8987 73.423 86.7813 73.5084 86.664C73.6257 86.504 73.7857 86.424 73.9884 86.424C74.1164 86.424 74.2337 86.456 74.3404 86.52C74.8097 86.8187 75.343 87.0747 75.9404 87.288C76.5484 87.4907 77.2257 87.592 77.9724 87.592C78.2817 87.592 78.607 87.5707 78.9484 87.528C79.2897 87.4853 79.6417 87.416 80.0044 87.32ZM95.0924 87.192C95.2097 87.2667 95.295 87.3627 95.3484 87.48C95.4124 87.5867 95.4444 87.6987 95.4444 87.816C95.4444 87.9973 95.3857 88.1467 95.2684 88.264C95.1617 88.3707 95.0337 88.424 94.8844 88.424C94.799 88.424 94.7137 88.3973 94.6284 88.344C94.2657 88.1307 93.7964 87.8853 93.2204 87.608C92.655 87.32 92.0524 87.0747 91.4124 86.872C91.4017 86.872 91.391 86.872 91.3804 86.872C91.3804 86.8613 91.375 86.856 91.3644 86.856C91.2897 86.856 91.2524 86.904 91.2524 87C91.2417 87.4907 91.1084 87.9173 90.8524 88.28C90.607 88.6427 90.2817 88.92 89.8764 89.112C89.471 89.304 89.0337 89.4 88.5644 89.4C88.1057 89.4 87.6417 89.2987 87.1724 89.096C86.703 88.8933 86.2817 88.568 85.9084 88.12C85.663 87.8213 85.5404 87.48 85.5404 87.096C85.5404 86.776 85.6364 86.4667 85.8284 86.168C86.031 85.8587 86.3457 85.608 86.7724 85.416C87.2097 85.2133 87.7804 85.112 88.4844 85.112C88.6764 85.112 88.8844 85.1227 89.1084 85.144C89.3324 85.1547 89.567 85.1813 89.8124 85.224H89.8604C89.9457 85.224 89.9884 85.1813 89.9884 85.096C89.9777 84.872 89.9564 84.536 89.9244 84.088C89.903 83.64 89.871 83.1333 89.8284 82.568C89.7964 81.992 89.7537 81.3947 89.7004 80.776C89.6577 80.1467 89.6097 79.544 89.5564 78.968C89.503 78.3813 89.4497 77.8587 89.3964 77.4C89.375 77.2187 89.423 77.064 89.5404 76.936C89.6577 76.7973 89.8124 76.728 90.0044 76.728C90.1537 76.728 90.2817 76.776 90.3884 76.872C90.5057 76.968 90.575 77.0907 90.5964 77.24C90.6497 77.6027 90.703 78.0453 90.7564 78.568C90.8097 79.08 90.8577 79.6293 90.9004 80.216C90.9217 80.312 90.975 80.3547 91.0604 80.344C91.6364 80.2693 92.2124 80.1733 92.7884 80.056C93.3644 79.9387 93.8497 79.8267 94.2444 79.72C94.2764 79.7093 94.3297 79.704 94.4044 79.704C94.5537 79.704 94.687 79.752 94.8044 79.848C94.9217 79.944 94.9804 80.0827 94.9804 80.264C94.9804 80.4133 94.9377 80.552 94.8524 80.68C94.767 80.808 94.6497 80.8933 94.5004 80.936C94.0737 81.0533 93.5564 81.1707 92.9484 81.288C92.351 81.4053 91.7537 81.4907 91.1564 81.544C91.0604 81.5653 91.0177 81.6187 91.0284 81.704C91.071 82.3973 91.1084 83.0693 91.1404 83.72C91.183 84.36 91.215 84.92 91.2364 85.4C91.2364 85.4853 91.2737 85.5333 91.3484 85.544C91.7004 85.6293 92.1004 85.768 92.5484 85.96C92.9964 86.1413 93.4444 86.344 93.8924 86.568C94.351 86.7813 94.751 86.9893 95.0924 87.192ZM87.1724 87.592C87.3857 87.7627 87.6257 87.9013 87.8924 88.008C88.1697 88.104 88.4417 88.152 88.7084 88.152C89.0817 88.152 89.4017 88.0347 89.6684 87.8C89.935 87.5653 90.0577 87.176 90.0364 86.632C90.0364 86.5467 89.967 86.488 89.8284 86.456C89.327 86.3387 88.879 86.28 88.4844 86.28C87.9937 86.28 87.5884 86.3547 87.2684 86.504C86.959 86.6427 86.8044 86.8187 86.8044 87.032C86.8044 87.224 86.927 87.4107 87.1724 87.592ZM106.484 86.472C106.346 86.472 106.223 86.424 106.116 86.328C106.01 86.2213 105.956 86.0933 105.956 85.944L105.748 77.4C105.738 77.1973 105.807 77.0213 105.956 76.872C106.106 76.7227 106.282 76.648 106.484 76.648C106.698 76.648 106.874 76.7227 107.012 76.872C107.162 77.0213 107.231 77.1973 107.22 77.4L107.012 85.944C107.012 86.0933 106.959 86.2213 106.852 86.328C106.756 86.424 106.634 86.472 106.484 86.472ZM106.484 89.448C106.207 89.448 105.967 89.3467 105.764 89.144C105.572 88.952 105.476 88.7227 105.476 88.456C105.476 88.1787 105.572 87.944 105.764 87.752C105.967 87.5493 106.207 87.448 106.484 87.448C106.762 87.448 106.996 87.5493 107.188 87.752C107.391 87.944 107.492 88.1787 107.492 88.456C107.492 88.7227 107.391 88.952 107.188 89.144C106.996 89.3467 106.762 89.448 106.484 89.448Z" fill="#595252"/>
</svg>
