<svg width="140" height="130" viewBox="0 0 140 130" fill="none" xmlns="http://www.w3.org/2000/svg">
<path d="M70 0C31.3391 0 0 28.8344 0 64.4048C0 79.413 5.59683 93.2153 14.954 104.161L9.07647 130L35.194 120.272C45.4521 125.691 57.323 128.81 70 128.81C108.657 128.81 140 99.9715 140 64.4048C140 28.8344 108.657 0 70 0Z" fill="#EED9DD"/>
<path d="M41.2425 59.0085C41.4239 58.9872 41.5785 59.0405 41.7065 59.1685C41.8345 59.2965 41.8985 59.4512 41.8985 59.6325C41.8985 59.8138 41.8345 59.9632 41.7065 60.0805C41.5785 60.2085 41.4239 60.2672 41.2425 60.2565C40.8905 60.2245 40.5225 60.1978 40.1385 60.1765C39.7545 60.1552 39.3705 60.1445 38.9865 60.1445C38.6132 60.1445 38.2452 60.1552 37.8825 60.1765C37.5199 60.1978 37.1785 60.2245 36.8585 60.2565C36.6772 60.2672 36.5172 60.2085 36.3785 60.0805C36.2505 59.9632 36.1865 59.8138 36.1865 59.6325C36.1865 59.4512 36.2505 59.2965 36.3785 59.1685C36.5172 59.0405 36.6772 58.9872 36.8585 59.0085C37.3385 59.0512 37.8239 59.0832 38.3145 59.1045C38.4105 59.1045 38.4585 59.0565 38.4585 58.9605V50.2405C38.4585 50.1018 38.3999 50.0645 38.2825 50.1285L37.0345 50.7365C36.9492 50.7792 36.8585 50.8005 36.7625 50.8005C36.4959 50.8005 36.3039 50.6832 36.1865 50.4485C36.1759 50.3952 36.1599 50.3472 36.1385 50.3045C36.1279 50.2618 36.1225 50.2192 36.1225 50.1765C36.1225 49.9205 36.2452 49.7338 36.4905 49.6165L38.8425 48.4805C38.9172 48.4378 39.0025 48.4165 39.0985 48.4165C39.2585 48.4165 39.3972 48.4752 39.5145 48.5925C39.6425 48.6992 39.7065 48.8432 39.7065 49.0245V58.9605C39.7065 59.0565 39.7599 59.1045 39.8665 59.1045C40.3572 59.0832 40.8159 59.0512 41.2425 59.0085ZM48.1929 48.2725C49.0889 48.2725 49.8836 48.4912 50.5769 48.9285C51.2702 49.3552 51.8142 50.0058 52.2089 50.8805C52.6036 51.7552 52.8009 52.8485 52.8009 54.1605C52.8009 55.5365 52.6036 56.6778 52.2089 57.5845C51.8142 58.4805 51.2702 59.1525 50.5769 59.6005C49.8836 60.0378 49.0889 60.2565 48.1929 60.2565C47.2969 60.2565 46.5022 60.0378 45.8089 59.6005C45.1156 59.1525 44.5716 58.4805 44.1769 57.5845C43.7929 56.6778 43.6009 55.5365 43.6009 54.1605C43.6009 52.8485 43.7982 51.7552 44.1929 50.8805C44.5876 50.0058 45.1316 49.3552 45.8249 48.9285C46.5182 48.4912 47.3076 48.2725 48.1929 48.2725ZM48.1929 59.1045C48.8116 59.1045 49.3716 58.9285 49.8729 58.5765C50.3742 58.2138 50.7742 57.6698 51.0729 56.9445C51.3822 56.2192 51.5369 55.3018 51.5369 54.1925C51.5369 53.1365 51.3822 52.2565 51.0729 51.5525C50.7742 50.8485 50.3742 50.3205 49.8729 49.9685C49.3716 49.6165 48.8116 49.4405 48.1929 49.4405C47.5849 49.4405 47.0249 49.6165 46.5129 49.9685C46.0116 50.3205 45.6116 50.8485 45.3129 51.5525C45.0142 52.2565 44.8649 53.1365 44.8649 54.1925C44.8649 55.3018 45.0142 56.2192 45.3129 56.9445C45.6116 57.6698 46.0116 58.2138 46.5129 58.5765C47.0249 58.9285 47.5849 59.1045 48.1929 59.1045ZM58.6188 47.5045H65.0028C65.2695 47.5045 65.4935 47.6005 65.6748 47.7925C65.8668 47.9738 65.9628 48.1978 65.9628 48.4645V59.1525C65.9628 59.7072 65.8081 60.1232 65.4988 60.4005C65.2001 60.6885 64.6561 60.8325 63.8668 60.8325C63.7921 60.8325 63.7121 60.8325 63.6268 60.8325C63.5415 60.8325 63.4561 60.8272 63.3708 60.8165C63.2108 60.8058 63.0721 60.7365 62.9548 60.6085C62.8481 60.4912 62.7948 60.3578 62.7948 60.2085C62.7948 60.0272 62.8535 59.8778 62.9708 59.7605C63.0988 59.6432 63.2481 59.5898 63.4188 59.6005C63.5468 59.6112 63.6641 59.6165 63.7708 59.6165C63.8775 59.6165 63.9681 59.6165 64.0428 59.6165C64.3948 59.6165 64.6028 59.5845 64.6668 59.5205C64.7308 59.4458 64.7628 59.3232 64.7628 59.1525V56.2405C64.7628 56.1765 64.7308 56.1445 64.6668 56.1445H58.6348C58.5815 56.1445 58.5441 56.1765 58.5228 56.2405C58.4055 56.9978 58.2348 57.7392 58.0108 58.4645C57.7975 59.1792 57.5308 59.8672 57.2108 60.5285C57.1468 60.6458 57.0561 60.7365 56.9388 60.8005C56.8215 60.8645 56.6988 60.8965 56.5708 60.8965C56.5281 60.8965 56.4855 60.8912 56.4428 60.8805C56.4108 60.8805 56.3735 60.8752 56.3308 60.8645C56.0961 60.7898 55.9788 60.6245 55.9788 60.3685C55.9788 60.3258 55.9841 60.2832 55.9948 60.2405C56.0161 60.2085 56.0321 60.1712 56.0428 60.1285C56.5121 59.2005 56.8588 58.2618 57.0828 57.3125C57.3175 56.3632 57.4721 55.4352 57.5468 54.5285C57.6215 53.6112 57.6588 52.7525 57.6588 51.9525V48.4645C57.6588 48.1978 57.7495 47.9738 57.9308 47.7925C58.1228 47.6005 58.3521 47.5045 58.6188 47.5045ZM64.6668 51.2325C64.7308 51.2325 64.7628 51.2005 64.7628 51.1365V48.7845C64.7628 48.7205 64.7308 48.6885 64.6668 48.6885H58.9548C58.8908 48.6885 58.8588 48.7205 58.8588 48.7845V51.1365C58.8588 51.2005 58.8908 51.2325 58.9548 51.2325H64.6668ZM58.7148 54.8645C58.7041 54.9285 58.7308 54.9605 58.7948 54.9605H64.6668C64.7308 54.9605 64.7628 54.9285 64.7628 54.8645V52.5125C64.7628 52.4485 64.7308 52.4165 64.6668 52.4165H58.9548C58.8908 52.4165 58.8588 52.4485 58.8588 52.5125C58.8481 53.2912 58.8001 54.0752 58.7148 54.8645ZM75.8988 59.0085C76.0801 58.9872 76.2348 59.0405 76.3628 59.1685C76.4908 59.2965 76.5548 59.4512 76.5548 59.6325C76.5548 59.8138 76.4908 59.9632 76.3628 60.0805C76.2348 60.2085 76.0801 60.2672 75.8988 60.2565C75.5468 60.2245 75.1788 60.1978 74.7948 60.1765C74.4108 60.1552 74.0268 60.1445 73.6428 60.1445C73.2695 60.1445 72.9015 60.1552 72.5388 60.1765C72.1761 60.1978 71.8348 60.2245 71.5148 60.2565C71.3335 60.2672 71.1735 60.2085 71.0348 60.0805C70.9068 59.9632 70.8428 59.8138 70.8428 59.6325C70.8428 59.4512 70.9068 59.2965 71.0348 59.1685C71.1735 59.0405 71.3335 58.9872 71.5148 59.0085C71.9948 59.0512 72.4801 59.0832 72.9708 59.1045C73.0668 59.1045 73.1148 59.0565 73.1148 58.9605V50.2405C73.1148 50.1018 73.0561 50.0645 72.9388 50.1285L71.6908 50.7365C71.6055 50.7792 71.5148 50.8005 71.4188 50.8005C71.1521 50.8005 70.9601 50.6832 70.8428 50.4485C70.8321 50.3952 70.8161 50.3472 70.7948 50.3045C70.7841 50.2618 70.7788 50.2192 70.7788 50.1765C70.7788 49.9205 70.9015 49.7338 71.1468 49.6165L73.4988 48.4805C73.5735 48.4378 73.6588 48.4165 73.7548 48.4165C73.9148 48.4165 74.0535 48.4752 74.1708 48.5925C74.2988 48.6992 74.3628 48.8432 74.3628 49.0245V58.9605C74.3628 59.0565 74.4161 59.1045 74.5228 59.1045C75.0135 59.0832 75.4721 59.0512 75.8988 59.0085ZM82.8492 48.2725C83.7452 48.2725 84.5398 48.4912 85.2332 48.9285C85.9265 49.3552 86.4705 50.0058 86.8652 50.8805C87.2598 51.7552 87.4572 52.8485 87.4572 54.1605C87.4572 55.5365 87.2598 56.6778 86.8652 57.5845C86.4705 58.4805 85.9265 59.1525 85.2332 59.6005C84.5398 60.0378 83.7452 60.2565 82.8492 60.2565C81.9532 60.2565 81.1585 60.0378 80.4652 59.6005C79.7718 59.1525 79.2278 58.4805 78.8332 57.5845C78.4492 56.6778 78.2572 55.5365 78.2572 54.1605C78.2572 52.8485 78.4545 51.7552 78.8492 50.8805C79.2438 50.0058 79.7878 49.3552 80.4812 48.9285C81.1745 48.4912 81.9638 48.2725 82.8492 48.2725ZM82.8492 59.1045C83.4678 59.1045 84.0278 58.9285 84.5292 58.5765C85.0305 58.2138 85.4305 57.6698 85.7292 56.9445C86.0385 56.2192 86.1932 55.3018 86.1932 54.1925C86.1932 53.1365 86.0385 52.2565 85.7292 51.5525C85.4305 50.8485 85.0305 50.3205 84.5292 49.9685C84.0278 49.6165 83.4678 49.4405 82.8492 49.4405C82.2412 49.4405 81.6812 49.6165 81.1692 49.9685C80.6678 50.3205 80.2678 50.8485 79.9692 51.5525C79.6705 52.2565 79.5212 53.1365 79.5212 54.1925C79.5212 55.3018 79.6705 56.2192 79.9692 56.9445C80.2678 57.6698 80.6678 58.2138 81.1692 58.5765C81.6812 58.9285 82.2412 59.1045 82.8492 59.1045ZM92.475 47.8085H100.155C100.422 47.8085 100.646 47.9045 100.827 48.0965C101.019 48.2778 101.115 48.5018 101.115 48.7685V59.6485C101.115 59.9152 101.019 60.1392 100.827 60.3205C100.646 60.5125 100.422 60.6085 100.155 60.6085H92.475C92.2084 60.6085 91.979 60.5125 91.787 60.3205C91.6057 60.1392 91.515 59.9152 91.515 59.6485V48.7685C91.515 48.5018 91.6057 48.2778 91.787 48.0965C91.979 47.9045 92.2084 47.8085 92.475 47.8085ZM99.819 53.2965C99.883 53.2965 99.915 53.2645 99.915 53.2005V49.1045C99.915 49.0405 99.883 49.0085 99.819 49.0085H92.811C92.747 49.0085 92.715 49.0405 92.715 49.1045V53.2005C92.715 53.2645 92.747 53.2965 92.811 53.2965H99.819ZM92.811 54.4805C92.747 54.4805 92.715 54.5125 92.715 54.5765V59.3285C92.715 59.3925 92.747 59.4245 92.811 59.4245H99.819C99.883 59.4245 99.915 59.3925 99.915 59.3285V54.5765C99.915 54.5125 99.883 54.4805 99.819 54.4805H92.811ZM54.2988 82.1685C54.2988 82.2325 54.3308 82.2645 54.3948 82.2645H59.6268C59.7868 82.2645 59.9255 82.3232 60.0428 82.4405C60.1601 82.5472 60.2188 82.6858 60.2188 82.8565C60.2188 83.0165 60.1601 83.1552 60.0428 83.2725C59.9255 83.3898 59.7868 83.4485 59.6268 83.4485H47.6908C47.5308 83.4485 47.3921 83.3898 47.2748 83.2725C47.1575 83.1552 47.0988 83.0165 47.0988 82.8565C47.0988 82.6858 47.1575 82.5472 47.2748 82.4405C47.3921 82.3232 47.5308 82.2645 47.6908 82.2645H52.9868C53.0508 82.2645 53.0828 82.2325 53.0828 82.1685V78.8245C53.0828 78.7605 53.0508 78.7285 52.9868 78.7285H49.6108C49.4508 78.7285 49.3121 78.6752 49.1948 78.5685C49.0775 78.4512 49.0188 78.3072 49.0188 78.1365C49.0188 77.9765 49.0775 77.8378 49.1948 77.7205C49.3121 77.6032 49.4508 77.5445 49.6108 77.5445H52.9868C53.0508 77.5445 53.0828 77.5125 53.0828 77.4485V74.4885C53.0828 74.4245 53.0508 74.3925 52.9868 74.3925H49.6588C49.5948 74.3925 49.5575 74.4138 49.5468 74.4565C49.3121 74.8405 49.0615 75.2085 48.7948 75.5605C48.5281 75.9018 48.2401 76.2218 47.9308 76.5205C47.8241 76.6165 47.7015 76.6645 47.5628 76.6645C47.3708 76.6645 47.2161 76.5845 47.0988 76.4245C47.0135 76.3285 46.9708 76.2058 46.9708 76.0565C46.9708 75.8645 47.0401 75.6992 47.1788 75.5605C47.8508 74.8992 48.3948 74.1525 48.8108 73.3205C49.2375 72.4778 49.5308 71.6725 49.6908 70.9045C49.7228 70.7552 49.7921 70.6378 49.8988 70.5525C50.0055 70.4672 50.1228 70.4245 50.2508 70.4245C50.4428 70.4245 50.5975 70.4885 50.7148 70.6165C50.8428 70.7338 50.9068 70.8778 50.9068 71.0485C50.9068 71.1125 50.9015 71.1605 50.8908 71.1925C50.8161 71.4912 50.7255 71.8005 50.6188 72.1205C50.5228 72.4298 50.4001 72.7552 50.2508 73.0965C50.2188 73.1712 50.2455 73.2085 50.3308 73.2085H52.9868C53.0508 73.2085 53.0828 73.1765 53.0828 73.1125V70.7445C53.0828 70.5738 53.1415 70.4298 53.2588 70.3125C53.3761 70.1952 53.5201 70.1365 53.6908 70.1365C53.8615 70.1365 54.0055 70.1952 54.1228 70.3125C54.2401 70.4298 54.2988 70.5738 54.2988 70.7445V73.1125C54.2988 73.1765 54.3308 73.2085 54.3948 73.2085H58.4748C58.6348 73.2085 58.7735 73.2672 58.8908 73.3845C59.0081 73.5018 59.0668 73.6405 59.0668 73.8005C59.0668 73.9712 59.0081 74.1152 58.8908 74.2325C58.7735 74.3392 58.6348 74.3925 58.4748 74.3925H54.3948C54.3308 74.3925 54.2988 74.4245 54.2988 74.4885V77.4485C54.2988 77.5125 54.3308 77.5445 54.3948 77.5445H57.7068C57.8668 77.5445 58.0055 77.6032 58.1228 77.7205C58.2401 77.8378 58.2988 77.9765 58.2988 78.1365C58.2988 78.3072 58.2401 78.4512 58.1228 78.5685C58.0055 78.6752 57.8668 78.7285 57.7068 78.7285H54.3948C54.3308 78.7285 54.2988 78.7605 54.2988 78.8245V82.1685ZM74.4588 72.5525C74.6188 72.5525 74.7575 72.6112 74.8748 72.7285C74.9921 72.8352 75.0561 72.9685 75.0668 73.1285C75.0668 73.2885 75.0081 73.4272 74.8908 73.5445C74.7841 73.6618 74.6508 73.7258 74.4908 73.7365C74.0321 73.7578 73.4828 73.7898 72.8428 73.8325C72.2028 73.8645 71.5255 73.9072 70.8108 73.9605C70.7148 73.9712 70.6668 74.0245 70.6668 74.1205C70.6881 74.4085 70.6988 74.7018 70.6988 75.0005C70.7095 75.2992 70.7201 75.6032 70.7308 75.9125C70.7308 76.0085 70.7788 76.0512 70.8748 76.0405C71.8241 75.9552 72.7095 75.8432 73.5308 75.7045C73.7121 75.6725 73.8775 75.7152 74.0268 75.8325C74.1761 75.9392 74.2508 76.0938 74.2508 76.2965C74.2508 76.4352 74.2081 76.5632 74.1228 76.6805C74.0375 76.7872 73.9255 76.8512 73.7868 76.8725C73.3388 76.9472 72.8695 77.0165 72.3788 77.0805C71.8988 77.1338 71.4135 77.1765 70.9228 77.2085C70.8268 77.2192 70.7788 77.2725 70.7788 77.3685C70.8001 77.8058 70.8108 78.2272 70.8108 78.6325C70.8215 79.0378 70.8321 79.4005 70.8428 79.7205C70.8428 79.8165 70.8855 79.8698 70.9708 79.8805C71.4401 80.0085 71.9308 80.1738 72.4428 80.3765C72.9655 80.5685 73.5095 80.8032 74.0748 81.0805C74.3201 81.1978 74.4428 81.4005 74.4428 81.6885C74.4428 81.8805 74.3841 82.0298 74.2668 82.1365C74.1495 82.2432 74.0161 82.2965 73.8668 82.2965C73.7601 82.2965 73.6641 82.2752 73.5788 82.2325C73.1841 81.9978 72.7628 81.7738 72.3148 81.5605C71.8668 81.3472 71.4028 81.1605 70.9228 81.0005C70.9121 80.9898 70.8908 80.9845 70.8588 80.9845C70.7948 80.9845 70.7575 81.0218 70.7468 81.0965C70.6721 81.4485 70.5335 81.7898 70.3308 82.1205C70.1388 82.4405 69.8508 82.7072 69.4668 82.9205C69.0935 83.1232 68.5921 83.2245 67.9628 83.2245C67.3761 83.2245 66.8375 83.0752 66.3468 82.7765C65.8668 82.4672 65.5575 82.0672 65.4188 81.5765C65.3868 81.4485 65.3708 81.3312 65.3708 81.2245C65.3708 80.7338 65.6268 80.3232 66.1388 79.9925C66.6508 79.6512 67.3868 79.4805 68.3468 79.4805C68.5281 79.4805 68.7148 79.4858 68.9068 79.4965C69.0988 79.5072 69.2961 79.5285 69.4988 79.5605H69.5308C69.6161 79.5605 69.6588 79.5178 69.6588 79.4325C69.6481 79.1552 69.6375 78.8458 69.6268 78.5045C69.6268 78.1632 69.6161 77.8058 69.5948 77.4325C69.5948 77.3365 69.5468 77.2885 69.4508 77.2885C69.2481 77.2992 69.0455 77.3045 68.8428 77.3045C68.6508 77.3045 68.4641 77.3045 68.2828 77.3045C67.9095 77.3045 67.5521 77.2992 67.2108 77.2885C66.8695 77.2778 66.5548 77.2618 66.2668 77.2405C66.1175 77.2192 65.9895 77.1498 65.8828 77.0325C65.7761 76.9152 65.7228 76.7765 65.7228 76.6165C65.7228 76.4458 65.7868 76.3072 65.9148 76.2005C66.0428 76.0832 66.1921 76.0298 66.3628 76.0405C66.7148 76.0618 67.0615 76.0832 67.4028 76.1045C67.7548 76.1152 68.1068 76.1205 68.4588 76.1205C68.6188 76.1205 68.7788 76.1205 68.9388 76.1205C69.0988 76.1205 69.2588 76.1152 69.4188 76.1045C69.5148 76.1045 69.5628 76.0565 69.5628 75.9605C69.5521 75.6618 69.5415 75.3632 69.5308 75.0645C69.5201 74.7658 69.5041 74.4778 69.4828 74.2005C69.4828 74.0938 69.4348 74.0512 69.3388 74.0725C68.4535 74.1258 67.6055 74.1845 66.7948 74.2485C65.9948 74.3018 65.3441 74.3392 64.8428 74.3605C64.6721 74.3712 64.5281 74.3178 64.4108 74.2005C64.2935 74.0832 64.2348 73.9392 64.2348 73.7685C64.2348 73.6085 64.2881 73.4752 64.3948 73.3685C64.5015 73.2512 64.6348 73.1872 64.7948 73.1765C65.2961 73.1445 65.9468 73.1018 66.7468 73.0485C67.5468 72.9845 68.3948 72.9258 69.2908 72.8725C69.3868 72.8512 69.4348 72.7978 69.4348 72.7125C69.4241 72.4245 69.4081 72.1525 69.3868 71.8965C69.3761 71.6405 69.3708 71.4165 69.3708 71.2245C69.3708 71.0538 69.4295 70.9098 69.5468 70.7925C69.6641 70.6752 69.8081 70.6165 69.9788 70.6165C70.1281 70.6165 70.2561 70.6698 70.3628 70.7765C70.4801 70.8832 70.5441 71.0112 70.5548 71.1605C70.5655 71.3525 70.5761 71.5765 70.5868 71.8325C70.5975 72.0778 70.6081 72.3445 70.6188 72.6325C70.6188 72.7285 70.6828 72.7712 70.8108 72.7605C71.4935 72.7072 72.1495 72.6645 72.7788 72.6325C73.4081 72.5898 73.9681 72.5632 74.4588 72.5525ZM68.0908 82.0405C68.6241 82.0405 68.9975 81.9178 69.2108 81.6725C69.4348 81.4272 69.5735 81.1392 69.6268 80.8085V80.7765C69.6268 80.7125 69.5841 80.6698 69.4988 80.6485C69.2641 80.6165 69.0241 80.5898 68.7788 80.5685C68.5335 80.5472 68.2881 80.5472 68.0428 80.5685C67.5201 80.5792 67.1361 80.6538 66.8908 80.7925C66.6561 80.9205 66.5388 81.0698 66.5388 81.2405C66.5388 81.4325 66.6775 81.6138 66.9548 81.7845C67.2428 81.9552 67.6215 82.0405 68.0908 82.0405ZM92.4268 80.1685C92.5335 80.2752 92.5868 80.4138 92.5868 80.5845C92.5868 80.7552 92.5281 80.8938 92.4108 81.0005C92.1441 81.2352 91.8828 81.4432 91.6268 81.6245C91.3708 81.7952 91.1308 81.9392 90.9068 82.0565C90.7895 82.1205 90.6508 82.1738 90.4908 82.2165C90.3308 82.2592 90.1601 82.2805 89.9788 82.2805C89.6695 82.2805 89.3601 82.1898 89.0508 82.0085C88.7415 81.8165 88.4855 81.4805 88.2828 81.0005C88.0801 80.5205 87.9788 79.8485 87.9788 78.9845C87.9788 78.5472 88.0108 78.0458 88.0748 77.4805C88.1388 76.9152 88.2455 76.2912 88.3948 75.6085C88.4055 75.5552 88.4161 75.5018 88.4268 75.4485C88.4481 75.3845 88.4588 75.3205 88.4588 75.2565C88.4588 75.1498 88.4321 75.0592 88.3788 74.9845C88.3255 74.8992 88.2081 74.8565 88.0268 74.8565C87.9201 74.8565 87.7708 74.8832 87.5788 74.9365C87.3975 74.9898 87.1681 75.0752 86.8908 75.1925C86.3575 75.4272 85.8348 75.6938 85.3228 75.9925C84.8215 76.2805 84.3201 76.6165 83.8188 77.0005C83.7655 77.0538 83.7388 77.1125 83.7388 77.1765C83.7388 78.1258 83.7655 79.0805 83.8188 80.0405C83.8721 81.0005 83.9575 81.9178 84.0748 82.7925C84.0961 82.9632 84.0428 83.1232 83.9148 83.2725C83.7975 83.4218 83.6481 83.4965 83.4668 83.4965C83.3281 83.4965 83.2001 83.4485 83.0828 83.3525C82.9655 83.2565 82.8961 83.1338 82.8748 82.9845C82.8001 82.3872 82.7308 81.6992 82.6668 80.9205C82.6135 80.1312 82.5761 79.3045 82.5548 78.4405C82.5548 78.3765 82.5388 78.3392 82.5068 78.3285C82.4748 78.3072 82.4321 78.3232 82.3788 78.3765C82.1121 78.6752 81.8455 79.0058 81.5788 79.3685C81.3228 79.7312 81.0668 80.1258 80.8108 80.5525C80.7361 80.7445 80.6615 80.9365 80.5868 81.1285C80.5228 81.3098 80.4588 81.4965 80.3948 81.6885C80.3095 81.9552 80.1228 82.0885 79.8348 82.0885C79.6641 82.0885 79.5255 82.0298 79.4188 81.9125C79.3228 81.7845 79.2748 81.6512 79.2748 81.5125C79.2748 81.4805 79.2748 81.4485 79.2748 81.4165C79.2855 81.3845 79.2961 81.3525 79.3068 81.3205C79.6481 80.4138 80.1015 79.4432 80.6668 78.4085C81.2321 77.3632 81.8561 76.3498 82.5388 75.3685C82.5815 75.3152 82.6028 75.2565 82.6028 75.1925C82.6028 75.1285 82.5495 75.1072 82.4428 75.1285C82.0161 75.2138 81.5681 75.2885 81.0988 75.3525C80.6295 75.4058 80.1975 75.4432 79.8028 75.4645C79.6428 75.4752 79.5041 75.4218 79.3868 75.3045C79.2695 75.1872 79.2108 75.0485 79.2108 74.8885C79.2108 74.7285 79.2695 74.5898 79.3868 74.4725C79.5041 74.3552 79.6428 74.2965 79.8028 74.2965C80.1975 74.2752 80.6348 74.2432 81.1148 74.2005C81.5948 74.1578 82.0695 74.0832 82.5388 73.9765C82.6241 73.9658 82.6668 73.9125 82.6668 73.8165C82.7095 73.3152 82.7521 72.8352 82.7948 72.3765C82.8481 71.9178 82.9068 71.4858 82.9708 71.0805C82.9921 70.9418 83.0561 70.8298 83.1628 70.7445C83.2801 70.6592 83.4028 70.6165 83.5308 70.6165C83.7335 70.6165 83.8935 70.6965 84.0108 70.8565C84.1388 71.0058 84.1815 71.1712 84.1388 71.3525C84.0855 71.6725 84.0375 72.0245 83.9948 72.4085C83.9521 72.7925 83.9148 73.1925 83.8828 73.6085V73.6405C83.8828 73.7152 83.9308 73.7525 84.0268 73.7525C84.1761 73.7525 84.2988 73.7952 84.3948 73.8805C84.5335 73.9978 84.6028 74.1472 84.6028 74.3285C84.6028 74.4565 84.5548 74.5792 84.4588 74.6965C84.3521 74.8138 84.2455 74.9365 84.1388 75.0645C84.0428 75.1925 83.9415 75.3152 83.8348 75.4325C83.7921 75.4858 83.7708 75.5445 83.7708 75.6085C83.7708 75.6938 83.8295 75.6992 83.9468 75.6245C84.5548 75.1765 85.1521 74.8085 85.7388 74.5205C86.3361 74.2218 86.8801 74.0192 87.3708 73.9125C87.5521 73.8698 87.7175 73.8378 87.8668 73.8165C88.0268 73.7952 88.1761 73.7845 88.3148 73.7845C88.7521 73.7845 89.0828 73.8965 89.3068 74.1205C89.5415 74.3445 89.6588 74.6965 89.6588 75.1765C89.6588 75.4218 89.6268 75.7152 89.5628 76.0565C89.4241 76.7178 89.3175 77.3098 89.2428 77.8325C89.1788 78.3445 89.1468 78.7978 89.1468 79.1925C89.1468 79.8538 89.2321 80.3338 89.4028 80.6325C89.5735 80.9312 89.7975 81.0805 90.0748 81.0805C90.2881 81.0805 90.5228 81.0005 90.7788 80.8405C91.0455 80.6805 91.3175 80.4618 91.5948 80.1845C91.7121 80.0672 91.8561 80.0085 92.0268 80.0085C92.1868 80.0085 92.3201 80.0618 92.4268 80.1685Z" fill="#595252"/>
</svg>
