<svg width="159" height="141" viewBox="0 0 159 141" fill="none" xmlns="http://www.w3.org/2000/svg">
<path d="M79.2675 0C35.4881 0 0 31.2742 0 69.8545C0 86.1326 6.33781 101.103 16.9337 112.975L10.2781 141L39.8534 130.449C51.4697 136.327 64.9122 139.709 79.2675 139.709C123.042 139.709 158.535 108.431 158.535 69.8545C158.535 31.2742 123.042 0 79.2675 0Z" fill="#EED9DD"/>
<path d="M36.3035 61.904C36.2181 61.9467 36.1488 61.968 36.0955 61.968C35.9035 61.968 35.7701 61.8773 35.6955 61.696C35.6101 61.4933 35.5141 61.2907 35.4075 61.088C35.3008 60.8747 35.1888 60.6667 35.0715 60.464C35.0501 60.4213 35.0235 60.4053 34.9915 60.416C34.9701 60.416 34.9595 60.4427 34.9595 60.496V70.32C34.9595 70.48 34.9008 70.6187 34.7835 70.736C34.6768 70.8533 34.5435 70.912 34.3835 70.912C34.2128 70.912 34.0688 70.8533 33.9515 70.736C33.8448 70.6187 33.7915 70.48 33.7915 70.32V61.328C33.7915 61.3067 33.7808 61.296 33.7595 61.296C33.7381 61.2853 33.7221 61.2907 33.7115 61.312C33.6261 61.728 33.5141 62.112 33.3755 62.464C33.2368 62.816 33.0555 63.152 32.8315 63.472C32.7355 63.632 32.5915 63.712 32.3995 63.712C32.2928 63.712 32.1808 63.6747 32.0635 63.6C31.9035 63.4933 31.8235 63.344 31.8235 63.152C31.8235 63.0453 31.8555 62.944 31.9195 62.848C32.1648 62.4533 32.3515 62.0587 32.4795 61.664C32.6075 61.2587 32.6928 60.8427 32.7355 60.416C32.7568 60.288 32.8155 60.1813 32.9115 60.096C33.0075 60.0107 33.1141 59.968 33.2315 59.968C33.4448 59.968 33.6048 60.0587 33.7115 60.24C33.7648 60.3147 33.7915 60.3093 33.7915 60.224V57.744C33.7915 57.584 33.8448 57.4453 33.9515 57.328C34.0688 57.2107 34.2128 57.152 34.3835 57.152C34.5435 57.152 34.6768 57.2107 34.7835 57.328C34.9008 57.4453 34.9595 57.584 34.9595 57.744V59.12C34.9595 59.184 34.9968 59.2107 35.0715 59.2C35.1781 59.1787 35.2795 59.1893 35.3755 59.232C35.4821 59.2747 35.5621 59.3493 35.6155 59.456C35.7541 59.6907 35.9088 59.968 36.0795 60.288C36.2501 60.608 36.3995 60.9067 36.5275 61.184C36.5595 61.2587 36.5755 61.3333 36.5755 61.408C36.5755 61.6427 36.4848 61.808 36.3035 61.904ZM41.5675 69.424C41.5675 69.488 41.5995 69.52 41.6635 69.52H44.9275C45.0981 69.52 45.2421 69.5787 45.3595 69.696C45.4768 69.8027 45.5355 69.9413 45.5355 70.112C45.5355 70.272 45.4768 70.4107 45.3595 70.528C45.2421 70.6453 45.0981 70.704 44.9275 70.704H36.9435C36.7728 70.704 36.6288 70.6453 36.5115 70.528C36.4048 70.4107 36.3515 70.272 36.3515 70.112C36.3515 69.9413 36.4048 69.8027 36.5115 69.696C36.6288 69.5787 36.7728 69.52 36.9435 69.52H40.2715C40.3355 69.52 40.3675 69.488 40.3675 69.424V65.984C40.3675 65.92 40.3355 65.888 40.2715 65.888H38.0635C37.8928 65.888 37.7488 65.8293 37.6315 65.712C37.5248 65.5947 37.4715 65.456 37.4715 65.296C37.4715 65.136 37.5248 64.9973 37.6315 64.88C37.7488 64.7627 37.8928 64.704 38.0635 64.704H40.2715C40.3355 64.704 40.3675 64.672 40.3675 64.608V61.648C40.3675 61.584 40.3355 61.552 40.2715 61.552H38.2395C38.1755 61.552 38.1381 61.5733 38.1275 61.616C37.9568 61.9787 37.7648 62.3307 37.5515 62.672C37.3488 63.0027 37.1248 63.312 36.8795 63.6C36.7728 63.728 36.6341 63.792 36.4635 63.792C36.3141 63.792 36.1701 63.7333 36.0315 63.616C35.9141 63.4987 35.8555 63.3493 35.8555 63.168C35.8555 62.9973 35.9088 62.8533 36.0155 62.736C36.5168 62.1387 36.9221 61.472 37.2315 60.736C37.5408 59.9893 37.7595 59.2107 37.8875 58.4C37.9088 58.2507 37.9781 58.1333 38.0955 58.048C38.2128 57.952 38.3408 57.904 38.4795 57.904C38.6608 57.904 38.8101 57.9733 38.9275 58.112C39.0555 58.2507 39.1088 58.4107 39.0875 58.592C39.0448 58.8693 38.9861 59.1467 38.9115 59.424C38.8475 59.7013 38.7675 59.9787 38.6715 60.256C38.6501 60.3307 38.6768 60.368 38.7515 60.368H40.2715C40.3355 60.368 40.3675 60.336 40.3675 60.272V57.76C40.3675 57.6 40.4261 57.4613 40.5435 57.344C40.6608 57.2267 40.8048 57.168 40.9755 57.168C41.1355 57.168 41.2741 57.2267 41.3915 57.344C41.5088 57.4613 41.5675 57.6 41.5675 57.76V60.272C41.5675 60.336 41.5995 60.368 41.6635 60.368H44.5115C44.6821 60.368 44.8208 60.4267 44.9275 60.544C45.0448 60.6507 45.1035 60.7893 45.1035 60.96C45.1035 61.1307 45.0448 61.2747 44.9275 61.392C44.8208 61.4987 44.6821 61.552 44.5115 61.552H41.6635C41.5995 61.552 41.5675 61.584 41.5675 61.648V64.608C41.5675 64.672 41.5995 64.704 41.6635 64.704H43.9515C44.1115 64.704 44.2501 64.7627 44.3675 64.88C44.4848 64.9973 44.5435 65.136 44.5435 65.296C44.5435 65.456 44.4848 65.5947 44.3675 65.712C44.2501 65.8293 44.1115 65.888 43.9515 65.888H41.6635C41.5995 65.888 41.5675 65.92 41.5675 65.984V69.424ZM61.2795 65.088C61.4181 65.1307 61.5248 65.2107 61.5995 65.328C61.6741 65.4453 61.7115 65.568 61.7115 65.696C61.7115 65.8667 61.6528 66.0053 61.5355 66.112C61.4181 66.2187 61.2848 66.272 61.1355 66.272C61.1035 66.272 61.0448 66.2613 60.9595 66.24C60.2448 65.9947 59.5675 65.6533 58.9275 65.216C58.2875 64.7787 57.6955 64.2987 57.1515 63.776C57.1088 63.7333 57.0661 63.7333 57.0235 63.776C56.4048 64.3413 55.7435 64.8427 55.0395 65.28C54.3355 65.7173 53.6155 66.08 52.8795 66.368C52.8475 66.3787 52.8155 66.3893 52.7835 66.4C52.7515 66.4 52.7195 66.4 52.6875 66.4C52.5488 66.4 52.4208 66.3467 52.3035 66.24C52.1861 66.1333 52.1275 65.9947 52.1275 65.824C52.1275 65.5573 52.2555 65.36 52.5115 65.232C53.2368 64.9227 53.9088 64.5707 54.5275 64.176C55.1461 63.7813 55.7115 63.3547 56.2235 62.896C56.2768 62.8427 56.2768 62.7947 56.2235 62.752C55.9888 62.4427 55.7595 62.1333 55.5355 61.824C55.3221 61.5147 55.1301 61.2053 54.9595 60.896C54.9275 60.8213 54.8848 60.816 54.8315 60.88C54.5861 61.168 54.3301 61.44 54.0635 61.696C53.7968 61.952 53.5301 62.1813 53.2635 62.384C53.1888 62.448 53.0928 62.48 52.9755 62.48C52.7621 62.48 52.6021 62.3787 52.4955 62.176C52.4421 62.0693 52.4155 61.968 52.4155 61.872C52.4155 61.6373 52.5061 61.456 52.6875 61.328C53.3808 60.7947 53.9781 60.1707 54.4795 59.456C54.9808 58.7413 55.3755 58.064 55.6635 57.424C55.7701 57.1787 55.9568 57.056 56.2235 57.056C56.3941 57.056 56.5328 57.12 56.6395 57.248C56.7461 57.3653 56.7995 57.4987 56.7995 57.648C56.7995 57.7227 56.7835 57.8027 56.7515 57.888C56.7088 57.9733 56.6661 58.064 56.6235 58.16C56.5808 58.2453 56.5381 58.3307 56.4955 58.416C56.4741 58.448 56.4688 58.4747 56.4795 58.496C56.5008 58.5173 56.5275 58.528 56.5595 58.528H59.5035C59.6848 58.528 59.8395 58.592 59.9675 58.72C60.0955 58.848 60.1595 58.9973 60.1595 59.168C60.1595 59.2533 60.1435 59.3387 60.1115 59.424C59.8341 60.064 59.5141 60.6667 59.1515 61.232C58.7888 61.7973 58.3941 62.3253 57.9675 62.816C57.9248 62.8587 57.9248 62.9013 57.9675 62.944C58.4261 63.3813 58.9328 63.792 59.4875 64.176C60.0421 64.5493 60.6395 64.8533 61.2795 65.088ZM52.5115 64.336C52.5541 64.5067 52.5168 64.6667 52.3995 64.816C52.2928 64.9653 52.1488 65.04 51.9675 65.04C51.8608 65.04 51.7595 65.0027 51.6635 64.928C51.5675 64.8533 51.5088 64.7627 51.4875 64.656C51.4555 64.4853 51.4181 64.32 51.3755 64.16C51.3328 63.9893 51.2848 63.8293 51.2315 63.68C51.2208 63.6373 51.1995 63.6213 51.1675 63.632C51.1355 63.6427 51.1195 63.6693 51.1195 63.712V70.336C51.1195 70.496 51.0608 70.6293 50.9435 70.736C50.8368 70.8533 50.6981 70.912 50.5275 70.912C50.3675 70.912 50.2288 70.8533 50.1115 70.736C50.0048 70.6293 49.9515 70.496 49.9515 70.336V65.216C49.9515 65.1627 49.9355 65.136 49.9035 65.136C49.8821 65.1253 49.8608 65.1413 49.8395 65.184C49.7115 65.4613 49.5728 65.7387 49.4235 66.016C49.2848 66.2827 49.1355 66.5387 48.9755 66.784C48.8581 66.9653 48.6928 67.056 48.4795 67.056C48.3515 67.056 48.2341 67.0187 48.1275 66.944C47.9675 66.8267 47.8875 66.6667 47.8875 66.464C47.8875 66.3253 47.9248 66.2027 47.9995 66.096C48.3301 65.616 48.6181 65.104 48.8635 64.56C49.1195 64.0053 49.3275 63.4507 49.4875 62.896C49.6581 62.3413 49.7755 61.8187 49.8395 61.328C49.8608 61.264 49.8341 61.232 49.7595 61.232H48.5435C48.3835 61.232 48.2448 61.1787 48.1275 61.072C48.0208 60.9547 47.9675 60.816 47.9675 60.656C47.9675 60.496 48.0208 60.3627 48.1275 60.256C48.2448 60.1387 48.3835 60.08 48.5435 60.08H49.8555C49.9195 60.08 49.9515 60.048 49.9515 59.984V57.744C49.9515 57.584 50.0048 57.4453 50.1115 57.328C50.2288 57.2107 50.3675 57.152 50.5275 57.152C50.6981 57.152 50.8368 57.2107 50.9435 57.328C51.0608 57.4453 51.1195 57.584 51.1195 57.744V59.984C51.1195 60.048 51.1515 60.08 51.2155 60.08H52.1595C52.3195 60.08 52.4528 60.1387 52.5595 60.256C52.6768 60.3627 52.7355 60.496 52.7355 60.656C52.7355 60.816 52.6768 60.9547 52.5595 61.072C52.4528 61.1787 52.3195 61.232 52.1595 61.232H51.2795C51.1941 61.232 51.1675 61.2587 51.1995 61.312C51.4448 61.6427 51.6901 62.0747 51.9355 62.608C52.1808 63.1413 52.3728 63.7173 52.5115 64.336ZM55.7115 59.712C55.7115 59.7227 55.7115 59.7333 55.7115 59.744C55.7221 59.744 55.7275 59.7493 55.7275 59.76C56.0155 60.432 56.4528 61.152 57.0395 61.92C57.0821 61.984 57.1248 61.984 57.1675 61.92C57.4555 61.5787 57.7221 61.232 57.9675 60.88C58.2128 60.528 58.4315 60.1653 58.6235 59.792C58.6448 59.76 58.6448 59.7333 58.6235 59.712C58.6128 59.6907 58.5915 59.68 58.5595 59.68H55.8075C55.7861 59.68 55.7648 59.6853 55.7435 59.696C55.7221 59.7067 55.7115 59.712 55.7115 59.712ZM54.8155 65.648H59.0075C59.2741 65.648 59.4981 65.7387 59.6795 65.92C59.8715 66.1013 59.9675 66.3307 59.9675 66.608V69.808C59.9675 70.0747 59.8715 70.2987 59.6795 70.48C59.4981 70.672 59.2741 70.768 59.0075 70.768H54.8155C54.5488 70.768 54.3195 70.672 54.1275 70.48C53.9461 70.2987 53.8555 70.0747 53.8555 69.808V66.608C53.8555 66.3307 53.9461 66.1013 54.1275 65.92C54.3195 65.7387 54.5488 65.648 54.8155 65.648ZM55.0395 69.52C55.0395 69.584 55.0715 69.616 55.1355 69.616H58.6875C58.7515 69.616 58.7835 69.584 58.7835 69.52V66.896C58.7835 66.832 58.7515 66.8 58.6875 66.8H55.1355C55.0715 66.8 55.0395 66.832 55.0395 66.896V69.52ZM76.3195 68.272C76.4901 68.3787 76.5755 68.5387 76.5755 68.752C76.5755 68.88 76.5328 69.0027 76.4475 69.12C76.3408 69.28 76.1808 69.36 75.9675 69.36C75.8181 69.36 75.7008 69.3227 75.6155 69.248C75.3488 69.056 75.0608 68.8747 74.7515 68.704C74.4528 68.5333 74.1328 68.384 73.7915 68.256C73.7808 68.256 73.7701 68.256 73.7595 68.256C73.7595 68.2453 73.7541 68.24 73.7435 68.24C73.6901 68.24 73.6475 68.2827 73.6155 68.368C73.5621 68.6347 73.4448 68.9173 73.2635 69.216C73.0928 69.5147 72.8155 69.7707 72.4315 69.984C72.0475 70.1867 71.5248 70.288 70.8635 70.288C70.3195 70.288 69.8341 70.2027 69.4075 70.032C68.9915 69.8613 68.6608 69.632 68.4155 69.344C68.1808 69.0453 68.0635 68.7147 68.0635 68.352C68.0635 67.6907 68.3195 67.216 68.8315 66.928C69.3541 66.64 69.9941 66.496 70.7515 66.496C71.0075 66.496 71.2688 66.512 71.5355 66.544C71.8128 66.5653 72.0901 66.6027 72.3675 66.656H72.3995C72.4848 66.656 72.5275 66.6133 72.5275 66.528C72.5275 65.952 72.5115 65.3227 72.4795 64.64C72.4475 63.9573 72.4101 63.28 72.3675 62.608C72.3568 62.512 72.3035 62.464 72.2075 62.464C71.6528 62.4853 71.0768 62.5067 70.4795 62.528C69.8928 62.5493 69.3061 62.56 68.7195 62.56H68.1915C68.0208 62.56 67.8768 62.5013 67.7595 62.384C67.6528 62.2667 67.5995 62.1227 67.5995 61.952C67.5995 61.792 67.6581 61.6533 67.7755 61.536C67.8928 61.4187 68.0368 61.36 68.2075 61.36H68.8475C69.3701 61.36 69.9088 61.3547 70.4635 61.344C71.0181 61.3227 71.5675 61.3013 72.1115 61.28C72.2181 61.28 72.2608 61.232 72.2395 61.136C72.1968 60.624 72.1488 60.1493 72.0955 59.712C72.0421 59.264 71.9888 58.88 71.9355 58.56C71.9141 58.3787 71.9568 58.224 72.0635 58.096C72.1808 57.968 72.3248 57.904 72.4955 57.904C72.6448 57.904 72.7781 57.952 72.8955 58.048C73.0128 58.1333 73.0821 58.2507 73.1035 58.4C73.1568 58.7307 73.2101 59.1253 73.2635 59.584C73.3168 60.0427 73.3701 60.5387 73.4235 61.072C73.4448 61.168 73.4981 61.2107 73.5835 61.2C74.3515 61.168 75.0288 61.12 75.6155 61.056C75.7861 61.0347 75.9301 61.0827 76.0475 61.2C76.1755 61.3067 76.2395 61.4453 76.2395 61.616C76.2395 61.776 76.1861 61.9147 76.0795 62.032C75.9728 62.1493 75.8395 62.2187 75.6795 62.24C75.4021 62.2613 75.0928 62.288 74.7515 62.32C74.4101 62.3413 74.0528 62.3627 73.6795 62.384C73.5835 62.4053 73.5408 62.4587 73.5515 62.544C73.6048 63.2907 73.6475 64.0427 73.6795 64.8C73.7221 65.5573 73.7381 66.2507 73.7275 66.88C73.7275 66.9653 73.7755 67.024 73.8715 67.056C74.3195 67.216 74.7568 67.3973 75.1835 67.6C75.6101 67.8027 75.9888 68.0267 76.3195 68.272ZM66.4635 58.064C66.6448 58.064 66.7888 58.128 66.8955 58.256C67.0021 58.384 67.0555 58.5333 67.0555 58.704C67.0555 58.7253 67.0555 58.752 67.0555 58.784C67.0555 58.816 67.0501 58.8427 67.0395 58.864C66.8368 59.5573 66.6661 60.4 66.5275 61.392C66.3888 62.3733 66.3195 63.4293 66.3195 64.56C66.3195 65.3493 66.3621 66.16 66.4475 66.992C66.5435 67.8133 66.6928 68.6293 66.8955 69.44C66.9061 69.472 66.9115 69.504 66.9115 69.536C66.9221 69.5573 66.9275 69.5787 66.9275 69.6C66.9275 69.7707 66.8688 69.9147 66.7515 70.032C66.6448 70.1493 66.5008 70.208 66.3195 70.208C66.0315 70.208 65.8501 70.064 65.7755 69.776C65.5621 68.944 65.4021 68.064 65.2955 67.136C65.1888 66.1973 65.1355 65.2533 65.1355 64.304C65.1355 63.2907 65.1941 62.2827 65.3115 61.28C65.4395 60.2773 65.6368 59.3387 65.9035 58.464C65.9888 58.1973 66.1755 58.064 66.4635 58.064ZM70.8635 69.088C71.4608 69.088 71.8661 68.9867 72.0795 68.784C72.2928 68.5813 72.4208 68.3147 72.4635 67.984V67.952C72.4635 67.888 72.4261 67.8453 72.3515 67.824C72.0848 67.7707 71.8075 67.7333 71.5195 67.712C71.2315 67.68 70.9328 67.664 70.6235 67.664C70.1435 67.664 69.7968 67.728 69.5835 67.856C69.3701 67.9733 69.2635 68.112 69.2635 68.272C69.2635 68.464 69.4075 68.6507 69.6955 68.832C69.9835 69.0027 70.3728 69.088 70.8635 69.088ZM91.6635 66C91.7275 66.2027 91.7595 66.4427 91.7595 66.72C91.7595 67.0933 91.6795 67.4933 91.5195 67.92C91.3595 68.3467 91.0821 68.7467 90.6875 69.12C90.3035 69.4933 89.7755 69.7973 89.1035 70.032C88.4315 70.2773 87.5835 70.4 86.5595 70.4C86.4421 70.4 86.3195 70.4 86.1915 70.4C86.0741 70.4 85.9461 70.3947 85.8075 70.384C85.6581 70.3627 85.5301 70.2933 85.4235 70.176C85.3275 70.0693 85.2795 69.9467 85.2795 69.808C85.2795 69.6267 85.3435 69.4773 85.4715 69.36C85.6101 69.2427 85.7648 69.1947 85.9355 69.216C86.0528 69.2267 86.1648 69.232 86.2715 69.232C86.3888 69.232 86.5008 69.232 86.6075 69.232C87.5035 69.232 88.2501 69.12 88.8475 68.896C89.4555 68.672 89.9088 68.3787 90.2075 68.016C90.5061 67.6533 90.6555 67.2693 90.6555 66.864C90.6555 66.544 90.5648 66.2293 90.3835 65.92C90.2128 65.6107 89.9355 65.36 89.5515 65.168C89.1781 64.976 88.7461 64.88 88.2555 64.88C87.6795 64.88 87.0608 65.0453 86.3995 65.376C85.7488 65.7067 85.1301 66.2773 84.5435 67.088C84.4581 67.216 84.3461 67.312 84.2075 67.376C84.0795 67.44 83.9408 67.472 83.7915 67.472C83.5675 67.472 83.3808 67.392 83.2315 67.232C83.0928 67.0613 83.0288 66.8747 83.0395 66.672C83.1141 65.936 83.2208 65.1947 83.3595 64.448C83.4981 63.6907 83.6581 62.9493 83.8395 62.224C83.8395 62.2133 83.8395 62.208 83.8395 62.208C83.8501 62.1973 83.8555 62.1867 83.8555 62.176C83.8555 62.0907 83.8075 62.0587 83.7115 62.08C83.5728 62.0907 83.4341 62.096 83.2955 62.096C83.1675 62.096 83.0395 62.096 82.9115 62.096C82.7621 62.096 82.6128 62.096 82.4635 62.096C82.3141 62.0853 82.1648 62.0747 82.0155 62.064C81.8661 62.0533 81.7381 61.9947 81.6315 61.888C81.5355 61.7707 81.4875 61.6427 81.4875 61.504C81.4875 61.3333 81.5461 61.1893 81.6635 61.072C81.7808 60.9547 81.9248 60.896 82.0955 60.896H82.7675C82.9595 60.896 83.1675 60.896 83.3915 60.896C83.6155 60.8853 83.8501 60.8747 84.0955 60.864C84.1915 60.8533 84.2448 60.8107 84.2555 60.736C84.3941 60.2773 84.5328 59.8347 84.6715 59.408C84.8208 58.9707 84.9701 58.5387 85.1195 58.112C85.2261 57.856 85.4128 57.728 85.6795 57.728C85.8608 57.728 86.0048 57.792 86.1115 57.92C86.2288 58.048 86.2875 58.1867 86.2875 58.336C86.2875 58.368 86.2875 58.4053 86.2875 58.448C86.2875 58.48 86.2768 58.512 86.2555 58.544C86.1381 58.864 86.0208 59.1893 85.9035 59.52C85.7968 59.8507 85.6848 60.1867 85.5675 60.528C85.5675 60.5387 85.5621 60.5493 85.5515 60.56C85.5515 60.56 85.5515 60.5653 85.5515 60.576C85.5515 60.6507 85.5995 60.6827 85.6955 60.672C86.1968 60.5867 86.7088 60.48 87.2315 60.352C87.7648 60.2133 88.3035 60.0427 88.8475 59.84C88.9328 59.808 89.0075 59.792 89.0715 59.792C89.3381 59.792 89.5248 59.9147 89.6315 60.16C89.6635 60.2347 89.6795 60.3147 89.6795 60.4C89.6795 60.5067 89.6475 60.6133 89.5835 60.72C89.5301 60.816 89.4448 60.8853 89.3275 60.928C88.7195 61.1627 88.0635 61.3653 87.3595 61.536C86.6555 61.7067 85.9515 61.8347 85.2475 61.92C85.1621 61.9413 85.1141 61.984 85.1035 62.048C84.9328 62.6347 84.7835 63.2213 84.6555 63.808C84.5275 64.384 84.4208 64.9547 84.3355 65.52V65.536C84.3355 65.5893 84.3568 65.616 84.3995 65.616C84.4635 65.616 84.5435 65.568 84.6395 65.472C85.2581 64.8747 85.8928 64.4427 86.5435 64.176C87.2048 63.9093 87.8288 63.776 88.4155 63.776C89.1941 63.776 89.8768 63.9787 90.4635 64.384C91.0608 64.7787 91.4608 65.3173 91.6635 66ZM106.383 68.528C106.597 68.6453 106.703 68.8267 106.703 69.072C106.703 69.2427 106.65 69.3813 106.543 69.488C106.447 69.584 106.335 69.632 106.207 69.632C106.111 69.632 106.021 69.6053 105.935 69.552C105.658 69.3707 105.311 69.1733 104.895 68.96C104.479 68.736 104.037 68.5387 103.567 68.368C103.557 68.368 103.546 68.368 103.535 68.368C103.535 68.3573 103.53 68.352 103.519 68.352C103.455 68.352 103.413 68.4 103.391 68.496C103.338 69.1787 103.103 69.6693 102.687 69.968C102.282 70.256 101.829 70.4 101.327 70.4C100.623 70.4 99.9995 70.1973 99.4555 69.792C99.2208 69.6107 99.0395 69.408 98.9115 69.184C98.7835 68.96 98.7195 68.736 98.7195 68.512C98.7195 68.0853 98.9221 67.7067 99.3275 67.376C99.7435 67.0453 100.367 66.88 101.199 66.88C101.338 66.88 101.477 66.8853 101.615 66.896C101.765 66.9067 101.919 66.9227 102.079 66.944H102.111C102.197 66.944 102.239 66.9013 102.239 66.816C102.218 66.3893 102.191 65.9147 102.159 65.392C102.127 64.8587 102.09 64.32 102.047 63.776C102.005 63.2213 101.962 62.6987 101.919 62.208C101.877 61.7173 101.834 61.3013 101.791 60.96C101.77 60.7787 101.818 60.6187 101.935 60.48C102.053 60.3413 102.202 60.272 102.383 60.272C102.511 60.272 102.623 60.3147 102.719 60.4C102.826 60.4853 102.885 60.592 102.895 60.72C102.938 60.9973 102.975 61.328 103.007 61.712C103.039 62.0853 103.077 62.4853 103.119 62.912C103.141 63.008 103.194 63.0507 103.279 63.04C103.695 62.9867 104.117 62.9227 104.543 62.848C104.981 62.7627 105.359 62.6773 105.679 62.592C105.743 62.5707 105.797 62.56 105.839 62.56C105.989 62.56 106.111 62.6133 106.207 62.72C106.314 62.816 106.367 62.9387 106.367 63.088C106.367 63.2267 106.325 63.3547 106.239 63.472C106.165 63.5893 106.058 63.664 105.919 63.696C105.589 63.7813 105.189 63.872 104.719 63.968C104.261 64.0533 103.807 64.1227 103.359 64.176C103.263 64.1973 103.221 64.2507 103.231 64.336C103.263 64.8587 103.295 65.36 103.327 65.84C103.359 66.32 103.381 66.7413 103.391 67.104C103.391 67.1787 103.418 67.2267 103.471 67.248C103.706 67.312 103.989 67.4133 104.319 67.552C104.661 67.6907 105.013 67.8453 105.375 68.016C105.738 68.176 106.074 68.3467 106.383 68.528ZM101.407 69.264C101.727 69.264 101.951 69.1787 102.079 69.008C102.207 68.8267 102.277 68.5547 102.287 68.192C102.287 68.1067 102.245 68.0533 102.159 68.032C101.978 67.9893 101.807 67.9627 101.647 67.952C101.487 67.9307 101.333 67.92 101.183 67.92C100.778 67.92 100.458 67.9787 100.223 68.096C99.9888 68.2027 99.8715 68.3413 99.8715 68.512C99.8715 68.6293 99.9515 68.7467 100.111 68.864C100.271 68.9813 100.469 69.0773 100.703 69.152C100.938 69.2267 101.173 69.264 101.407 69.264ZM116.479 69.088C116.042 69.088 115.61 68.944 115.183 68.656C114.767 68.3573 114.389 67.9467 114.047 67.424C113.717 66.9013 113.45 66.2987 113.247 65.616C113.045 64.9227 112.943 64.1813 112.943 63.392C112.943 62.848 112.997 62.2933 113.103 61.728C113.221 61.152 113.402 60.5707 113.647 59.984C113.743 59.7493 113.93 59.632 114.207 59.632C114.389 59.632 114.533 59.696 114.639 59.824C114.746 59.952 114.799 60.0907 114.799 60.24C114.799 60.3147 114.783 60.3947 114.751 60.48C114.517 61.0027 114.346 61.5147 114.239 62.016C114.143 62.5173 114.095 63.0027 114.095 63.472C114.095 64.1013 114.17 64.688 114.319 65.232C114.469 65.7653 114.661 66.2347 114.895 66.64C115.141 67.0347 115.402 67.344 115.679 67.568C115.957 67.7813 116.223 67.888 116.479 67.888C116.693 67.888 116.885 67.8027 117.055 67.632C117.226 67.4507 117.349 67.1787 117.423 66.816C117.455 66.656 117.53 66.5227 117.647 66.416C117.775 66.3093 117.919 66.256 118.079 66.256C118.261 66.256 118.41 66.3307 118.527 66.48C118.655 66.6187 118.698 66.7787 118.655 66.96C118.485 67.728 118.207 68.2773 117.823 68.608C117.45 68.928 117.002 69.088 116.479 69.088ZM124.079 66.064C123.866 66.064 123.695 65.9893 123.567 65.84C123.45 65.68 123.391 65.4987 123.391 65.296C123.391 64.5387 123.194 63.872 122.799 63.296C122.405 62.7093 121.797 62.304 120.975 62.08C120.805 62.0267 120.666 61.9307 120.559 61.792C120.463 61.6427 120.437 61.4827 120.479 61.312C120.522 61.152 120.602 61.024 120.719 60.928C120.847 60.832 120.981 60.784 121.119 60.784C121.141 60.784 121.167 60.784 121.199 60.784C121.231 60.784 121.258 60.7893 121.279 60.8C121.909 60.96 122.49 61.264 123.023 61.712C123.567 62.1493 123.999 62.6933 124.319 63.344C124.639 63.9947 124.767 64.72 124.703 65.52C124.693 65.68 124.623 65.8133 124.495 65.92C124.378 66.016 124.239 66.064 124.079 66.064ZM45.1995 93.256C45.1248 93.288 45.0448 93.304 44.9595 93.304C44.8101 93.304 44.6715 93.2453 44.5435 93.128C44.4155 93.0107 44.3515 92.856 44.3515 92.664C44.3515 92.376 44.4901 92.1733 44.7675 92.056C45.6635 91.672 46.4368 91.1973 47.0875 90.632C47.7381 90.0667 48.2875 89.448 48.7355 88.776C49.1835 88.104 49.5515 87.4053 49.8395 86.68C50.1275 85.9547 50.3461 85.24 50.4955 84.536C50.6448 83.832 50.7515 83.176 50.8155 82.568C50.8368 82.408 50.9008 82.2747 51.0075 82.168C51.1248 82.0613 51.2581 82.008 51.4075 82.008C51.6101 82.008 51.7808 82.088 51.9195 82.248C52.0581 82.408 52.1168 82.5893 52.0955 82.792C51.9355 84.328 51.5781 85.784 51.0235 87.16C50.4688 88.536 49.7061 89.752 48.7355 90.808C47.7755 91.864 46.5968 92.68 45.1995 93.256ZM46.3355 86.28C46.2928 86.2907 46.2501 86.3067 46.2075 86.328C46.1648 86.3387 46.1221 86.344 46.0795 86.344C45.8235 86.344 45.6421 86.2213 45.5355 85.976C45.3755 85.56 45.2101 85.0587 45.0395 84.472C44.8795 83.8853 44.7568 83.2933 44.6715 82.696C44.6501 82.5147 44.6981 82.3547 44.8155 82.216C44.9328 82.0773 45.0875 82.008 45.2795 82.008C45.4288 82.008 45.5621 82.0613 45.6795 82.168C45.7968 82.264 45.8661 82.3973 45.8875 82.568C45.9621 83.0587 46.0635 83.56 46.1915 84.072C46.3301 84.584 46.4795 85.0427 46.6395 85.448C46.6715 85.5227 46.6875 85.6133 46.6875 85.72C46.6875 85.8267 46.6555 85.9333 46.5915 86.04C46.5381 86.1467 46.4528 86.2267 46.3355 86.28ZM43.1675 87.4C42.9115 87.4 42.7355 87.2933 42.6395 87.08C42.4048 86.5893 42.1755 86.0347 41.9515 85.416C41.7381 84.7867 41.5728 84.2107 41.4555 83.688C41.4448 83.656 41.4395 83.6133 41.4395 83.56C41.4395 83.4 41.4981 83.2613 41.6155 83.144C41.7435 83.016 41.8928 82.952 42.0635 82.952C42.2128 82.952 42.3408 83 42.4475 83.096C42.5541 83.192 42.6235 83.3147 42.6555 83.464C42.7621 83.9227 42.9115 84.4293 43.1035 84.984C43.2955 85.528 43.4981 86.0187 43.7115 86.456C43.7541 86.5413 43.7755 86.6427 43.7755 86.76C43.7755 86.92 43.7221 87.0693 43.6155 87.208C43.5088 87.336 43.3595 87.4 43.1675 87.4ZM61.6635 85.896C61.5568 86.024 61.4075 86.088 61.2155 86.088C61.0341 86.088 60.8795 86.024 60.7515 85.896C60.3888 85.5547 59.9675 85.2773 59.4875 85.064C59.0075 84.8507 58.4955 84.7013 57.9515 84.616C57.8021 84.5947 57.6688 84.5253 57.5515 84.408C57.4448 84.2907 57.3915 84.152 57.3915 83.992C57.3915 83.7893 57.4608 83.6187 57.5995 83.48C57.7381 83.3413 57.9088 83.2827 58.1115 83.304C58.8048 83.4 59.4661 83.608 60.0955 83.928C60.7355 84.2373 61.2528 84.5627 61.6475 84.904C61.7968 85.032 61.8715 85.1973 61.8715 85.4C61.8715 85.5707 61.8021 85.736 61.6635 85.896ZM58.1275 92.568C57.9461 92.6 57.7808 92.5573 57.6315 92.44C57.4821 92.3227 57.4075 92.168 57.4075 91.976C57.4075 91.816 57.4555 91.672 57.5515 91.544C57.6581 91.4053 57.7968 91.3147 57.9675 91.272C58.6821 91.1013 59.4555 90.8507 60.2875 90.52C61.1195 90.1787 61.9621 89.7467 62.8155 89.224C63.6688 88.7013 64.5008 88.088 65.3115 87.384C66.1328 86.6693 66.8848 85.8533 67.5675 84.936C67.6955 84.7653 67.8661 84.68 68.0795 84.68C68.2501 84.68 68.3835 84.7227 68.4795 84.808C68.6501 84.936 68.7355 85.1173 68.7355 85.352C68.7355 85.512 68.6928 85.6507 68.6075 85.768C68.0208 86.536 67.3328 87.2827 66.5435 88.008C65.7648 88.7333 64.9168 89.4 63.9995 90.008C63.0821 90.616 62.1221 91.144 61.1195 91.592C60.1275 92.0293 59.1301 92.3547 58.1275 92.568ZM85.7435 82.056C85.7861 82.1093 85.8075 82.184 85.8075 82.28C85.8075 82.4293 85.7435 82.5467 85.6155 82.632C85.5835 82.6427 85.5515 82.6587 85.5195 82.68C85.4875 82.6907 85.4501 82.696 85.4075 82.696C85.2688 82.696 85.1568 82.632 85.0715 82.504C84.9008 82.248 84.7035 81.976 84.4795 81.688C84.2555 81.4 84.0368 81.1547 83.8235 80.952C83.7488 80.8773 83.7115 80.7813 83.7115 80.664C83.7115 80.5467 83.7488 80.456 83.8235 80.392C83.9088 80.3067 84.0155 80.264 84.1435 80.264C84.2501 80.264 84.3408 80.3013 84.4155 80.376C84.6608 80.6107 84.8955 80.8773 85.1195 81.176C85.3541 81.4747 85.5621 81.768 85.7435 82.056ZM83.1675 81.016C83.4128 81.2507 83.6528 81.5227 83.8875 81.832C84.1328 82.1413 84.3515 82.4453 84.5435 82.744C84.5861 82.7973 84.6075 82.872 84.6075 82.968C84.6075 83.1173 84.5435 83.2347 84.4155 83.32C84.3621 83.3627 84.2928 83.384 84.2075 83.384C84.0581 83.384 83.9408 83.32 83.8555 83.192C83.6848 82.936 83.4821 82.6587 83.2475 82.36C83.0235 82.0613 82.8048 81.8107 82.5915 81.608C82.5061 81.5227 82.4635 81.4213 82.4635 81.304C82.4635 81.1973 82.5008 81.1067 82.5755 81.032C82.6501 80.9467 82.7515 80.904 82.8795 80.904C82.9968 80.904 83.0928 80.9413 83.1675 81.016ZM75.1195 83.544C74.9488 83.5547 74.8048 83.5013 74.6875 83.384C74.5701 83.2667 74.5115 83.128 74.5115 82.968C74.5115 82.7867 74.5701 82.6373 74.6875 82.52C74.8048 82.392 74.9488 82.328 75.1195 82.328C75.5888 82.3067 76.1701 82.2907 76.8635 82.28C77.5675 82.2693 78.2875 82.264 79.0235 82.264C79.6208 82.264 80.1968 82.2693 80.7515 82.28C81.3061 82.2907 81.7755 82.3067 82.1595 82.328C82.3301 82.3387 82.4688 82.408 82.5755 82.536C82.6928 82.6533 82.7515 82.7973 82.7515 82.968C82.7515 83.1387 82.6928 83.2827 82.5755 83.4C82.4581 83.5173 82.3088 83.5707 82.1275 83.56C81.7221 83.5387 81.2048 83.5227 80.5755 83.512C79.9568 83.5013 79.3168 83.496 78.6555 83.496C77.9835 83.496 77.3328 83.5013 76.7035 83.512C76.0848 83.512 75.5568 83.5227 75.1195 83.544ZM83.9355 85.64C84.0955 85.64 84.2341 85.6987 84.3515 85.816C84.4688 85.9333 84.5275 86.072 84.5275 86.232C84.5275 86.4027 84.4688 86.552 84.3515 86.68C84.2341 86.7973 84.0901 86.856 83.9195 86.856H79.9035C79.8075 86.856 79.7595 86.904 79.7595 87C79.7701 88.0773 79.6528 88.9947 79.4075 89.752C79.1728 90.4987 78.8315 91.144 78.3835 91.688C77.9461 92.2213 77.4288 92.7173 76.8315 93.176C76.7461 93.2507 76.6341 93.288 76.4955 93.288C76.2821 93.288 76.1168 93.192 75.9995 93C75.9355 92.8827 75.9035 92.7707 75.9035 92.664C75.9035 92.4187 75.9995 92.232 76.1915 92.104C76.8741 91.5707 77.3755 91.0373 77.6955 90.504C78.0261 89.9707 78.2395 89.416 78.3355 88.84C78.4315 88.264 78.4848 87.656 78.4955 87.016C78.4955 86.92 78.4475 86.872 78.3515 86.872C77.4341 86.8827 76.5488 86.904 75.6955 86.936C74.8528 86.968 74.1435 87.0107 73.5675 87.064C73.4075 87.0747 73.2635 87.0267 73.1355 86.92C73.0181 86.8027 72.9595 86.664 72.9595 86.504C72.9595 86.3227 73.0181 86.168 73.1355 86.04C73.2528 85.912 73.3968 85.8427 73.5675 85.832C74.0475 85.8 74.6075 85.768 75.2475 85.736C75.8875 85.704 76.5701 85.6827 77.2955 85.672C78.0208 85.6507 78.7515 85.6347 79.4875 85.624C80.2341 85.6133 80.9435 85.608 81.6155 85.608C82.0635 85.608 82.4848 85.6133 82.8795 85.624C83.2741 85.624 83.6261 85.6293 83.9355 85.64ZM95.7595 91.496C94.6181 92.2107 93.6155 92.568 92.7515 92.568C92.0688 92.568 91.5355 92.3387 91.1515 91.88C90.7675 91.4213 90.5808 90.7547 90.5915 89.88V82.456C90.5915 82.2747 90.6501 82.1253 90.7675 82.008C90.8955 81.88 91.0448 81.816 91.2155 81.816C91.3968 81.816 91.5461 81.88 91.6635 82.008C91.7915 82.1253 91.8555 82.2747 91.8555 82.456V89.72C91.8555 90.2107 91.9355 90.5947 92.0955 90.872C92.2555 91.1387 92.5221 91.272 92.8955 91.272C93.1515 91.272 93.4661 91.2027 93.8395 91.064C94.2128 90.9253 94.6501 90.7067 95.1515 90.408C95.7808 90.0347 96.4635 89.5547 97.1995 88.968C97.9355 88.3707 98.6981 87.6827 99.4875 86.904C99.6048 86.7867 99.7435 86.728 99.9035 86.728C100.085 86.728 100.234 86.7973 100.351 86.936C100.469 87.0853 100.527 87.24 100.527 87.4C100.527 87.5813 100.458 87.7413 100.319 87.88C99.4981 88.6693 98.6981 89.368 97.9195 89.976C97.1408 90.5733 96.4208 91.08 95.7595 91.496ZM110.767 90.472C110.629 90.472 110.506 90.424 110.399 90.328C110.293 90.2213 110.239 90.0933 110.239 89.944L110.031 81.4C110.021 81.1973 110.09 81.0213 110.239 80.872C110.389 80.7227 110.565 80.648 110.767 80.648C110.981 80.648 111.157 80.7227 111.295 80.872C111.445 81.0213 111.514 81.1973 111.503 81.4L111.295 89.944C111.295 90.0933 111.242 90.2213 111.135 90.328C111.039 90.424 110.917 90.472 110.767 90.472ZM110.767 93.448C110.49 93.448 110.25 93.3467 110.047 93.144C109.855 92.952 109.759 92.7227 109.759 92.456C109.759 92.1787 109.855 91.944 110.047 91.752C110.25 91.5493 110.49 91.448 110.767 91.448C111.045 91.448 111.279 91.5493 111.471 91.752C111.674 91.944 111.775 92.1787 111.775 92.456C111.775 92.7227 111.674 92.952 111.471 93.144C111.279 93.3467 111.045 93.448 110.767 93.448Z" fill="#595252"/>
</svg>
