<svg width="239" height="210" viewBox="0 0 239 210" fill="none" xmlns="http://www.w3.org/2000/svg">
<path d="M206.324 44.3801C206.733 45.7177 207.07 47.0729 207.331 48.4436C206.005 48.651 205.072 49.876 205.238 51.2188C205.411 52.6305 205.5 54.0582 205.5 55.5C205.5 56.9418 205.411 58.3695 205.238 59.7812C205.072 61.124 206.005 62.349 207.331 62.5564C207.07 63.9271 206.733 65.2823 206.324 66.6199C205.05 66.1854 203.654 66.8392 203.177 68.1075C202.182 70.7572 200.877 73.339 199.282 75.8345C198.55 76.9798 198.869 78.4957 199.989 79.252C199.187 80.3761 198.329 81.4795 197.419 82.5605C196.403 81.664 194.851 81.7407 193.928 82.7427C191.994 84.8422 189.84 86.8533 187.482 88.7611C186.421 89.6202 186.247 91.1697 187.084 92.242C185.981 93.0708 184.842 93.8776 183.668 94.6611C182.931 93.5155 181.407 93.1706 180.246 93.8933C177.784 95.4258 175.173 96.8603 172.427 98.1857C171.194 98.781 170.671 100.256 171.248 101.493C169.986 102.061 168.699 102.607 167.389 103.129C166.899 101.854 165.473 101.206 164.187 101.681C161.437 102.699 158.585 103.615 155.644 104.421C154.322 104.783 153.54 106.142 153.887 107.465C152.543 107.801 151.182 108.115 149.806 108.406C149.538 107.064 148.238 106.184 146.891 106.439C143.988 106.987 141.018 107.431 137.99 107.765C136.626 107.915 135.64 109.136 135.776 110.498C134.393 110.622 132.998 110.724 131.593 110.803C131.531 109.435 130.378 108.37 129.006 108.419C127.515 108.473 126.012 108.5 124.5 108.5C122.988 108.5 121.485 108.473 119.994 108.419C118.622 108.37 117.469 109.435 117.407 110.803C116.002 110.724 114.607 110.622 113.224 110.498C113.36 109.136 112.374 107.915 111.01 107.765C107.982 107.431 105.012 106.987 102.109 106.439C100.762 106.184 99.4622 107.064 99.1943 108.406C97.8181 108.115 96.4574 107.801 95.1132 107.465C95.4601 106.142 94.678 104.783 93.3555 104.421C90.4148 103.615 87.5633 102.699 84.8125 101.681C83.5273 101.206 82.1011 101.854 81.6113 103.129C80.301 102.607 79.0141 102.061 77.7518 101.493C78.3289 100.256 77.8059 98.781 76.5726 98.1857C73.8268 96.8603 71.2158 95.4258 68.754 93.8933C67.593 93.1706 66.0695 93.5155 65.3315 94.6611C64.1576 93.8776 63.0187 93.0708 61.9165 92.242C62.7534 91.1697 62.5794 89.6202 61.5177 88.7611C59.1601 86.8533 57.0057 84.8422 55.0721 82.7427C54.1492 81.7407 52.5973 81.664 51.5806 82.5605C50.6706 81.4795 49.8134 80.3761 49.0114 79.252C50.1314 78.4957 50.4498 76.9798 49.7179 75.8345C48.1231 73.339 46.818 70.7572 45.8228 68.1074C45.3465 66.8392 43.9498 66.1854 42.6764 66.6199C42.2671 65.2823 41.9302 63.9271 41.6685 62.5564C42.9955 62.349 43.9276 61.124 43.7623 59.7812C43.5886 58.3695 43.5 56.9418 43.5 55.5C43.5 54.0582 43.5886 52.6305 43.7623 51.2188C43.9276 49.876 42.9955 48.651 41.6685 48.4436C41.9302 47.0729 42.2671 45.7177 42.6764 44.3801C43.9498 44.8146 45.3465 44.1608 45.8228 42.8925C46.818 40.2428 48.1231 37.661 49.7179 35.1655C50.4498 34.0202 50.1314 32.5043 49.0114 31.748C49.8134 30.6239 50.6706 29.5205 51.5806 28.4395C52.5973 29.336 54.1492 29.2593 55.0721 28.2573C57.0057 26.1578 59.1601 24.1467 61.5177 22.2389C62.5794 21.3798 62.7534 19.8303 61.9165 18.758C63.0187 17.9292 64.1576 17.1224 65.3315 16.3389C66.0695 17.4845 67.593 17.8294 68.754 17.1067C71.2158 15.5742 73.8268 14.1397 76.5726 12.8143C77.8059 12.219 78.3289 10.7439 77.7518 9.50665C79.0141 8.93871 80.301 8.39314 81.6113 7.87077C82.1011 9.14647 83.5273 9.79432 84.8125 9.31879C87.5633 8.30099 90.4148 7.385 93.3555 6.57917C94.678 6.21676 95.4601 4.8577 95.1132 3.53463C96.4574 3.19864 97.8181 2.88503 99.1943 2.59448C99.4622 3.93641 100.762 4.81551 102.109 4.56112C105.012 4.01329 107.982 3.56915 111.01 3.23538C112.374 3.08502 113.36 1.86404 113.224 0.501785C114.607 0.377617 116.002 0.275981 117.407 0.197451C117.469 1.5654 118.622 2.63048 119.994 2.58103C121.485 2.52725 122.988 2.5 124.5 2.5C126.012 2.5 127.515 2.52725 129.006 2.58103C130.378 2.63048 131.531 1.5654 131.593 0.197451C132.998 0.275982 134.393 0.377617 135.776 0.501785C135.64 1.86404 136.626 3.08502 137.99 3.23538C141.018 3.56915 143.988 4.01329 146.891 4.56112C148.238 4.81551 149.538 3.93642 149.806 2.59448C151.182 2.88503 152.543 3.19864 153.887 3.53463C153.54 4.8577 154.322 6.21676 155.644 6.57917C158.585 7.385 161.437 8.30099 164.187 9.31879C165.473 9.79432 166.899 9.14647 167.389 7.87077C168.699 8.39314 169.986 8.93871 171.248 9.50665C170.671 10.7439 171.194 12.219 172.427 12.8143C175.173 14.1397 177.784 15.5742 180.246 17.1067C181.407 17.8294 182.931 17.4845 183.668 16.3389C184.842 17.1224 185.981 17.9292 187.084 18.758C186.247 19.8303 186.421 21.3798 187.482 22.2389C189.84 24.1467 191.994 26.1578 193.928 28.2573C194.851 29.2593 196.403 29.336 197.419 28.4395C198.329 29.5205 199.187 30.6239 199.989 31.748C198.869 32.5043 198.55 34.0202 199.282 35.1655C200.877 37.661 202.182 40.2428 203.177 42.8926C203.654 44.1608 205.05 44.8146 206.324 44.3801Z" stroke="#CEB599" stroke-width="5" stroke-linecap="round" stroke-dasharray="10 10"/>
<rect x="18.5" y="68.5" width="212" height="126" fill="white" stroke="#CEB599" stroke-width="7"/>
<path d="M61.28 124.26C60.48 124.26 59.79 123.97 59.21 123.39C58.63 122.81 58.34 122.12 58.34 121.32C58.34 120.5 58.63 119.81 59.21 119.25C59.79 118.69 60.48 118.41 61.28 118.41C62.1 118.41 62.79 118.69 63.35 119.25C63.91 119.81 64.19 120.5 64.19 121.32C64.19 122.12 63.91 122.81 63.35 123.39C62.79 123.97 62.1 124.26 61.28 124.26ZM46.4 131.88C46.4 130.84 46.42 129.79 46.46 128.73C44.68 128.89 42.98 129.07 41.36 129.27C39.76 129.45 38.35 129.65 37.13 129.87L36.77 125.07C38.11 124.85 39.65 124.65 41.39 124.47C43.13 124.29 44.94 124.13 46.82 123.99C47 122.25 47.24 120.6 47.54 119.04L52.46 119.58C52.14 120.76 51.88 122.13 51.68 123.69C53.98 123.57 56.12 123.49 58.1 123.45C58.44 123.97 58.89 124.39 59.45 124.71C60.01 125.01 60.62 125.16 61.28 125.16C61.48 125.16 61.68 125.14 61.88 125.1L61.91 128.19C61.53 128.17 61.13 128.16 60.71 128.16C60.29 128.16 59.86 128.16 59.42 128.16C58.18 128.16 56.87 128.18 55.49 128.22C54.13 128.26 52.74 128.32 51.32 128.4C51.3 129.04 51.29 129.69 51.29 130.35C51.29 132.89 51.44 135.47 51.74 138.09C52.06 140.69 52.55 143.06 53.21 145.2L48.08 145.95C47.5 143.85 47.07 141.59 46.79 139.17C46.53 136.75 46.4 134.32 46.4 131.88ZM61.28 122.28C61.54 122.28 61.76 122.19 61.94 122.01C62.14 121.81 62.24 121.58 62.24 121.32C62.24 121.06 62.14 120.84 61.94 120.66C61.76 120.46 61.54 120.36 61.28 120.36C61.02 120.36 60.79 120.46 60.59 120.66C60.41 120.84 60.32 121.06 60.32 121.32C60.32 121.58 60.41 121.81 60.59 122.01C60.79 122.19 61.02 122.28 61.28 122.28ZM53.54 133.41L57.17 130.41C57.61 130.93 58.14 131.52 58.76 132.18C59.38 132.82 60.04 133.47 60.74 134.13C61.46 134.79 62.17 135.42 62.87 136.02C63.59 136.6 64.26 137.1 64.88 137.52L61.82 141.51C60.64 140.75 59.54 139.91 58.52 138.99C57.52 138.05 56.61 137.1 55.79 136.14C54.97 135.18 54.22 134.27 53.54 133.41ZM35.99 140.1C36.27 139.54 36.63 138.89 37.07 138.15C37.51 137.41 38 136.63 38.54 135.81C39.08 134.99 39.63 134.19 40.19 133.41C40.75 132.61 41.28 131.89 41.78 131.25L45.59 133.98C45.23 134.44 44.81 135.03 44.33 135.75C43.85 136.45 43.35 137.21 42.83 138.03C42.33 138.85 41.85 139.66 41.39 140.46C40.93 141.26 40.54 141.99 40.22 142.65L35.99 140.1ZM77.27 134.31C77.21 133.09 77.02 131.77 76.7 130.35C76.38 128.91 75.95 127.44 75.41 125.94L79.61 124.56C80.05 125.66 80.4 126.66 80.66 127.56C80.94 128.44 81.16 129.33 81.32 130.23C81.5 131.13 81.64 132.15 81.74 133.29L77.27 134.31ZM80.48 146.22L76.37 143.25C78.23 141.85 79.75 140.44 80.93 139.02C82.13 137.6 83.07 136.15 83.75 134.67C84.43 133.19 84.92 131.68 85.22 130.14C85.54 128.58 85.76 126.99 85.88 125.37L90.68 126.66C90.54 128.88 90.09 131.17 89.33 133.53C88.57 135.87 87.46 138.13 86 140.31C84.56 142.49 82.72 144.46 80.48 146.22ZM71.39 135.81C71.31 135.33 71.2 134.73 71.06 134.01C70.92 133.27 70.76 132.49 70.58 131.67C70.42 130.83 70.22 130.03 69.98 129.27C69.74 128.51 69.47 127.86 69.17 127.32L73.28 126.03C73.96 127.45 74.48 128.84 74.84 130.2C75.2 131.54 75.46 133.06 75.62 134.76L71.39 135.81ZM120.71 124.89C119.91 124.89 119.22 124.6 118.64 124.02C118.08 123.44 117.8 122.75 117.8 121.95C117.8 121.15 118.08 120.47 118.64 119.91C119.22 119.33 119.91 119.04 120.71 119.04C121.53 119.04 122.22 119.33 122.78 119.91C123.36 120.47 123.65 121.15 123.65 121.95C123.65 122.75 123.36 123.44 122.78 124.02C122.22 124.6 121.53 124.89 120.71 124.89ZM97.04 123.69C98.88 123.05 100.75 122.51 102.65 122.07C104.55 121.61 106.42 121.26 108.26 121.02C110.1 120.78 111.82 120.66 113.42 120.66C114.02 120.66 114.63 120.68 115.25 120.72C115.87 120.76 116.47 120.83 117.05 120.93C117.01 121.09 116.97 121.26 116.93 121.44C116.91 121.6 116.9 121.77 116.9 121.95C116.9 122.65 117.07 123.29 117.41 123.87C117.75 124.45 118.21 124.92 118.79 125.28C119.37 125.62 120.01 125.79 120.71 125.79C121.25 125.79 121.73 125.69 122.15 125.49C122.17 125.63 122.18 125.78 122.18 125.94C122.2 126.08 122.21 126.23 122.21 126.39C122.21 127.35 121.99 128.57 121.55 130.05C121.13 131.53 120.41 133.16 119.39 134.94C118.39 136.72 117.04 138.56 115.34 140.46C113.64 142.36 111.52 144.21 108.98 146.01L104.66 142.26C106.68 141.02 108.45 139.69 109.97 138.27C111.49 136.85 112.76 135.45 113.78 134.07C114.8 132.69 115.56 131.44 116.06 130.32C116.58 129.18 116.84 128.28 116.84 127.62C116.84 126.84 116.54 126.33 115.94 126.09C115.36 125.83 114.62 125.7 113.72 125.7C111.84 125.7 109.64 125.94 107.12 126.42C104.6 126.88 101.83 127.64 98.81 128.7L97.04 123.69ZM120.71 122.91C120.99 122.91 121.22 122.82 121.4 122.64C121.58 122.44 121.67 122.21 121.67 121.95C121.67 121.69 121.58 121.47 121.4 121.29C121.22 121.09 120.99 120.99 120.71 120.99C120.45 120.99 120.23 121.09 120.05 121.29C119.87 121.47 119.78 121.69 119.78 121.95C119.78 122.21 119.87 122.44 120.05 122.64C120.23 122.82 120.45 122.91 120.71 122.91ZM146.87 145.56L142.46 142.59C143.7 141.95 144.81 141.16 145.79 140.22C146.79 139.26 147.57 138.2 148.13 137.04C148.71 135.86 149 134.64 149 133.38C148.98 131.38 148.42 129.69 147.32 128.31C146.24 126.93 144.73 126.03 142.79 125.61C142.81 125.93 142.82 126.25 142.82 126.57C142.82 128.75 142.52 130.81 141.92 132.75C141.34 134.69 140.6 136.42 139.7 137.94C139.1 138.94 138.36 139.86 137.48 140.7C136.62 141.54 135.69 142.21 134.69 142.71C133.71 143.21 132.73 143.46 131.75 143.46C130.51 143.46 129.47 143.11 128.63 142.41C127.79 141.71 127.16 140.78 126.74 139.62C126.34 138.44 126.14 137.15 126.14 135.75C126.14 134.79 126.29 133.68 126.59 132.42C126.91 131.14 127.41 129.85 128.09 128.55C128.79 127.23 129.69 126.02 130.79 124.92C131.89 123.8 133.22 122.9 134.78 122.22C136.36 121.52 138.2 121.17 140.3 121.17C143 121.17 145.36 121.67 147.38 122.67C149.4 123.67 150.97 125.13 152.09 127.05C153.21 128.95 153.77 131.27 153.77 134.01C153.77 135.43 153.49 136.85 152.93 138.27C152.37 139.69 151.57 141.03 150.53 142.29C149.51 143.53 148.29 144.62 146.87 145.56ZM130.64 135.78C130.64 136.48 130.74 137.12 130.94 137.7C131.14 138.26 131.48 138.54 131.96 138.54C132.2 138.54 132.54 138.46 132.98 138.3C133.42 138.14 133.92 137.78 134.48 137.22C135.04 136.66 135.62 135.78 136.22 134.58C136.92 133.18 137.41 131.78 137.69 130.38C137.99 128.98 138.14 127.72 138.14 126.6C138.14 126.28 138.13 125.97 138.11 125.67C136.93 125.99 135.87 126.53 134.93 127.29C133.99 128.03 133.2 128.89 132.56 129.87C131.84 130.91 131.34 131.98 131.06 133.08C130.78 134.16 130.64 135.06 130.64 135.78ZM169.91 125.49C169.61 126.23 169.33 126.94 169.07 127.62C168.81 128.3 168.57 128.9 168.35 129.42H171.44V133.35H155.9V129.42H159.02C158.98 128.84 158.87 128.19 158.69 127.47C158.53 126.73 158.34 126.06 158.12 125.46L161.54 124.74H156.47V120.99H161.69V118.62H165.92V120.99H171.08V124.74H166.28L169.91 125.49ZM184.34 121.86C183.84 123.34 183.3 124.88 182.72 126.48C182.16 128.08 181.62 129.5 181.1 130.74C182.22 132.04 182.92 133.28 183.2 134.46C183.5 135.62 183.65 136.68 183.65 137.64C183.65 140 183.07 141.59 181.91 142.41C181.33 142.85 180.62 143.13 179.78 143.25C179.46 143.29 179.11 143.32 178.73 143.34C178.35 143.34 177.95 143.34 177.53 143.34C177.51 142.74 177.41 142.03 177.23 141.21C177.07 140.39 176.82 139.68 176.48 139.08C176.76 139.1 177 139.12 177.2 139.14C177.42 139.14 177.63 139.13 177.83 139.11C178.01 139.11 178.18 139.09 178.34 139.05C178.52 139.01 178.68 138.95 178.82 138.87C179.24 138.61 179.45 138 179.45 137.04C179.45 136.28 179.28 135.4 178.94 134.4C178.6 133.38 177.91 132.33 176.87 131.25C177.11 130.61 177.35 129.88 177.59 129.06C177.83 128.24 178.07 127.4 178.31 126.54C178.55 125.68 178.77 124.87 178.97 124.11H176.42V146.85H172.16V120.03H180.47L181.13 119.88L184.34 121.86ZM161.69 124.74C161.97 125.36 162.21 126.06 162.41 126.84C162.61 127.6 162.75 128.27 162.83 128.85L160.34 129.42H167.09L164.84 128.88C165.04 128.3 165.23 127.63 165.41 126.87C165.61 126.09 165.76 125.38 165.86 124.74H161.69ZM157.46 134.97H170.27V146.79H166.04V145.53H161.48V146.88H157.46V134.97ZM161.48 138.72V141.78H166.04V138.72H161.48ZM213.56 142.83V146.22H191.93V142.83H200.51V141.42H193.82V138.03H200.51V136.74L193.4 137.04L193.25 133.71L196.25 133.65C196.41 133.39 196.56 133.13 196.7 132.87C196.86 132.61 197.01 132.35 197.15 132.09H193.31C193.23 133.73 193.07 135.44 192.83 137.22C192.59 139 192.22 140.72 191.72 142.38C191.22 144.04 190.54 145.53 189.68 146.85C189.4 146.61 189.02 146.34 188.54 146.04C188.08 145.74 187.6 145.46 187.1 145.2C186.6 144.94 186.16 144.74 185.78 144.6C186.54 143.48 187.13 142.24 187.55 140.88C187.99 139.52 188.31 138.12 188.51 136.68C188.71 135.22 188.84 133.8 188.9 132.42C188.96 131.02 188.99 129.73 188.99 128.55V119.67H212.27V127.77H193.4V128.7H213.02V132.09H209.6C210.36 132.67 211.09 133.28 211.79 133.92C212.49 134.54 213.06 135.11 213.5 135.63L209.84 137.85C209.68 137.63 209.49 137.4 209.27 137.16C209.07 136.92 208.84 136.67 208.58 136.41L204.74 136.56V138.03H211.52V141.42H204.74V142.83H213.56ZM193.4 123.15V124.29H207.86V123.15H193.4ZM201.95 132.09C201.77 132.33 201.59 132.57 201.41 132.81C201.23 133.05 201.06 133.29 200.9 133.53L205.25 133.38C205.11 133.26 204.96 133.14 204.8 133.02C204.66 132.9 204.51 132.78 204.35 132.66L205.34 132.09H201.95Z" fill="#8E8070"/>
<path d="M216.093 70.677L215.059 87.0287L215.036 87.3997L215.385 87.529L229.794 92.8738L214.702 97.7158L214.377 97.82L214.356 98.1604L213.317 114.595L205.102 101.196L204.897 100.862L204.523 100.981L189.558 105.783L199.488 92.6456L199.693 92.3736L199.515 92.0828L191.231 78.5701L205.641 83.9149L205.989 84.0442L206.213 83.7476L216.093 70.677Z" fill="#FAF3B5" stroke="#CEB599"/>
<path d="M21.517 155.814L32.6997 167.789L32.9534 168.061L33.2867 167.896L47.064 161.084L40.2268 175.384L40.0797 175.692L40.3125 175.941L51.5521 187.977L36.1692 184.754L35.785 184.674L35.6156 185.028L28.836 199.207L26.0971 182.969L26.0404 182.632L25.7066 182.563L10.1933 179.313L23.9706 172.502L24.3038 172.337L24.242 171.97L21.517 155.814Z" fill="#FAF3B5" stroke="#CEB599"/>
</svg>
