<svg width="46" height="45" viewBox="0 0 46 45" fill="none" xmlns="http://www.w3.org/2000/svg">
<g opacity="0.5" clip-path="url(#clip0_29_154)">
<path d="M15.6794 29.037C17.423 25.2048 15.8253 20.7867 12.1117 19.1685C11.6467 18.9657 11.1698 18.8171 10.6887 18.7187C10.4848 18.1887 10.2443 17.6263 9.95675 17.0479C9.28796 15.7035 8.37515 14.2813 7.12964 13.0453C5.90381 11.8286 4.3452 10.7962 2.40772 10.2288C2.20216 10.0919 1.96497 9.99597 1.69966 9.96925C0.852618 9.88417 0.0950554 10.4868 0.00799683 11.3154C-0.0782532 12.1449 0.537716 12.8844 1.38485 12.9703C2.139 13.0462 2.82065 12.5739 3.02109 11.8838C4.25033 12.3995 5.28003 13.1356 6.14684 13.9935C7.54166 15.3747 8.50308 17.0713 9.14627 18.5794C6.28843 18.6203 3.52179 20.337 2.22857 23.1778C0.484887 27.01 2.08267 31.4273 5.79609 33.0455C9.50978 34.6627 13.9349 32.8684 15.6794 29.037Z" fill="#CCAE6E"/>
<path d="M35.1538 40.0155C35.6221 38.2387 35.2945 36.1641 34.4347 34.1395C34.0047 35.7025 33.4015 37.2824 32.5748 38.8438C31.5222 40.8342 30.112 42.7854 28.3248 44.6273C30.449 44.4537 32.3607 43.796 33.6566 42.5651L37.0511 43.2611C37.2141 43.2953 37.3821 43.2235 37.4674 43.0825C37.5527 42.9422 37.5373 42.7645 37.429 42.6394L35.1538 40.0155Z" fill="#CCAE6E"/>
<path d="M21.5478 25.4026C20.1385 24.3143 18.7445 23.5132 17.3352 23.1376C17.9836 25.1656 17.9094 27.4548 16.9402 29.5862C16.8114 29.8692 16.6664 30.142 16.512 30.4065C16.4591 30.4875 16.4113 30.5684 16.3601 30.6493C15.182 32.5396 13.382 33.9317 11.3123 34.5801C11.9632 35.1001 13.2949 35.9195 14.5925 36.6631C14.5925 36.6639 14.5925 36.6647 14.5925 36.6647C18.3684 33.1447 20.5838 29.1689 21.5478 25.4026Z" fill="#CCAE6E"/>
<path d="M32.9205 31.3822C32.1032 30.1761 31.129 29.0579 30.0668 28.1207C29.6617 30.2914 28.9168 32.5229 27.7557 34.7169C26.1544 37.7455 23.753 40.6898 20.4174 43.2811C21.9743 43.9512 23.6975 44.4019 25.4122 44.5855C27.7694 42.4941 29.5122 40.2234 30.7365 37.9125C31.8916 35.7301 32.5843 33.5135 32.9205 31.3822Z" fill="#CCAE6E"/>
<path d="M25.5497 33.5996C26.8097 31.2194 27.5211 28.7959 27.8086 26.4934C26.3515 25.6722 24.9712 25.3408 23.6729 25.4027C22.6166 29.9743 19.9064 34.7722 15.2051 38.8581C15.7357 39.9555 16.6136 40.9912 17.9255 41.9158C17.964 41.9425 18.0066 41.9659 18.0458 41.9935C21.558 39.4581 23.9808 36.5622 25.5497 33.5996Z" fill="#CCAE6E"/>
<path d="M44.8552 12.1057C44.0891 11.08 42.9434 10.2555 41.4736 9.73653C40.2792 9.31088 39.0925 9.11558 37.94 9.11558C35.7664 9.12226 33.7028 9.78988 31.7978 10.8298C31.8737 10.2289 31.9087 9.6489 31.9087 9.08139C31.9087 6.5969 31.2671 4.45043 30.0797 2.88405C29.4927 2.10789 28.7617 1.47279 27.9205 1.04142C27.0776 0.609087 26.1256 0.372925 25.1044 0.372925C24.2556 0.372925 23.3581 0.534819 22.4342 0.866167C20.7297 1.47964 19.3494 2.44591 18.2592 3.64017C16.623 5.43613 15.6359 7.72445 15.0498 10.128C14.4638 12.524 14.277 15.056 14.277 17.3785C14.277 17.8943 14.2888 18.3941 14.3051 18.8848C14.846 19.2863 15.3297 19.7468 15.7502 20.2534C15.6956 19.3521 15.6572 18.3873 15.6572 17.3784C15.6503 14.3807 15.9881 11.0525 17.0717 8.251C17.6099 6.85389 18.3342 5.58378 19.2862 4.54483C20.246 3.49832 21.4258 2.66792 22.9093 2.13469C23.6967 1.85177 24.4347 1.72319 25.1044 1.72319C25.9123 1.72319 26.6298 1.90512 27.2781 2.23559C28.2446 2.72883 29.0448 3.58594 29.624 4.75427C30.1974 5.91513 30.5284 7.39398 30.5284 9.08139C30.5284 9.93182 30.4455 10.8298 30.2665 11.7744C27.9887 13.3142 25.9805 15.3188 24.2974 17.2642C22.4462 19.4273 21.0096 21.5137 20.1283 22.8356C20.5139 23.0467 20.9038 23.2845 21.3013 23.5499C22.4888 21.7657 24.6701 18.6261 27.4649 15.873C28.1824 15.1577 28.9476 14.4752 29.7419 13.8408L31.5017 12.5924C31.7978 12.3962 32.0955 12.2201 32.3984 12.0516C34.172 11.0659 36.036 10.4659 37.94 10.4659C38.9408 10.4717 39.955 10.6345 40.9967 11.005C42.2602 11.4507 43.1499 12.1124 43.7368 12.9027C44.3238 13.6922 44.6129 14.6177 44.6197 15.6568C44.6197 16.912 44.1787 18.3307 43.2676 19.7477C41.3311 22.7788 37.255 25.7823 31.1647 27.2711C31.5529 27.6233 31.9273 27.9964 32.2866 28.3853C35.3269 27.5591 37.8896 26.3615 39.9414 24.9528C41.9077 23.6025 43.4117 22.057 44.4338 20.4629C45.4549 18.8706 45.9933 17.2224 46.0001 15.6568C46 14.3673 45.6203 13.1389 44.8552 12.1057Z" fill="#CCAE6E"/>
</g>
<defs>
<clipPath id="clip0_29_154">
<rect width="46" height="45" fill="white"/>
</clipPath>
</defs>
</svg>
