<svg width="282" height="46" viewBox="0 0 282 46" fill="none" xmlns="http://www.w3.org/2000/svg">
<rect x="0.5" y="0.5" width="280.144" height="45" rx="22.5" fill="white" stroke="#CEB599"/>
<path d="M62.82 28.005C62.93 27.925 63.05 27.885 63.18 27.885C63.37 27.885 63.51 27.96 63.6 28.11C63.68 28.22 63.72 28.335 63.72 28.455C63.72 28.665 63.635 28.825 63.465 28.935C63.155 29.145 62.835 29.32 62.505 29.46C62.175 29.59 61.785 29.69 61.335 29.76C60.895 29.82 60.34 29.85 59.67 29.85C58.66 29.85 57.865 29.615 57.285 29.145C56.715 28.665 56.45 28.005 56.49 27.165L56.655 25.11V25.08C56.655 25 56.61 24.96 56.52 24.96C55.97 24.97 55.45 24.985 54.96 25.005C54.47 25.025 54.03 25.05 53.64 25.08C53.48 25.09 53.345 25.045 53.235 24.945C53.125 24.835 53.07 24.705 53.07 24.555C53.07 24.395 53.125 24.26 53.235 24.15C53.345 24.03 53.48 23.965 53.64 23.955C54.05 23.925 54.51 23.9 55.02 23.88C55.54 23.86 56.08 23.845 56.64 23.835C56.73 23.835 56.78 23.79 56.79 23.7C56.83 23.29 56.865 22.89 56.895 22.5C56.925 22.1 56.955 21.745 56.985 21.435V21.405C56.985 21.335 56.94 21.3 56.85 21.3C56.45 21.3 56.07 21.305 55.71 21.315C55.36 21.315 55.05 21.325 54.78 21.345C54.62 21.355 54.475 21.305 54.345 21.195C54.225 21.085 54.165 20.95 54.165 20.79C54.165 20.64 54.215 20.51 54.315 20.4C54.415 20.29 54.54 20.23 54.69 20.22C55.04 20.2 55.445 20.19 55.905 20.19C56.375 20.18 56.865 20.175 57.375 20.175H59.07C59.63 20.175 60.165 20.175 60.675 20.175C61.185 20.165 61.625 20.15 61.995 20.13C62.155 20.12 62.295 20.17 62.415 20.28C62.535 20.39 62.595 20.53 62.595 20.7C62.595 20.84 62.545 20.965 62.445 21.075C62.345 21.185 62.225 21.245 62.085 21.255C61.615 21.275 61.045 21.29 60.375 21.3C59.705 21.3 59.02 21.3 58.32 21.3C58.24 21.3 58.19 21.34 58.17 21.42C58.14 21.73 58.11 22.08 58.08 22.47C58.05 22.86 58.015 23.255 57.975 23.655V23.685C57.975 23.765 58.02 23.805 58.11 23.805C58.79 23.795 59.46 23.79 60.12 23.79C60.79 23.78 61.415 23.775 61.995 23.775H63.18C63.34 23.775 63.47 23.83 63.57 23.94C63.68 24.05 63.735 24.185 63.735 24.345C63.735 24.505 63.68 24.64 63.57 24.75C63.46 24.85 63.325 24.9 63.165 24.9H61.965C61.375 24.9 60.735 24.905 60.045 24.915C59.365 24.915 58.68 24.92 57.99 24.93C57.91 24.93 57.86 24.975 57.84 25.065L57.645 27.09C57.595 27.66 57.765 28.08 58.155 28.35C58.555 28.61 59.145 28.74 59.925 28.74C60.595 28.74 61.17 28.67 61.65 28.53C62.13 28.38 62.52 28.205 62.82 28.005ZM80.04 19.74C80.08 19.79 80.1 19.86 80.1 19.95C80.1 20.09 80.04 20.2 79.92 20.28C79.89 20.29 79.86 20.305 79.83 20.325C79.8 20.335 79.765 20.34 79.725 20.34C79.595 20.34 79.49 20.28 79.41 20.16C79.25 19.92 79.065 19.665 78.855 19.395C78.645 19.125 78.44 18.895 78.24 18.705C78.17 18.635 78.135 18.545 78.135 18.435C78.135 18.325 78.17 18.24 78.24 18.18C78.32 18.1 78.42 18.06 78.54 18.06C78.64 18.06 78.725 18.095 78.795 18.165C79.025 18.385 79.245 18.635 79.455 18.915C79.675 19.195 79.87 19.47 80.04 19.74ZM77.625 18.765C77.855 18.985 78.08 19.24 78.3 19.53C78.53 19.82 78.735 20.105 78.915 20.385C78.955 20.435 78.975 20.505 78.975 20.595C78.975 20.735 78.915 20.845 78.795 20.925C78.745 20.965 78.68 20.985 78.6 20.985C78.46 20.985 78.35 20.925 78.27 20.805C78.11 20.565 77.92 20.305 77.7 20.025C77.49 19.745 77.285 19.51 77.085 19.32C77.005 19.24 76.965 19.145 76.965 19.035C76.965 18.935 77 18.85 77.07 18.78C77.14 18.7 77.235 18.66 77.355 18.66C77.465 18.66 77.555 18.695 77.625 18.765ZM70.08 21.135C69.92 21.145 69.785 21.095 69.675 20.985C69.565 20.875 69.51 20.745 69.51 20.595C69.51 20.425 69.565 20.285 69.675 20.175C69.785 20.055 69.92 19.995 70.08 19.995C70.52 19.975 71.065 19.96 71.715 19.95C72.375 19.94 73.05 19.935 73.74 19.935C74.3 19.935 74.84 19.94 75.36 19.95C75.88 19.96 76.32 19.975 76.68 19.995C76.84 20.005 76.97 20.07 77.07 20.19C77.18 20.3 77.235 20.435 77.235 20.595C77.235 20.755 77.18 20.89 77.07 21C76.96 21.11 76.82 21.16 76.65 21.15C76.27 21.13 75.785 21.115 75.195 21.105C74.615 21.095 74.015 21.09 73.395 21.09C72.765 21.09 72.155 21.095 71.565 21.105C70.985 21.105 70.49 21.115 70.08 21.135ZM78.345 23.1C78.495 23.1 78.625 23.155 78.735 23.265C78.845 23.375 78.9 23.505 78.9 23.655C78.9 23.815 78.845 23.955 78.735 24.075C78.625 24.185 78.49 24.24 78.33 24.24H74.565C74.475 24.24 74.43 24.285 74.43 24.375C74.44 25.385 74.33 26.245 74.1 26.955C73.88 27.655 73.56 28.26 73.14 28.77C72.73 29.27 72.245 29.735 71.685 30.165C71.605 30.235 71.5 30.27 71.37 30.27C71.17 30.27 71.015 30.18 70.905 30C70.845 29.89 70.815 29.785 70.815 29.685C70.815 29.455 70.905 29.28 71.085 29.16C71.725 28.66 72.195 28.16 72.495 27.66C72.805 27.16 73.005 26.64 73.095 26.1C73.185 25.56 73.235 24.99 73.245 24.39C73.245 24.3 73.2 24.255 73.11 24.255C72.25 24.265 71.42 24.285 70.62 24.315C69.83 24.345 69.165 24.385 68.625 24.435C68.475 24.445 68.34 24.4 68.22 24.3C68.11 24.19 68.055 24.06 68.055 23.91C68.055 23.74 68.11 23.595 68.22 23.475C68.33 23.355 68.465 23.29 68.625 23.28C69.075 23.25 69.6 23.22 70.2 23.19C70.8 23.16 71.44 23.14 72.12 23.13C72.8 23.11 73.485 23.095 74.175 23.085C74.875 23.075 75.54 23.07 76.17 23.07C76.59 23.07 76.985 23.075 77.355 23.085C77.725 23.085 78.055 23.09 78.345 23.1ZM93.27 26.775C92.74 27.465 92.205 27.98 91.665 28.32C91.135 28.66 90.65 28.83 90.21 28.83C89.69 28.83 89.265 28.605 88.935 28.155C88.605 27.695 88.445 27.01 88.455 26.1V20.415C88.455 20.245 88.51 20.105 88.62 19.995C88.74 19.875 88.88 19.815 89.04 19.815C89.21 19.815 89.35 19.875 89.46 19.995C89.58 20.105 89.64 20.245 89.64 20.415V25.965C89.64 27.045 89.87 27.585 90.33 27.585C90.57 27.585 90.86 27.45 91.2 27.18C91.55 26.91 91.94 26.515 92.37 25.995C92.94 25.335 93.43 24.57 93.84 23.7C93.95 23.46 94.14 23.34 94.41 23.34C94.58 23.34 94.72 23.4 94.83 23.52C94.94 23.64 94.995 23.775 94.995 23.925C94.995 24.015 94.975 24.095 94.935 24.165C94.695 24.655 94.43 25.12 94.14 25.56C93.86 25.99 93.57 26.395 93.27 26.775ZM83.31 29.955C83.22 30.015 83.125 30.045 83.025 30.045C82.825 30.045 82.67 29.955 82.56 29.775C82.51 29.675 82.485 29.58 82.485 29.49C82.485 29.28 82.565 29.11 82.725 28.98C83.385 28.46 83.92 27.865 84.33 27.195C84.74 26.525 85.04 25.725 85.23 24.795C85.43 23.855 85.53 22.74 85.53 21.45C85.53 21.29 85.585 21.155 85.695 21.045C85.805 20.935 85.935 20.88 86.085 20.88C86.255 20.88 86.4 20.94 86.52 21.06C86.64 21.17 86.695 21.31 86.685 21.48C86.635 22.68 86.535 23.725 86.385 24.615C86.245 25.495 86.04 26.26 85.77 26.91C85.51 27.56 85.175 28.13 84.765 28.62C84.365 29.11 83.88 29.555 83.31 29.955ZM109.53 29.7C109.75 29.81 109.86 29.99 109.86 30.24C109.86 30.4 109.8 30.53 109.68 30.63C109.57 30.74 109.445 30.795 109.305 30.795C109.245 30.795 109.175 30.78 109.095 30.75C108.535 30.48 107.985 30.125 107.445 29.685C106.905 29.235 106.39 28.735 105.9 28.185C105.41 27.635 104.965 27.07 104.565 26.49C104.175 25.9 103.845 25.33 103.575 24.78C103.565 24.74 103.545 24.72 103.515 24.72C103.495 24.72 103.475 24.74 103.455 24.78C103.105 25.6 102.635 26.395 102.045 27.165C101.455 27.935 100.8 28.63 100.08 29.25C99.36 29.87 98.625 30.365 97.875 30.735C97.805 30.775 97.725 30.795 97.635 30.795C97.405 30.795 97.24 30.68 97.14 30.45C97.13 30.41 97.115 30.37 97.095 30.33C97.085 30.3 97.08 30.265 97.08 30.225C97.08 29.995 97.19 29.82 97.41 29.7C98.06 29.37 98.685 28.95 99.285 28.44C99.885 27.92 100.43 27.35 100.92 26.73C101.41 26.11 101.82 25.475 102.15 24.825C102.49 24.165 102.72 23.53 102.84 22.92C102.86 22.86 102.83 22.83 102.75 22.83H97.905C97.745 22.83 97.61 22.78 97.5 22.68C97.4 22.57 97.35 22.435 97.35 22.275C97.35 22.115 97.4 21.985 97.5 21.885C97.61 21.775 97.745 21.72 97.905 21.72H102.84C102.9 21.72 102.93 21.69 102.93 21.63V18.525C102.93 18.365 102.985 18.23 103.095 18.12C103.205 18.01 103.34 17.955 103.5 17.955C103.66 17.955 103.795 18.01 103.905 18.12C104.015 18.23 104.07 18.365 104.07 18.525V21.63C104.07 21.69 104.1 21.72 104.16 21.72H109.095C109.255 21.72 109.39 21.775 109.5 21.885C109.61 21.985 109.665 22.115 109.665 22.275C109.665 22.435 109.61 22.57 109.5 22.68C109.39 22.78 109.255 22.83 109.095 22.83H104.19C104.12 22.83 104.1 22.88 104.13 22.98C104.33 23.72 104.635 24.44 105.045 25.14C105.465 25.84 105.935 26.49 106.455 27.09C106.975 27.69 107.505 28.215 108.045 28.665C108.585 29.115 109.08 29.46 109.53 29.7ZM107.175 21C107.015 20.71 106.815 20.4 106.575 20.07C106.345 19.74 106.1 19.445 105.84 19.185C105.71 19.055 105.645 18.9 105.645 18.72C105.645 18.56 105.705 18.42 105.825 18.3C105.955 18.19 106.105 18.135 106.275 18.135C106.475 18.135 106.635 18.21 106.755 18.36C106.975 18.64 107.22 18.975 107.49 19.365C107.77 19.755 108.005 20.125 108.195 20.475C108.235 20.545 108.255 20.63 108.255 20.73C108.255 20.96 108.15 21.13 107.94 21.24C107.87 21.28 107.785 21.3 107.685 21.3C107.455 21.3 107.285 21.2 107.175 21ZM123.705 28.38C123.865 28.48 123.945 28.63 123.945 28.83C123.945 28.95 123.905 29.065 123.825 29.175C123.725 29.325 123.575 29.4 123.375 29.4C123.235 29.4 123.125 29.365 123.045 29.295C122.795 29.115 122.525 28.945 122.235 28.785C121.955 28.625 121.655 28.485 121.335 28.365C121.325 28.365 121.315 28.365 121.305 28.365C121.305 28.355 121.3 28.35 121.29 28.35C121.24 28.35 121.2 28.39 121.17 28.47C121.12 28.72 121.01 28.985 120.84 29.265C120.68 29.545 120.42 29.785 120.06 29.985C119.7 30.175 119.21 30.27 118.59 30.27C118.08 30.27 117.625 30.19 117.225 30.03C116.835 29.87 116.525 29.655 116.295 29.385C116.075 29.105 115.965 28.795 115.965 28.455C115.965 27.835 116.205 27.39 116.685 27.12C117.175 26.85 117.775 26.715 118.485 26.715C118.725 26.715 118.97 26.73 119.22 26.76C119.48 26.78 119.74 26.815 120 26.865H120.03C120.11 26.865 120.15 26.825 120.15 26.745C120.15 26.205 120.135 25.615 120.105 24.975C120.075 24.335 120.04 23.7 120 23.07C119.99 22.98 119.94 22.935 119.85 22.935C119.33 22.955 118.79 22.975 118.23 22.995C117.68 23.015 117.13 23.025 116.58 23.025H116.085C115.925 23.025 115.79 22.97 115.68 22.86C115.58 22.75 115.53 22.615 115.53 22.455C115.53 22.305 115.585 22.175 115.695 22.065C115.805 21.955 115.94 21.9 116.1 21.9H116.7C117.19 21.9 117.695 21.895 118.215 21.885C118.735 21.865 119.25 21.845 119.76 21.825C119.86 21.825 119.9 21.78 119.88 21.69C119.84 21.21 119.795 20.765 119.745 20.355C119.695 19.935 119.645 19.575 119.595 19.275C119.575 19.105 119.615 18.96 119.715 18.84C119.825 18.72 119.96 18.66 120.12 18.66C120.26 18.66 120.385 18.705 120.495 18.795C120.605 18.875 120.67 18.985 120.69 19.125C120.74 19.435 120.79 19.805 120.84 20.235C120.89 20.665 120.94 21.13 120.99 21.63C121.01 21.72 121.06 21.76 121.14 21.75C121.86 21.72 122.495 21.675 123.045 21.615C123.205 21.595 123.34 21.64 123.45 21.75C123.57 21.85 123.63 21.98 123.63 22.14C123.63 22.29 123.58 22.42 123.48 22.53C123.38 22.64 123.255 22.705 123.105 22.725C122.845 22.745 122.555 22.77 122.235 22.8C121.915 22.82 121.58 22.84 121.23 22.86C121.14 22.88 121.1 22.93 121.11 23.01C121.16 23.71 121.2 24.415 121.23 25.125C121.27 25.835 121.285 26.485 121.275 27.075C121.275 27.155 121.32 27.21 121.41 27.24C121.83 27.39 122.24 27.56 122.64 27.75C123.04 27.94 123.395 28.15 123.705 28.38ZM114.465 18.81C114.635 18.81 114.77 18.87 114.87 18.99C114.97 19.11 115.02 19.25 115.02 19.41C115.02 19.43 115.02 19.455 115.02 19.485C115.02 19.515 115.015 19.54 115.005 19.56C114.815 20.21 114.655 21 114.525 21.93C114.395 22.85 114.33 23.84 114.33 24.9C114.33 25.64 114.37 26.4 114.45 27.18C114.54 27.95 114.68 28.715 114.87 29.475C114.88 29.505 114.885 29.535 114.885 29.565C114.895 29.585 114.9 29.605 114.9 29.625C114.9 29.785 114.845 29.92 114.735 30.03C114.635 30.14 114.5 30.195 114.33 30.195C114.06 30.195 113.89 30.06 113.82 29.79C113.62 29.01 113.47 28.185 113.37 27.315C113.27 26.435 113.22 25.55 113.22 24.66C113.22 23.71 113.275 22.765 113.385 21.825C113.505 20.885 113.69 20.005 113.94 19.185C114.02 18.935 114.195 18.81 114.465 18.81ZM118.59 29.145C119.15 29.145 119.53 29.05 119.73 28.86C119.93 28.67 120.05 28.42 120.09 28.11V28.08C120.09 28.02 120.055 27.98 119.985 27.96C119.735 27.91 119.475 27.875 119.205 27.855C118.935 27.825 118.655 27.81 118.365 27.81C117.915 27.81 117.59 27.87 117.39 27.99C117.19 28.1 117.09 28.23 117.09 28.38C117.09 28.56 117.225 28.735 117.495 28.905C117.765 29.065 118.13 29.145 118.59 29.145ZM136.83 21.57C135.74 21.72 134.6 21.795 133.41 21.795C132.28 21.795 131.21 21.72 130.2 21.57C130.06 21.54 129.94 21.47 129.84 21.36C129.75 21.25 129.705 21.13 129.705 21C129.705 20.81 129.775 20.66 129.915 20.55C130.055 20.44 130.21 20.395 130.38 20.415C130.75 20.465 131.19 20.515 131.7 20.565C132.22 20.605 132.8 20.625 133.44 20.625C133.93 20.625 134.45 20.61 135 20.58C135.56 20.54 136.15 20.485 136.77 20.415C136.93 20.395 137.07 20.44 137.19 20.55C137.31 20.65 137.37 20.78 137.37 20.94C137.37 21.1 137.32 21.24 137.22 21.36C137.12 21.48 136.99 21.55 136.83 21.57ZM138.375 28.605C137.545 28.835 136.745 29.02 135.975 29.16C135.215 29.29 134.48 29.355 133.77 29.355C132.79 29.355 131.86 29.205 130.98 28.905C130.11 28.605 129.275 28.11 128.475 27.42C128.345 27.3 128.28 27.155 128.28 26.985C128.28 26.815 128.33 26.675 128.43 26.565C128.55 26.435 128.7 26.37 128.88 26.37C129.04 26.37 129.175 26.42 129.285 26.52C129.875 27.01 130.53 27.41 131.25 27.72C131.97 28.02 132.83 28.17 133.83 28.17C134.42 28.17 135.07 28.11 135.78 27.99C136.5 27.86 137.285 27.665 138.135 27.405C138.155 27.395 138.18 27.39 138.21 27.39C138.24 27.39 138.265 27.39 138.285 27.39C138.445 27.39 138.58 27.445 138.69 27.555C138.8 27.655 138.855 27.79 138.855 27.96C138.855 28.11 138.81 28.245 138.72 28.365C138.63 28.475 138.515 28.555 138.375 28.605ZM151.83 21.57C150.74 21.72 149.6 21.795 148.41 21.795C147.28 21.795 146.21 21.72 145.2 21.57C145.06 21.54 144.94 21.47 144.84 21.36C144.75 21.25 144.705 21.13 144.705 21C144.705 20.81 144.775 20.66 144.915 20.55C145.055 20.44 145.21 20.395 145.38 20.415C145.75 20.465 146.19 20.515 146.7 20.565C147.22 20.605 147.8 20.625 148.44 20.625C148.93 20.625 149.45 20.61 150 20.58C150.56 20.54 151.15 20.485 151.77 20.415C151.93 20.395 152.07 20.44 152.19 20.55C152.31 20.65 152.37 20.78 152.37 20.94C152.37 21.1 152.32 21.24 152.22 21.36C152.12 21.48 151.99 21.55 151.83 21.57ZM153.375 28.605C152.545 28.835 151.745 29.02 150.975 29.16C150.215 29.29 149.48 29.355 148.77 29.355C147.79 29.355 146.86 29.205 145.98 28.905C145.11 28.605 144.275 28.11 143.475 27.42C143.345 27.3 143.28 27.155 143.28 26.985C143.28 26.815 143.33 26.675 143.43 26.565C143.55 26.435 143.7 26.37 143.88 26.37C144.04 26.37 144.175 26.42 144.285 26.52C144.875 27.01 145.53 27.41 146.25 27.72C146.97 28.02 147.83 28.17 148.83 28.17C149.42 28.17 150.07 28.11 150.78 27.99C151.5 27.86 152.285 27.665 153.135 27.405C153.155 27.395 153.18 27.39 153.21 27.39C153.24 27.39 153.265 27.39 153.285 27.39C153.445 27.39 153.58 27.445 153.69 27.555C153.8 27.655 153.855 27.79 153.855 27.96C153.855 28.11 153.81 28.245 153.72 28.365C153.63 28.475 153.515 28.555 153.375 28.605ZM167.19 28.74C167.37 28.72 167.525 28.77 167.655 28.89C167.795 29.01 167.865 29.16 167.865 29.34C167.865 29.5 167.81 29.64 167.7 29.76C167.6 29.88 167.465 29.95 167.295 29.97C166.895 30.01 166.32 30.05 165.57 30.09C164.83 30.14 163.985 30.165 163.035 30.165C162.265 30.165 161.635 30.06 161.145 29.85C160.665 29.63 160.345 29.28 160.185 28.8C160.115 28.59 160.08 28.375 160.08 28.155C160.08 27.635 160.325 27.11 160.815 26.58C161.315 26.05 162.17 25.465 163.38 24.825C163.49 24.785 163.51 24.725 163.44 24.645C163.22 24.325 162.885 24.165 162.435 24.165C162.165 24.165 161.87 24.22 161.55 24.33C161.23 24.43 160.895 24.57 160.545 24.75C160.505 24.77 160.46 24.805 160.41 24.855C160.37 24.885 160.33 24.92 160.29 24.96C160.25 24.99 160.205 25.02 160.155 25.05C160.075 25.12 159.97 25.155 159.84 25.155C159.64 25.155 159.485 25.065 159.375 24.885C159.315 24.775 159.285 24.67 159.285 24.57C159.285 24.37 159.365 24.205 159.525 24.075C159.845 23.825 160.14 23.54 160.41 23.22C160.68 22.9 160.925 22.535 161.145 22.125C161.165 22.085 161.175 22.06 161.175 22.05C161.175 21.98 161.13 21.955 161.04 21.975C160.73 22.015 160.435 22.05 160.155 22.08C159.875 22.1 159.615 22.12 159.375 22.14C159.215 22.15 159.08 22.1 158.97 21.99C158.86 21.88 158.805 21.745 158.805 21.585C158.805 21.425 158.86 21.29 158.97 21.18C159.08 21.07 159.215 21.01 159.375 21C160.125 20.97 160.895 20.895 161.685 20.775C161.755 20.765 161.805 20.725 161.835 20.655C161.925 20.395 162.015 20.125 162.105 19.845C162.195 19.565 162.275 19.27 162.345 18.96C162.375 18.83 162.445 18.725 162.555 18.645C162.665 18.565 162.785 18.525 162.915 18.525C163.085 18.525 163.22 18.585 163.32 18.705C163.43 18.815 163.485 18.945 163.485 19.095C163.485 19.155 163.48 19.2 163.47 19.23C163.42 19.42 163.365 19.605 163.305 19.785C163.255 19.965 163.2 20.14 163.14 20.31C163.14 20.32 163.135 20.33 163.125 20.34C163.125 20.35 163.125 20.36 163.125 20.37C163.125 20.45 163.175 20.475 163.275 20.445C163.555 20.365 163.83 20.28 164.1 20.19C164.38 20.09 164.645 19.99 164.895 19.89C164.975 19.86 165.045 19.845 165.105 19.845C165.215 19.845 165.315 19.875 165.405 19.935C165.505 19.985 165.575 20.065 165.615 20.175C165.635 20.215 165.645 20.255 165.645 20.295C165.645 20.325 165.645 20.355 165.645 20.385C165.645 20.655 165.53 20.835 165.3 20.925C164.92 21.085 164.505 21.23 164.055 21.36C163.615 21.49 163.165 21.605 162.705 21.705C162.635 21.715 162.585 21.75 162.555 21.81C162.455 22.03 162.355 22.24 162.255 22.44C162.155 22.64 162.05 22.835 161.94 23.025C161.92 23.065 161.91 23.09 161.91 23.1C161.91 23.15 161.955 23.17 162.045 23.16C162.155 23.14 162.255 23.125 162.345 23.115C162.445 23.105 162.54 23.1 162.63 23.1C163.09 23.1 163.47 23.2 163.77 23.4C164.07 23.59 164.305 23.83 164.475 24.12C164.525 24.2 164.585 24.22 164.655 24.18C165.025 23.99 165.41 23.775 165.81 23.535C166.21 23.295 166.63 23.02 167.07 22.71C167.17 22.64 167.28 22.605 167.4 22.605C167.6 22.605 167.755 22.69 167.865 22.86C167.935 22.96 167.97 23.07 167.97 23.19C167.97 23.4 167.885 23.56 167.715 23.67C167.375 23.89 167.065 24.085 166.785 24.255C166.505 24.425 166.22 24.585 165.93 24.735C165.64 24.885 165.31 25.05 164.94 25.23C164.87 25.27 164.84 25.33 164.85 25.41C164.92 25.86 164.97 26.495 165 27.315C165 27.475 164.945 27.61 164.835 27.72C164.725 27.83 164.59 27.885 164.43 27.885C164.27 27.885 164.135 27.83 164.025 27.72C163.915 27.61 163.855 27.475 163.845 27.315C163.835 27.055 163.825 26.82 163.815 26.61C163.805 26.39 163.79 26.19 163.77 26.01C163.77 25.89 163.715 25.86 163.605 25.92C162.775 26.36 162.175 26.765 161.805 27.135C161.435 27.495 161.25 27.83 161.25 28.14C161.25 28.23 161.265 28.32 161.295 28.41C161.385 28.63 161.555 28.795 161.805 28.905C162.055 29.015 162.495 29.07 163.125 29.07C163.955 29.07 165.31 28.96 167.19 28.74ZM178.935 20.13C178.915 20.17 178.905 20.195 178.905 20.205C178.905 20.265 178.945 20.295 179.025 20.295H180.285C180.855 20.295 181.305 20.375 181.635 20.535C181.975 20.695 182.215 20.91 182.355 21.18C182.505 21.45 182.58 21.75 182.58 22.08C182.58 22.35 182.54 22.63 182.46 22.92C182.38 23.2 182.27 23.47 182.13 23.73C181.7 24.58 181.195 25.38 180.615 26.13C180.045 26.87 179.36 27.585 178.56 28.275C177.76 28.965 176.8 29.65 175.68 30.33C175.59 30.39 175.495 30.42 175.395 30.42C175.185 30.42 175.025 30.325 174.915 30.135C174.865 30.055 174.84 29.96 174.84 29.85C174.84 29.64 174.935 29.48 175.125 29.37C175.935 28.89 176.665 28.385 177.315 27.855C177.965 27.315 178.545 26.77 179.055 26.22C179.105 26.15 179.105 26.085 179.055 26.025C178.835 25.725 178.545 25.43 178.185 25.14C177.825 24.84 177.425 24.595 176.985 24.405C176.765 24.305 176.655 24.14 176.655 23.91C176.655 23.84 176.67 23.77 176.7 23.7C176.81 23.46 177 23.34 177.27 23.34C177.36 23.34 177.44 23.355 177.51 23.385C177.95 23.575 178.365 23.83 178.755 24.15C179.155 24.46 179.495 24.78 179.775 25.11C179.845 25.18 179.91 25.18 179.97 25.11C180.2 24.79 180.41 24.47 180.6 24.15C180.8 23.83 180.975 23.52 181.125 23.22C181.315 22.82 181.41 22.495 181.41 22.245C181.41 21.975 181.315 21.765 181.125 21.615C180.945 21.455 180.665 21.375 180.285 21.375H178.215C178.155 21.375 178.1 21.405 178.05 21.465C177.59 22.095 177.065 22.71 176.475 23.31C175.895 23.91 175.29 24.45 174.66 24.93C174.56 25.01 174.45 25.05 174.33 25.05C174.16 25.05 174.01 24.97 173.88 24.81C173.81 24.71 173.775 24.6 173.775 24.48C173.775 24.29 173.85 24.135 174 24.015C174.83 23.375 175.535 22.725 176.115 22.065C176.705 21.395 177.19 20.77 177.57 20.19C177.95 19.6 178.24 19.105 178.44 18.705C178.56 18.485 178.73 18.375 178.95 18.375C179.12 18.375 179.255 18.435 179.355 18.555C179.465 18.665 179.52 18.79 179.52 18.93C179.52 19.02 179.5 19.1 179.46 19.17C179.39 19.33 179.31 19.49 179.22 19.65C179.13 19.8 179.035 19.96 178.935 20.13ZM192.45 30.33C192.39 30.36 192.32 30.375 192.24 30.375C192.11 30.375 191.99 30.325 191.88 30.225C191.77 30.125 191.715 29.99 191.715 29.82C191.715 29.57 191.835 29.39 192.075 29.28C192.875 28.92 193.545 28.465 194.085 27.915C194.625 27.355 195.06 26.745 195.39 26.085C195.72 25.425 195.97 24.765 196.14 24.105C196.32 23.445 196.44 22.83 196.5 22.26C196.52 22.12 196.575 22.01 196.665 21.93C196.765 21.85 196.875 21.81 196.995 21.81C197.185 21.81 197.335 21.885 197.445 22.035C197.555 22.175 197.6 22.33 197.58 22.5C197.35 24.46 196.785 26.105 195.885 27.435C194.995 28.765 193.85 29.73 192.45 30.33ZM192.96 25.11C192.74 25.11 192.59 25.01 192.51 24.81C192.38 24.47 192.255 24.09 192.135 23.67C192.025 23.24 191.94 22.82 191.88 22.41C191.86 22.26 191.9 22.125 192 22.005C192.1 21.885 192.23 21.825 192.39 21.825C192.51 21.825 192.62 21.865 192.72 21.945C192.82 22.025 192.875 22.13 192.885 22.26C192.945 22.63 193.025 23 193.125 23.37C193.235 23.74 193.34 24.065 193.44 24.345C193.47 24.415 193.485 24.49 193.485 24.57C193.485 24.7 193.44 24.825 193.35 24.945C193.26 25.055 193.13 25.11 192.96 25.11ZM191.025 25.845C190.955 25.885 190.87 25.905 190.77 25.905C190.69 25.905 190.61 25.885 190.53 25.845C190.45 25.795 190.39 25.73 190.35 25.65C190.18 25.29 190.015 24.885 189.855 24.435C189.695 23.975 189.57 23.555 189.48 23.175C189.45 23.015 189.485 22.875 189.585 22.755C189.695 22.625 189.83 22.56 189.99 22.56C190.26 22.56 190.43 22.7 190.5 22.98C190.58 23.31 190.685 23.675 190.815 24.075C190.955 24.465 191.095 24.82 191.235 25.14C191.255 25.18 191.27 25.22 191.28 25.26C191.29 25.3 191.295 25.34 191.295 25.38C191.295 25.59 191.205 25.745 191.025 25.845ZM213.795 20.715C213.365 20.715 212.99 20.56 212.67 20.25C212.36 19.93 212.205 19.555 212.205 19.125C212.205 18.685 212.36 18.31 212.67 18C212.99 17.69 213.365 17.535 213.795 17.535C214.235 17.535 214.61 17.69 214.92 18C215.23 18.31 215.385 18.685 215.385 19.125C215.385 19.555 215.23 19.93 214.92 20.25C214.61 20.56 214.235 20.715 213.795 20.715ZM213.795 20.115C214.075 20.115 214.31 20.02 214.5 19.83C214.69 19.63 214.785 19.395 214.785 19.125C214.785 18.845 214.69 18.61 214.5 18.42C214.31 18.23 214.075 18.135 213.795 18.135C213.525 18.135 213.29 18.23 213.09 18.42C212.9 18.61 212.805 18.845 212.805 19.125C212.805 19.395 212.9 19.63 213.09 19.83C213.29 20.02 213.525 20.115 213.795 20.115ZM205.83 30.12C205.76 30.15 205.69 30.165 205.62 30.165C205.35 30.165 205.165 30.04 205.065 29.79C205.035 29.71 205.02 29.635 205.02 29.565C205.02 29.315 205.145 29.13 205.395 29.01C206.995 28.33 208.275 27.5 209.235 26.52C210.205 25.54 210.905 24.33 211.335 22.89C211.395 22.69 211.44 22.505 211.47 22.335C211.51 22.155 211.53 22 211.53 21.87C211.53 21.57 211.435 21.345 211.245 21.195C211.065 21.045 210.765 20.945 210.345 20.895C210.125 20.875 209.9 20.86 209.67 20.85C209.45 20.83 209.22 20.82 208.98 20.82C208.22 20.82 207.42 20.875 206.58 20.985C205.74 21.095 204.87 21.25 203.97 21.45C203.81 21.48 203.66 21.445 203.52 21.345C203.38 21.235 203.31 21.095 203.31 20.925C203.31 20.755 203.355 20.61 203.445 20.49C203.535 20.37 203.66 20.29 203.82 20.25C204.33 20.14 204.89 20.045 205.5 19.965C206.11 19.885 206.73 19.825 207.36 19.785C207.99 19.735 208.58 19.71 209.13 19.71C209.39 19.71 209.64 19.72 209.88 19.74C210.12 19.75 210.34 19.765 210.54 19.785C211.12 19.855 211.565 19.995 211.875 20.205C212.185 20.415 212.4 20.665 212.52 20.955C212.65 21.245 212.715 21.55 212.715 21.87C212.715 22.1 212.69 22.335 212.64 22.575C212.59 22.805 212.535 23.02 212.475 23.22C211.985 24.82 211.2 26.18 210.12 27.3C209.04 28.42 207.61 29.36 205.83 30.12ZM223.5 27.63C223.37 27.63 223.255 27.585 223.155 27.495C223.055 27.395 223.005 27.275 223.005 27.135L222.81 19.125C222.8 18.935 222.865 18.77 223.005 18.63C223.145 18.49 223.31 18.42 223.5 18.42C223.7 18.42 223.865 18.49 223.995 18.63C224.135 18.77 224.2 18.935 224.19 19.125L223.995 27.135C223.995 27.275 223.945 27.395 223.845 27.495C223.755 27.585 223.64 27.63 223.5 27.63ZM223.5 30.42C223.24 30.42 223.015 30.325 222.825 30.135C222.645 29.955 222.555 29.74 222.555 29.49C222.555 29.23 222.645 29.01 222.825 28.83C223.015 28.64 223.24 28.545 223.5 28.545C223.76 28.545 223.98 28.64 224.16 28.83C224.35 29.01 224.445 29.23 224.445 29.49C224.445 29.74 224.35 29.955 224.16 30.135C223.98 30.325 223.76 30.42 223.5 30.42ZM238.5 27.63C238.37 27.63 238.255 27.585 238.155 27.495C238.055 27.395 238.005 27.275 238.005 27.135L237.81 19.125C237.8 18.935 237.865 18.77 238.005 18.63C238.145 18.49 238.31 18.42 238.5 18.42C238.7 18.42 238.865 18.49 238.995 18.63C239.135 18.77 239.2 18.935 239.19 19.125L238.995 27.135C238.995 27.275 238.945 27.395 238.845 27.495C238.755 27.585 238.64 27.63 238.5 27.63ZM238.5 30.42C238.24 30.42 238.015 30.325 237.825 30.135C237.645 29.955 237.555 29.74 237.555 29.49C237.555 29.23 237.645 29.01 237.825 28.83C238.015 28.64 238.24 28.545 238.5 28.545C238.76 28.545 238.98 28.64 239.16 28.83C239.35 29.01 239.445 29.23 239.445 29.49C239.445 29.74 239.35 29.955 239.16 30.135C238.98 30.325 238.76 30.42 238.5 30.42Z" fill="#CEB599"/>
</svg>
