<svg width="55" height="55" viewBox="0 0 55 55" fill="none" xmlns="http://www.w3.org/2000/svg">
<circle cx="27.5" cy="27.5" r="27.5" fill="#FCF8ED"/>
<path d="M34.2134 22.574C31.8411 22.2897 30.2998 19.4594 30.7699 16.2521C31.2405 13.0451 33.5446 10.6764 35.9163 10.9609C38.2884 11.2465 39.8298 14.0763 39.3596 17.2835C38.889 20.4906 36.585 22.8593 34.2134 22.574Z" fill="#EED9DD"/>
<path d="M39.4562 30.8359C37.4866 29.5636 37.2864 26.3373 39.009 23.6276C40.7316 20.9192 43.725 19.7548 45.6951 21.0261C47.6642 22.299 47.8641 25.5257 46.1415 28.2348C44.4188 30.9431 41.4258 32.1077 39.4562 30.8359Z" fill="#EED9DD"/>
<path d="M23.4042 22.2845C21.0063 22.4423 18.9846 19.9577 18.8873 16.7358C18.791 13.5123 20.6556 10.7734 23.0537 10.6158C25.451 10.4591 27.473 12.9445 27.57 16.1663C27.6665 19.3893 25.8015 22.1278 23.4042 22.2845Z" fill="#EED9DD"/>
<path d="M12.1378 20.1274C14.249 18.9653 17.0978 20.2857 18.501 23.0779C19.9041 25.8714 19.3299 29.0771 17.2187 30.2399C15.1079 31.4022 12.2587 30.0817 10.8557 27.2889C9.4531 24.4963 10.0268 21.2904 12.1378 20.1274Z" fill="#EED9DD"/>
<path d="M24.0428 26.8073C25.1162 25.3082 26.8424 24.3334 28.7565 24.3845C30.67 24.4359 32.2778 25.5002 33.174 27.0513C34.1643 28.7661 34.4699 30.4875 35.4656 31.6926C36.4612 32.8976 40.8725 33.1822 40.8882 38.56C40.8993 42.3583 37.4827 45.3587 33.7752 45.2592C30.9572 45.1837 29.2488 44.1298 27.6116 44.0856C25.9747 44.0414 24.1492 45.001 21.3314 44.9254C17.6239 44.8261 14.5659 41.6528 15.0175 37.8666C15.6568 32.5064 20.0879 32.4588 21.2204 31.3109C22.3524 30.1631 22.8567 28.4632 24.0428 26.8073Z" fill="#EED9DD"/>
</svg>
