<svg width="143" height="245" viewBox="0 0 143 245" fill="none" xmlns="http://www.w3.org/2000/svg">
<g opacity="0.5">
<path d="M45 202.876C39.7842 202.876 34.6522 201.784 29.7652 199.765V245H60.2348V199.765C55.3478 201.784 50.2158 202.876 45 202.876Z" fill="#85BFA0"/>
<path d="M108.607 92.0468C109.474 88.256 109.971 84.2786 109.971 80.1361C109.971 59.9039 98.7913 42.9611 83.7479 38.3334C79.5905 16.3595 63.8416 0 45 0C26.1583 0 10.4094 16.3595 6.25208 38.3334C-8.79743 42.9616 -19.9706 59.9039 -19.9706 80.1361C-19.9706 84.2781 -19.4802 88.256 -18.6066 92.0468C-28.0096 101.153 -34.0925 115.374 -34.0925 131.405C-34.0925 158.919 -16.25 181.222 5.76169 181.222C11.3366 181.222 16.6359 179.772 21.457 177.185C27.8094 183.921 36.0157 188.004 45 188.004C53.9842 188.004 62.1906 183.921 68.5429 177.185C73.3641 179.772 78.6637 181.222 84.2383 181.222C106.25 181.222 124.092 158.919 124.092 131.405C124.092 115.374 118.01 101.154 108.607 92.0468Z" fill="#85BFA0"/>
</g>
</svg>
