<svg width="160" height="180" viewBox="0 0 160 180" fill="none" xmlns="http://www.w3.org/2000/svg">
<path d="M147.464 32.8163L139.472 10.8214C141.427 9.77766 142.748 7.9541 142.748 5.87215C142.748 2.62582 139.591 0 135.68 0H26.6911C19.3395 0 12.622 2.49398 7.82035 6.50391C2.9988 10.4973 -0.00675215 16.084 1.13913e-05 22.1924V165.498C1.13913e-05 173.507 7.80725 180 17.4373 180H145.31C153.422 180 160 174.534 160 167.789V44.8516C160 38.7158 154.544 33.6952 147.464 32.8163ZM26.6911 32.6405C23.1968 32.6405 20.0991 31.4757 17.8071 29.5808C15.5219 27.6637 14.1214 25.0928 14.1214 22.1924C14.1214 19.292 15.5219 16.7157 17.8071 14.8039C20.0991 12.9087 23.1968 11.7443 26.6911 11.7443H128.983L136.579 32.6405H26.6911Z" fill="#CDB7BC"/>
<path d="M138.247 30.9931L130.755 10.2203C132.588 9.23445 133.826 7.51221 133.826 5.54592C133.826 2.47994 130.866 0 127.2 0H25.0229C18.1308 0 11.8332 2.35543 7.33158 6.14258C2.81137 9.91412 -0.00633014 15.1904 1.06794e-05 20.9595V156.304C1.06794e-05 163.868 7.3193 170 16.3474 170H136.229C143.833 170 150 164.838 150 158.467V42.3599C150 36.5649 144.885 31.8232 138.247 30.9931ZM25.0229 30.8271C21.747 30.8271 18.8429 29.7271 16.6942 27.9374C14.5518 26.1269 13.2388 23.6987 13.2388 20.9595C13.2388 18.2202 14.5518 15.7871 16.6942 13.9815C18.8429 12.1915 21.747 11.0918 25.0229 11.0918H120.921L128.043 30.8271H25.0229Z" fill="#EED9DD"/>
<path d="M47.19 70.23C47.13 70.37 47.18 70.44 47.34 70.44H55.26C55.82 70.44 56.29 70.64 56.67 71.04C57.05 71.42 57.24 71.88 57.24 72.42C57.24 73.26 57.23 74.22 57.21 75.3C57.19 76.38 57.16 77.5 57.12 78.66C57.1 79.82 57.07 80.94 57.03 82.02C56.99 83.08 56.95 84.02 56.91 84.84C56.77 87.28 56.23 89.06 55.29 90.18C54.37 91.32 52.95 91.89 51.03 91.89C50.85 91.89 50.67 91.88 50.49 91.86C50.31 91.86 50.12 91.85 49.92 91.83C49.58 91.79 49.3 91.64 49.08 91.38C48.86 91.14 48.75 90.86 48.75 90.54C48.75 90.14 48.91 89.81 49.23 89.55C49.55 89.27 49.91 89.15 50.31 89.19C50.51 89.21 50.69 89.23 50.85 89.25C51.03 89.25 51.19 89.25 51.33 89.25C52.03 89.25 52.58 89.11 52.98 88.83C53.38 88.55 53.68 88.08 53.88 87.42C54.08 86.74 54.22 85.82 54.3 84.66C54.36 83.92 54.4 83.07 54.42 82.11C54.46 81.15 54.49 80.14 54.51 79.08C54.55 78.02 54.58 76.98 54.6 75.96C54.62 74.92 54.63 73.98 54.63 73.14C54.63 73.02 54.59 72.96 54.51 72.96C54.43 72.96 54.37 73.01 54.33 73.11C53.83 75.53 53.07 77.81 52.05 79.95C51.03 82.09 49.79 84.02 48.33 85.74C46.89 87.46 45.25 88.92 43.41 90.12C43.31 90.18 43.2 90.23 43.08 90.27C42.98 90.31 42.87 90.33 42.75 90.33C42.53 90.33 42.31 90.27 42.09 90.15C41.89 90.03 41.74 89.86 41.64 89.64C41.52 89.42 41.46 89.2 41.46 88.98C41.46 88.46 41.68 88.06 42.12 87.78C44.56 86.18 46.57 84.15 48.15 81.69C49.75 79.23 50.91 76.39 51.63 73.17C51.63 73.03 51.57 72.96 51.45 72.96H50.52C50.44 72.96 50.38 73.01 50.34 73.11C50 74.41 49.54 75.61 48.96 76.71C48.38 77.81 47.75 78.81 47.07 79.71C46.39 80.61 45.71 81.39 45.03 82.05C44.35 82.71 43.75 83.24 43.23 83.64C43.01 83.8 42.78 83.88 42.54 83.88C42.06 83.88 41.71 83.65 41.49 83.19C41.43 83.09 41.39 82.98 41.37 82.86C41.35 82.74 41.34 82.63 41.34 82.53C41.34 81.99 41.55 81.57 41.97 81.27C43.27 80.25 44.41 79.05 45.39 77.67C46.37 76.29 47.12 74.79 47.64 73.17C47.68 73.03 47.63 72.96 47.49 72.96H46.02C45.9 72.96 45.83 73 45.81 73.08C45.37 73.8 44.91 74.47 44.43 75.09C43.97 75.69 43.51 76.22 43.05 76.68C42.83 76.9 42.56 77.01 42.24 77.01C42.06 77.01 41.88 76.97 41.7 76.89C41.52 76.81 41.37 76.69 41.25 76.53C41.05 76.27 40.95 75.98 40.95 75.66C40.95 75.26 41.09 74.92 41.37 74.64C42.35 73.62 43.19 72.43 43.89 71.07C44.61 69.71 45.16 68.24 45.54 66.66C45.62 66.34 45.78 66.08 46.02 65.88C46.28 65.68 46.57 65.58 46.89 65.58C47.31 65.58 47.64 65.73 47.88 66.03C48.14 66.33 48.23 66.67 48.15 67.05C47.95 68.13 47.63 69.19 47.19 70.23ZM41.91 80.19C41.93 80.23 41.94 80.28 41.94 80.34C41.94 80.4 41.94 80.45 41.94 80.49C41.94 81.17 41.63 81.64 41.01 81.9C40.77 81.98 40.52 82.07 40.26 82.17C40 82.25 39.74 82.33 39.48 82.41C39.38 82.45 39.33 82.51 39.33 82.59V90.63C39.33 90.99 39.2 91.29 38.94 91.53C38.7 91.77 38.41 91.89 38.07 91.89C37.73 91.89 37.43 91.77 37.17 91.53C36.93 91.29 36.81 90.99 36.81 90.63V83.34C36.81 83.2 36.74 83.15 36.6 83.19C36.04 83.33 35.48 83.46 34.92 83.58C34.36 83.68 33.84 83.78 33.36 83.88C33.04 83.94 32.74 83.86 32.46 83.64C32.2 83.42 32.07 83.14 32.07 82.8C32.07 82.44 32.18 82.12 32.4 81.84C32.64 81.56 32.94 81.38 33.3 81.3C33.82 81.2 34.36 81.09 34.92 80.97C35.5 80.83 36.08 80.69 36.66 80.55C36.76 80.51 36.81 80.45 36.81 80.37V73.8C36.81 73.68 36.75 73.62 36.63 73.62H35.64C35.52 73.62 35.45 73.67 35.43 73.77C35.21 74.27 34.97 74.75 34.71 75.21C34.45 75.67 34.16 76.1 33.84 76.5C33.64 76.76 33.37 76.89 33.03 76.89C32.67 76.89 32.37 76.74 32.13 76.44C31.91 76.18 31.8 75.88 31.8 75.54C31.8 75.2 31.91 74.87 32.13 74.55C32.69 73.79 33.11 72.91 33.39 71.91C33.69 70.91 33.89 69.89 33.99 68.85C34.03 68.51 34.17 68.22 34.41 67.98C34.67 67.74 34.97 67.62 35.31 67.62C35.65 67.62 35.94 67.74 36.18 67.98C36.42 68.2 36.54 68.48 36.54 68.82C36.54 69.16 36.51 69.5 36.45 69.84C36.41 70.18 36.36 70.52 36.3 70.86C36.28 70.98 36.34 71.04 36.48 71.04H36.63C36.75 71.04 36.81 70.98 36.81 70.86V67.02C36.81 66.68 36.93 66.39 37.17 66.15C37.43 65.89 37.73 65.76 38.07 65.76C38.41 65.76 38.7 65.88 38.94 66.12C39.2 66.36 39.33 66.66 39.33 67.02V70.86C39.33 70.98 39.39 71.04 39.51 71.04H40.77C41.13 71.04 41.43 71.17 41.67 71.43C41.93 71.69 42.06 71.99 42.06 72.33C42.06 72.67 41.93 72.97 41.67 73.23C41.43 73.49 41.13 73.62 40.77 73.62H39.51C39.39 73.62 39.33 73.68 39.33 73.8V79.56C39.33 79.7 39.4 79.75 39.54 79.71C39.7 79.65 39.85 79.59 39.99 79.53C40.13 79.47 40.27 79.42 40.41 79.38C40.47 79.34 40.53 79.32 40.59 79.32C40.67 79.32 40.74 79.32 40.8 79.32C41.08 79.32 41.32 79.4 41.52 79.56C41.74 79.7 41.87 79.91 41.91 80.19ZM71.07 68.88H64.29C63.93 68.88 63.62 68.75 63.36 68.49C63.12 68.23 63 67.93 63 67.59C63 67.25 63.12 66.95 63.36 66.69C63.62 66.43 63.93 66.3 64.29 66.3H71.07C71.41 66.3 71.7 66.43 71.94 66.69C72.2 66.93 72.33 67.23 72.33 67.59C72.33 67.93 72.2 68.23 71.94 68.49C71.7 68.75 71.41 68.88 71.07 68.88ZM85.32 77.91C85.32 78.03 85.38 78.09 85.5 78.09H86.73C87.07 78.09 87.36 78.22 87.6 78.48C87.86 78.72 87.99 79.01 87.99 79.35C87.99 79.67 87.86 79.96 87.6 80.22C87.36 80.46 87.07 80.58 86.73 80.58H73.65C73.33 80.58 73.04 80.46 72.78 80.22C72.54 79.98 72.42 79.69 72.42 79.35C72.42 79.01 72.54 78.72 72.78 78.48C73.02 78.22 73.31 78.09 73.65 78.09H75.21C75.33 78.09 75.4 78.05 75.42 77.97C75.76 77.41 76.07 76.79 76.35 76.11C76.63 75.43 76.88 74.74 77.1 74.04C77.14 73.9 77.09 73.83 76.95 73.83H75.24C74.9 73.83 74.6 73.71 74.34 73.47C74.08 73.21 73.95 72.91 73.95 72.57C73.95 72.21 74.08 71.91 74.34 71.67C74.6 71.41 74.9 71.28 75.24 71.28H77.7C77.78 71.28 77.84 71.23 77.88 71.13C77.96 70.73 78.03 70.35 78.09 69.99C78.15 69.61 78.2 69.26 78.24 68.94C78.28 68.82 78.23 68.76 78.09 68.76H74.22C73.9 68.76 73.61 68.64 73.35 68.4C73.11 68.16 72.99 67.87 72.99 67.53C72.99 67.19 73.11 66.9 73.35 66.66C73.59 66.42 73.88 66.3 74.22 66.3H86.13C86.47 66.3 86.76 66.42 87 66.66C87.24 66.9 87.36 67.19 87.36 67.53C87.36 67.85 87.24 68.14 87 68.4C86.76 68.64 86.47 68.76 86.13 68.76H81.03C80.93 68.76 80.86 68.82 80.82 68.94C80.78 69.28 80.73 69.63 80.67 69.99C80.63 70.35 80.57 70.71 80.49 71.07C80.49 71.21 80.55 71.28 80.67 71.28H83.34C83.88 71.28 84.34 71.48 84.72 71.88C85.12 72.26 85.32 72.72 85.32 73.26V77.91ZM71.91 72.9H63.45C63.11 72.9 62.81 72.78 62.55 72.54C62.29 72.28 62.16 71.98 62.16 71.64C62.16 71.28 62.28 70.98 62.52 70.74C62.78 70.48 63.09 70.35 63.45 70.35H71.91C72.25 70.35 72.55 70.48 72.81 70.74C73.07 70.98 73.2 71.28 73.2 71.64C73.2 71.98 73.07 72.28 72.81 72.54C72.55 72.78 72.25 72.9 71.91 72.9ZM82.77 74.01C82.77 73.89 82.71 73.83 82.59 73.83H79.98C79.9 73.83 79.84 73.88 79.8 73.98C79.38 75.42 78.89 76.72 78.33 77.88C78.27 78.02 78.32 78.09 78.48 78.09H82.59C82.71 78.09 82.77 78.03 82.77 77.91V74.01ZM64.41 74.37H70.92C71.26 74.37 71.56 74.5 71.82 74.76C72.08 75 72.21 75.3 72.21 75.66C72.21 76.02 72.08 76.33 71.82 76.59C71.56 76.83 71.26 76.95 70.92 76.95H64.41C64.07 76.95 63.77 76.83 63.51 76.59C63.27 76.33 63.15 76.02 63.15 75.66C63.15 75.32 63.27 75.02 63.51 74.76C63.77 74.5 64.07 74.37 64.41 74.37ZM64.41 78.42H70.92C71.26 78.42 71.56 78.55 71.82 78.81C72.08 79.05 72.21 79.34 72.21 79.68C72.21 80.02 72.08 80.32 71.82 80.58C71.58 80.84 71.28 80.97 70.92 80.97H64.41C64.07 80.97 63.77 80.85 63.51 80.61C63.27 80.35 63.15 80.04 63.15 79.68C63.15 79.34 63.27 79.05 63.51 78.81C63.77 78.55 64.07 78.42 64.41 78.42ZM76.14 81.81H84.27C84.81 81.81 85.27 82 85.65 82.38C86.05 82.76 86.25 83.23 86.25 83.79V89.7C86.25 90.24 86.06 90.7 85.68 91.08C85.3 91.48 84.83 91.68 84.27 91.68H76.14C75.6 91.68 75.13 91.49 74.73 91.11C74.35 90.73 74.16 90.26 74.16 89.7V83.79C74.16 83.25 74.35 82.79 74.73 82.41C75.11 82.01 75.58 81.81 76.14 81.81ZM65.07 82.44H70.29C70.83 82.44 71.29 82.63 71.67 83.01C72.07 83.39 72.27 83.86 72.27 84.42V89.73C72.27 90.25 72.07 90.71 71.67 91.11C71.29 91.51 70.83 91.71 70.29 91.71H65.07C64.53 91.71 64.06 91.51 63.66 91.11C63.28 90.73 63.09 90.27 63.09 89.73V84.42C63.09 83.88 63.28 83.42 63.66 83.04C64.06 82.64 64.53 82.44 65.07 82.44ZM76.71 89.01C76.71 89.13 76.77 89.19 76.89 89.19H83.46C83.58 89.19 83.64 89.13 83.64 89.01V84.48C83.64 84.36 83.58 84.3 83.46 84.3H76.89C76.77 84.3 76.71 84.36 76.71 84.48V89.01ZM65.67 89.1C65.67 89.22 65.73 89.28 65.85 89.28H69.51C69.63 89.28 69.69 89.22 69.69 89.1V85.02C69.69 84.9 69.63 84.84 69.51 84.84H65.85C65.73 84.84 65.67 84.9 65.67 85.02V89.1ZM115.53 86.61C115.89 86.85 116.07 87.19 116.07 87.63C116.07 87.91 115.98 88.19 115.8 88.47C115.56 88.81 115.21 88.98 114.75 88.98C114.49 88.98 114.23 88.9 113.97 88.74C112.95 88 111.9 87.41 110.82 86.97C110.78 86.95 110.74 86.94 110.7 86.94C110.6 86.94 110.53 87.01 110.49 87.15C110.21 88.31 109.61 89.2 108.69 89.82C107.79 90.42 106.62 90.72 105.18 90.72C104.14 90.72 103.21 90.55 102.39 90.21C101.57 89.87 100.92 89.41 100.44 88.83C99.98 88.25 99.75 87.6 99.75 86.88C99.75 86 99.98 85.3 100.44 84.78C100.9 84.24 101.53 83.85 102.33 83.61C103.13 83.37 104.02 83.25 105 83.25C105.92 83.25 106.86 83.34 107.82 83.52H107.88C108.04 83.52 108.12 83.44 108.12 83.28C108.12 82.24 108.09 81.12 108.03 79.92C107.97 78.72 107.9 77.52 107.82 76.32C107.8 76.14 107.7 76.05 107.52 76.05C106.34 76.11 105.12 76.16 103.86 76.2C102.62 76.22 101.39 76.23 100.17 76.23C99.81 76.23 99.5 76.1 99.24 75.84C99 75.58 98.88 75.27 98.88 74.91C98.88 74.55 99.01 74.25 99.27 74.01C99.53 73.75 99.84 73.62 100.2 73.62H101.37C102.31 73.62 103.29 73.61 104.31 73.59C105.33 73.55 106.33 73.51 107.31 73.47C107.51 73.47 107.59 73.38 107.55 73.2C107.47 72.28 107.38 71.43 107.28 70.65C107.2 69.85 107.11 69.16 107.01 68.58C106.95 68.2 107.04 67.86 107.28 67.56C107.54 67.26 107.87 67.11 108.27 67.11C108.59 67.11 108.87 67.21 109.11 67.41C109.35 67.61 109.5 67.88 109.56 68.22C109.66 68.82 109.76 69.54 109.86 70.38C109.96 71.22 110.05 72.12 110.13 73.08C110.17 73.26 110.27 73.34 110.43 73.32C111.79 73.26 113 73.17 114.06 73.05C114.44 73.01 114.76 73.11 115.02 73.35C115.3 73.59 115.44 73.9 115.44 74.28C115.44 74.6 115.32 74.9 115.08 75.18C114.86 75.44 114.58 75.59 114.24 75.63C113.74 75.67 113.18 75.72 112.56 75.78C111.96 75.82 111.32 75.86 110.64 75.9C110.46 75.94 110.38 76.04 110.4 76.2C110.5 77.54 110.58 78.9 110.64 80.28C110.7 81.64 110.73 82.89 110.73 84.03C110.73 84.19 110.81 84.3 110.97 84.36C111.83 84.66 112.65 85 113.43 85.38C114.21 85.74 114.91 86.15 115.53 86.61ZM96.96 67.44C97.34 67.44 97.65 67.58 97.89 67.86C98.13 68.14 98.25 68.45 98.25 68.79C98.25 68.85 98.24 68.91 98.22 68.97C98.22 69.03 98.21 69.09 98.19 69.15C97.81 70.45 97.49 72.02 97.23 73.86C96.97 75.7 96.84 77.67 96.84 79.77C96.84 81.25 96.92 82.76 97.08 84.3C97.26 85.84 97.54 87.37 97.92 88.89C97.94 88.95 97.95 89.01 97.95 89.07C97.95 89.13 97.95 89.18 97.95 89.22C97.95 89.56 97.83 89.87 97.59 90.15C97.35 90.43 97.04 90.57 96.66 90.57C96.38 90.57 96.13 90.48 95.91 90.3C95.69 90.14 95.54 89.91 95.46 89.61C95.06 88.01 94.76 86.34 94.56 84.6C94.36 82.86 94.26 81.11 94.26 79.35C94.26 77.39 94.38 75.48 94.62 73.62C94.86 71.74 95.22 69.98 95.7 68.34C95.8 68.06 95.96 67.84 96.18 67.68C96.42 67.52 96.68 67.44 96.96 67.44ZM105.18 88.11C106.06 88.11 106.72 87.98 107.16 87.72C107.6 87.46 107.88 87.02 108 86.4V86.34C108 86.2 107.92 86.11 107.76 86.07C107.26 85.97 106.76 85.9 106.26 85.86C105.76 85.82 105.25 85.8 104.73 85.8C103.91 85.8 103.31 85.9 102.93 86.1C102.57 86.28 102.39 86.51 102.39 86.79C102.39 87.11 102.64 87.41 103.14 87.69C103.64 87.97 104.32 88.11 105.18 88.11ZM36.69 116.32C35.59 116.46 34.46 116.57 33.3 116.65C32.14 116.73 30.97 116.77 29.79 116.77C27.53 116.77 25.39 116.62 23.37 116.32C23.05 116.26 22.78 116.11 22.56 115.87C22.34 115.61 22.23 115.32 22.23 115C22.23 114.54 22.39 114.19 22.71 113.95C23.05 113.69 23.41 113.59 23.79 113.65C24.51 113.75 25.38 113.85 26.4 113.95C27.44 114.03 28.6 114.07 29.88 114.07C30.84 114.07 31.87 114.04 32.97 113.98C34.09 113.9 35.27 113.79 36.51 113.65C36.89 113.61 37.22 113.72 37.5 113.98C37.78 114.22 37.92 114.54 37.92 114.94C37.92 115.28 37.8 115.59 37.56 115.87C37.32 116.13 37.03 116.28 36.69 116.32ZM39.78 130.39C38.12 130.85 36.52 131.22 34.98 131.5C33.46 131.76 31.99 131.89 30.57 131.89C28.57 131.89 26.68 131.59 24.9 130.99C23.12 130.39 21.43 129.39 19.83 127.99C19.53 127.71 19.38 127.37 19.38 126.97C19.38 126.59 19.5 126.27 19.74 126.01C20.02 125.71 20.36 125.56 20.76 125.56C21.1 125.56 21.41 125.67 21.69 125.89C22.87 126.87 24.16 127.66 25.56 128.26C26.98 128.86 28.66 129.16 30.6 129.16C31.78 129.16 33.08 129.04 34.5 128.8C35.92 128.54 37.49 128.15 39.21 127.63C39.27 127.61 39.33 127.6 39.39 127.6C39.45 127.58 39.51 127.57 39.57 127.57C39.93 127.57 40.24 127.7 40.5 127.96C40.76 128.2 40.89 128.52 40.89 128.92C40.89 129.24 40.79 129.54 40.59 129.82C40.39 130.1 40.12 130.29 39.78 130.39ZM69.36 125.44C69.48 125.82 69.54 126.27 69.54 126.79C69.54 127.51 69.38 128.28 69.06 129.1C68.76 129.92 68.24 130.7 67.5 131.44C66.76 132.18 65.75 132.78 64.47 133.24C63.19 133.7 61.57 133.93 59.61 133.93C59.39 133.93 59.16 133.93 58.92 133.93C58.68 133.93 58.44 133.92 58.2 133.9C57.88 133.86 57.6 133.71 57.36 133.45C57.14 133.21 57.03 132.93 57.03 132.61C57.03 132.23 57.17 131.92 57.45 131.68C57.75 131.42 58.08 131.31 58.44 131.35C58.66 131.37 58.88 131.38 59.1 131.38C59.32 131.38 59.53 131.38 59.73 131.38C61.39 131.38 62.76 131.18 63.84 130.78C64.94 130.38 65.76 129.86 66.3 129.22C66.84 128.56 67.11 127.87 67.11 127.15C67.11 126.57 66.95 126 66.63 125.44C66.31 124.88 65.81 124.43 65.13 124.09C64.47 123.73 63.7 123.55 62.82 123.55C61.78 123.55 60.65 123.86 59.43 124.48C58.21 125.1 57.06 126.15 55.98 127.63C55.6 128.17 55.07 128.44 54.39 128.44C53.93 128.44 53.55 128.27 53.25 127.93C52.95 127.57 52.81 127.17 52.83 126.73C52.97 125.37 53.16 124.01 53.4 122.65C53.66 121.29 53.95 119.94 54.27 118.6C54.27 118.58 54.27 118.57 54.27 118.57C54.29 118.55 54.3 118.53 54.3 118.51C54.3 118.35 54.21 118.29 54.03 118.33C53.83 118.35 53.63 118.36 53.43 118.36C53.25 118.36 53.06 118.36 52.86 118.36C52.54 118.36 52.23 118.36 51.93 118.36C51.65 118.34 51.37 118.32 51.09 118.3C50.75 118.28 50.47 118.15 50.25 117.91C50.03 117.67 49.92 117.39 49.92 117.07C49.92 116.69 50.05 116.38 50.31 116.14C50.57 115.88 50.88 115.75 51.24 115.75H52.44C52.78 115.75 53.15 115.75 53.55 115.75C53.97 115.73 54.4 115.71 54.84 115.69C55.02 115.69 55.12 115.62 55.14 115.48C55.4 114.64 55.66 113.82 55.92 113.02C56.2 112.2 56.47 111.41 56.73 110.65C56.97 110.09 57.38 109.81 57.96 109.81C58.36 109.81 58.68 109.95 58.92 110.23C59.18 110.49 59.31 110.79 59.31 111.13C59.31 111.27 59.28 111.42 59.22 111.58C59.02 112.14 58.82 112.71 58.62 113.29C58.42 113.85 58.22 114.42 58.02 115C58.02 115.02 58.01 115.04 57.99 115.06C57.99 115.08 57.99 115.1 57.99 115.12C57.99 115.26 58.08 115.32 58.26 115.3C59.14 115.14 60.05 114.94 60.99 114.7C61.93 114.44 62.88 114.13 63.84 113.77C64 113.71 64.16 113.68 64.32 113.68C64.66 113.68 64.96 113.8 65.22 114.04C65.5 114.28 65.64 114.6 65.64 115C65.64 115.26 65.57 115.5 65.43 115.72C65.31 115.92 65.12 116.07 64.86 116.17C63.74 116.59 62.52 116.96 61.2 117.28C59.9 117.6 58.59 117.85 57.27 118.03C57.11 118.07 57.02 118.15 57 118.27C56.74 119.25 56.5 120.23 56.28 121.21C56.06 122.17 55.87 123.14 55.71 124.12V124.18C55.71 124.24 55.75 124.27 55.83 124.27C55.97 124.27 56.11 124.2 56.25 124.06C57.37 123.06 58.52 122.33 59.7 121.87C60.88 121.41 62.01 121.18 63.09 121.18C64.59 121.18 65.91 121.57 67.05 122.35C68.21 123.11 68.98 124.14 69.36 125.44ZM92.22 114.22C90.66 113.32 88.79 112.78 86.61 112.6C86.27 112.56 85.98 112.42 85.74 112.18C85.52 111.92 85.41 111.63 85.41 111.31C85.41 110.91 85.56 110.57 85.86 110.29C86.16 110.01 86.52 109.89 86.94 109.93C89.34 110.17 91.46 110.79 93.3 111.79C93.8 112.07 94.05 112.5 94.05 113.08C94.05 113.26 94 113.47 93.9 113.71C93.82 113.91 93.68 114.08 93.48 114.22C93.28 114.34 93.07 114.4 92.85 114.4C92.65 114.4 92.44 114.34 92.22 114.22ZM88.02 133.84C87.66 133.82 87.36 133.68 87.12 133.42C86.9 133.16 86.79 132.86 86.79 132.52C86.79 132.12 86.93 131.8 87.21 131.56C87.51 131.3 87.85 131.19 88.23 131.23C88.83 131.29 89.39 131.32 89.91 131.32C91.59 131.32 92.97 131.1 94.05 130.66C95.13 130.2 95.93 129.62 96.45 128.92C96.97 128.2 97.23 127.45 97.23 126.67C97.23 126.27 97.17 125.88 97.05 125.5C96.79 124.62 96.29 123.95 95.55 123.49C94.83 123.03 93.98 122.8 93 122.8C91.72 122.8 90.33 123.21 88.83 124.03C87.33 124.83 85.96 126.07 84.72 127.75C84.36 128.27 83.87 128.53 83.25 128.53C82.75 128.53 82.34 128.36 82.02 128.02C81.7 127.68 81.54 127.29 81.54 126.85C81.56 125.53 81.66 124.18 81.84 122.8C82.04 121.4 82.3 120.06 82.62 118.78C82.96 117.48 83.35 116.34 83.79 115.36C83.89 115.12 84.05 114.94 84.27 114.82C84.49 114.68 84.72 114.61 84.96 114.61C85.36 114.61 85.68 114.75 85.92 115.03C86.16 115.29 86.28 115.59 86.28 115.93C86.28 116.13 86.24 116.31 86.16 116.47C85.9 117.11 85.63 117.88 85.35 118.78C85.09 119.66 84.85 120.57 84.63 121.51C84.43 122.45 84.28 123.32 84.18 124.12V124.18C84.18 124.26 84.21 124.32 84.27 124.36C84.35 124.38 84.43 124.35 84.51 124.27C85.87 122.95 87.3 121.99 88.8 121.39C90.3 120.77 91.73 120.46 93.09 120.46C94.73 120.46 96.15 120.87 97.35 121.69C98.57 122.49 99.33 123.62 99.63 125.08C99.67 125.32 99.7 125.56 99.72 125.8C99.76 126.04 99.78 126.29 99.78 126.55C99.78 127.47 99.58 128.37 99.18 129.25C98.8 130.11 98.19 130.89 97.35 131.59C96.51 132.29 95.42 132.84 94.08 133.24C92.76 133.66 91.15 133.87 89.25 133.87C89.05 133.87 88.85 133.87 88.65 133.87C88.45 133.87 88.24 133.86 88.02 133.84ZM120 134.23C119.26 134.23 118.75 133.86 118.47 133.12C118.13 132.1 117.68 131.23 117.12 130.51C116.56 129.79 115.94 129.15 115.26 128.59C114.58 128.03 113.88 127.5 113.16 127C112.38 126.42 111.62 125.82 110.88 125.2C110.14 124.56 109.49 123.81 108.93 122.95C108.39 122.07 108 121 107.76 119.74C107.72 119.48 107.69 119.23 107.67 118.99C107.65 118.73 107.64 118.47 107.64 118.21C107.64 116.89 107.9 115.66 108.42 114.52C108.96 113.38 109.68 112.44 110.58 111.7C111.48 110.94 112.5 110.5 113.64 110.38C113.8 110.36 113.96 110.35 114.12 110.35C114.3 110.33 114.46 110.32 114.6 110.32C117 110.32 118.78 111.26 119.94 113.14C119.94 113.16 119.94 113.17 119.94 113.17C119.96 113.17 119.97 113.17 119.97 113.17C119.99 113.17 120.04 113.13 120.12 113.05C121.3 111.23 123.07 110.32 125.43 110.32C125.59 110.32 125.75 110.33 125.91 110.35C126.07 110.35 126.23 110.36 126.39 110.38C127.51 110.5 128.6 111 129.66 111.88C130.56 112.68 131.23 113.62 131.67 114.7C132.13 115.78 132.36 116.9 132.36 118.06C132.36 119.2 132.14 120.34 131.7 121.48C131.28 122.6 130.64 123.63 129.78 124.57C129.36 125.01 128.91 125.42 128.43 125.8C127.97 126.16 127.49 126.51 126.99 126.85C126.25 127.39 125.53 127.96 124.83 128.56C124.13 129.14 123.49 129.8 122.91 130.54C122.35 131.26 121.89 132.12 121.53 133.12C121.25 133.86 120.74 134.23 120 134.23ZM120 132.85C120.02 132.85 120.03 132.86 120.03 132.88C120.05 132.88 120.06 132.88 120.06 132.88C120.08 132.88 120.12 132.8 120.18 132.64C120.7 131.18 121.46 129.91 122.46 128.83C123.06 128.15 123.68 127.57 124.32 127.09C124.96 126.59 125.58 126.13 126.18 125.71C126.92 125.15 127.61 124.61 128.25 124.09C128.89 123.55 129.44 122.92 129.9 122.2C130.36 121.48 130.68 120.58 130.86 119.5C130.9 119.28 130.93 119.06 130.95 118.84C130.97 118.62 130.98 118.41 130.98 118.21C130.98 117.13 130.77 116.12 130.35 115.18C129.93 114.24 129.35 113.46 128.61 112.84C127.89 112.22 127.08 111.86 126.18 111.76C126.04 111.74 125.9 111.73 125.76 111.73C125.62 111.71 125.48 111.7 125.34 111.7C124.24 111.7 123.28 111.99 122.46 112.57C121.66 113.13 121.07 113.94 120.69 115C120.57 115.34 120.34 115.51 120 115.51C119.74 115.51 119.54 115.41 119.4 115.21C119.36 115.13 119.33 115.06 119.31 115C119.29 114.94 119.27 114.88 119.25 114.82C118.85 113.82 118.25 113.05 117.45 112.51C116.67 111.97 115.75 111.7 114.69 111.7C114.55 111.7 114.41 111.71 114.27 111.73C114.13 111.73 113.98 111.74 113.82 111.76C112.92 111.86 112.11 112.22 111.39 112.84C110.67 113.46 110.09 114.25 109.65 115.21C109.23 116.15 109.02 117.16 109.02 118.24C109.02 118.44 109.03 118.65 109.05 118.87C109.09 119.07 109.12 119.28 109.14 119.5C109.34 120.62 109.71 121.58 110.25 122.38C110.79 123.18 111.43 123.89 112.17 124.51C112.93 125.11 113.7 125.7 114.48 126.28C115.04 126.66 115.58 127.07 116.1 127.51C116.62 127.93 117.1 128.37 117.54 128.83C118.5 129.85 119.26 131.12 119.82 132.64C119.88 132.8 119.91 132.88 119.91 132.88C119.93 132.86 119.96 132.85 120 132.85Z" fill="#595252"/>
</svg>
